<?xml version="1.0" standalone="no"?>
<svg version="1.1" id="Layer_1" xmlns="http://www.w3.org/2000/svg" xmlns:xlink="http://www.w3.org/1999/xlink" x="0px" y="0px" width="595.279px" height="595.279px" viewBox="0 0.001 595.279 595.279" enable-background="new 0 0.001 595.279 595.279" xml:space="preserve">
<path id="color_x5F_5" fill="#FFD2BB" d="M274.185,280.862l-0.074,13.717l-6.082-2.71c-1.455-0.648-4.252-5.888-3.181-8.292
	c1.413-3.167,5.126-4.591,8.294-3.18L274.185,280.862z M282.752,314.185l-2.215,7.337l0,0.001v0.001l-0.002,0.006l0.021,0.951
	l-0.31,0.008l-4.093,13.57h42.183l-4.137-13.973l-2.095-7.079c-3.582,2.953-8.337,4.954-14.475,4.954
	C291.985,319.962,286.806,317.719,282.752,314.185z M325.477,292.255c0.015-0.234,0.024-0.393,0.028-0.445l0.829,0.063l0.009-0.004
	c3.17-1.412,4.594-5.124,3.182-8.292c-1.414-3.167-5.125-4.591-8.293-3.18l-0.078,0.035v13.75L325.477,292.255z M415.484,350.642
	c-0.228-0.021-0.453-0.052-0.684-0.052c-2.08,0-4.025,0.836-5.709,2.277c-0.721,0.616-1.389,1.349-2,2.175
	c-2.327,3.145-3.799,7.676-3.799,12.731c0,0.739,0.033,1.467,0.094,2.182l-2.678,3.505l-1.682,2.2l-6.603,8.642
	c0.007,0.418,0.009,0.653,0.009,0.653h-0.509l-0.001,0.001l-37.57,0.024v0.006c-0.252,3.855-1.083,15.768-2.105,30.295
	c-0.046,0.662-0.093,1.328-0.141,2c-0.136,1.936-0.275,3.914-0.417,5.918c-0.253,3.599-0.514,7.287-0.776,10.998
	c1.216,12.161,9.371,21.563,19.262,21.563c7.654,0,14.273-5.641,17.434-13.834l7.358-18.728l2.325-5.918l0.785-2l9.014-22.939
	l2-5.091l1.395-3.549c1.332,0.807,2.789,1.254,4.314,1.254c0.23,0,0.456-0.031,0.684-0.052c6.039-0.53,10.828-7.986,10.828-17.131
	S421.523,351.173,415.484,350.642z M242.189,423.2c-0.042-2.004-0.085-3.982-0.127-5.918c-0.015-0.672-0.029-1.338-0.044-2
	c-0.321-14.512-0.625-26.413-0.829-30.282l-0.001-0.021l-14.527-0.012h-0.554l-22.007-0.011l0.045,1.035l-5.38-7.041
	c0.006,0.714,0.01,1.139,0.01,1.176l-1.682,0.017c0-0.066-0.012-1.338-0.031-3.42l-5.171-6.768c0.061-0.715,0.095-1.442,0.095-2.182
	c0-5.056-1.472-9.587-3.8-12.731c-0.612-0.826-1.28-1.559-2-2.175c-1.684-1.441-3.63-2.277-5.71-2.277
	c-0.23,0-0.456,0.031-0.683,0.052c-6.038,0.53-10.827,7.987-10.827,17.132s4.79,16.601,10.827,17.131
	c0.227,0.021,0.453,0.052,0.683,0.052c1.527,0,2.983-0.447,4.316-1.254l1.394,3.548l2,5.091l9.013,22.94l0.786,2l2.325,5.918
	l7.358,18.728v-0.879c3.017,8.663,9.823,14.713,17.748,14.713c7.448,0,13.914-5.345,17.17-13.181
	C242.457,436.093,242.323,429.507,242.189,423.2z"></path>
<path id="color_x5F_4" fill="#00CEC9" d="M342.766,417.282l-0.112,5.918h-0.001L342.766,417.282L342.766,417.282z M269.515,395.144
	c0.351,2.26,1.436,4.326,3.049,6.028C270.951,399.47,269.865,397.403,269.515,395.144z M282.723,405.802
	c-0.41-0.032-0.813-0.081-1.212-0.142c-0.057-0.009-0.115-0.016-0.173-0.025c-0.389-0.063-0.772-0.139-1.15-0.227
	c-0.061-0.014-0.12-0.028-0.18-0.042c-0.376-0.092-0.748-0.195-1.112-0.311c-0.051-0.017-0.102-0.033-0.153-0.05
	c-0.371-0.123-0.736-0.255-1.091-0.401c-0.03-0.013-0.062-0.025-0.092-0.038c-0.762-0.318-1.489-0.688-2.168-1.107
	c-0.004-0.002-0.007-0.004-0.01-0.006c-0.338-0.208-0.665-0.429-0.979-0.661c-0.015-0.013-0.033-0.024-0.049-0.036
	c-0.308-0.229-0.604-0.469-0.89-0.719c-0.017-0.015-0.035-0.029-0.052-0.045c-0.286-0.253-0.558-0.515-0.816-0.785
	c-0.011-0.011-0.021-0.022-0.031-0.034c-1.614-1.702-2.698-3.769-3.049-6.028c-0.081-0.521-0.127-1.054-0.127-1.594v-32.288v-7.156
	c0-0.047,0.003-0.094,0.005-0.141h-0.001c0,0.047-0.004,0.094-0.004,0.142v7.157v32.287c0,0.54,0.046,1.071,0.127,1.593
	c0.35,2.261,1.434,4.326,3.047,6.029c0.011,0.011,0.021,0.022,0.032,0.034c0.259,0.271,0.531,0.532,0.816,0.785
	c0.017,0.015,0.035,0.03,0.052,0.045c0.285,0.249,0.581,0.489,0.89,0.719c0.016,0.012,0.033,0.023,0.05,0.035
	c0.315,0.232,0.641,0.453,0.979,0.661c0.004,0.003,0.007,0.005,0.009,0.006c0.681,0.419,1.406,0.789,2.17,1.107
	c0.03,0.013,0.061,0.026,0.092,0.039c0.355,0.146,0.72,0.278,1.091,0.4c0.05,0.017,0.102,0.034,0.153,0.05
	c0.363,0.116,0.734,0.219,1.111,0.312c0.06,0.014,0.12,0.027,0.18,0.042c0.377,0.088,0.762,0.164,1.151,0.227
	c0.058,0.01,0.115,0.016,0.173,0.025c0.398,0.06,0.803,0.108,1.211,0.142c0.042,0.003,0.084,0.005,0.125,0.008
	c0.432,0.032,0.867,0.051,1.307,0.051h0.001c-0.44,0-0.875-0.019-1.306-0.051c0.431,0.032,0.866,0.051,1.306,0.051h0
	c-0.441,0-0.875-0.019-1.306-0.051C282.806,405.806,282.764,405.804,282.723,405.802z M269.516,395.144v-41.179h-0.001v41.179
	H269.516z M263.366,363.505L263.366,363.505c-1.1,0.582-2.135,1.259-3.121,1.994C261.231,364.764,262.266,364.088,263.366,363.505z
	 M315.677,405.367c-0.061,0.014-0.119,0.027-0.18,0.042C315.556,405.395,315.617,405.382,315.677,405.367
	c0.377-0.092,0.748-0.194,1.111-0.31c0.017-0.006,0.032-0.011,0.049-0.017c-0.016,0.005-0.031,0.011-0.047,0.016
	C316.426,405.172,316.054,405.274,315.677,405.367z M318.035,404.606c-0.097,0.04-0.199,0.07-0.297,0.108
	c0.098-0.037,0.199-0.068,0.295-0.107c0.029-0.013,0.059-0.024,0.086-0.038c0.382-0.159,0.755-0.331,1.117-0.516
	c-0.362,0.185-0.734,0.356-1.115,0.515C318.092,404.581,318.064,404.594,318.035,404.606z M320.864,403.077
	c0.139-0.095,0.282-0.183,0.417-0.281c0.007-0.005,0.014-0.01,0.021-0.016c-0.007,0.005-0.014,0.01-0.021,0.015
	C321.147,402.893,321.003,402.982,320.864,403.077z M241.187,384.979l0.001,0.021C241.188,384.994,241.188,384.985,241.187,384.979
	L241.187,384.979z M322.222,402.041c0.009-0.008,0.018-0.016,0.026-0.023C322.24,402.025,322.231,402.034,322.222,402.041
	c-0.109,0.097-0.229,0.183-0.342,0.275C321.994,402.223,322.113,402.137,322.222,402.041z M410.486,383.703l-1.395,3.549v30.03
	h-11.799l-2.325,5.918h20.517v-38.295c-0.228,0.021-0.453,0.052-0.684,0.052C413.275,384.957,411.818,384.51,410.486,383.703z
	 M407.092,415.282v-22.939l-9.014,22.939H407.092z M314.176,405.661c-0.398,0.06-0.801,0.108-1.209,0.141
	c-0.043,0.004-0.086,0.005-0.127,0.009c-0.399,0.03-0.803,0.045-1.21,0.047c0.408-0.002,0.81-0.017,1.21-0.046
	c0.041-0.004,0.084-0.005,0.125-0.009C313.373,405.77,313.777,405.722,314.176,405.661c0.059-0.009,0.115-0.016,0.174-0.025
	c0.389-0.063,0.771-0.139,1.148-0.227c-0.377,0.088-0.758,0.164-1.148,0.226C314.291,405.644,314.234,405.651,314.176,405.661z
	 M188.187,415.282h9.013l-9.013-22.94V415.282z M186.187,417.282v-30.031l-1.394-3.548c-1.333,0.807-2.789,1.254-4.316,1.254
	c-0.23,0-0.456-0.031-0.683-0.052V423.2h20.518l-2.325-5.918H186.187z M354.353,384.98c0,0.002,0,0.005,0,0.007V384.98l37.57-0.023
	l0.001-0.001L369,384.969L354.353,384.98z M332.318,364.199c6.666,4.049,11.09,11.15,11.088,19.242l-0.603,31.841h0.001
	l0.604-31.841C343.408,375.349,338.986,368.249,332.318,364.199z M239.912,327.474v13.953c2.012-0.41,4.026-0.806,6.022-1.171
	c6.294-1.164,12.38-2.119,17.432-2.821v-4.069h6.148v3.272v17.327h0v-17.327c3.186-0.378,5.457-0.579,6.362-0.579h0.276l4.093-13.57
	l-37.299,0.91C242.806,325.271,241.596,326.834,239.912,327.474z M238.23,327.796c-2.424,0-4.401-1.822-4.694-4.167l-19.562,0.478
	c-0.131,0.008-15.528,0.978-15.528,9.988c0,8.852,0.262,38.595,0.318,44.856l5.38,7.041l-0.045-1.035l22.007,0.011l-22.006-0.013
	c0,0-0.681-23.625,2.326-30.901c1.871-4.527,14.995-8.623,29.368-11.762c1.192-0.263,2.397-0.509,3.6-0.756h-1.164V327.796z
	 M282.752,314.185c-2.813-2.452-5.08-5.527-6.587-8.908c-0.286-0.641-0.544-1.292-0.773-1.952l0.004,0.841
	c-0.311,0.001-18.3,0.097-35.484,0.11v1.001v13.333c1.347,0.512,2.386,1.614,2.826,2.995l37.779-0.923l0.018,0.848l0.002-0.006
	v-0.001l0-0.001L282.752,314.185z M238.23,282.698c2.625,0,4.753,2.128,4.753,4.753c0,2.031-1.279,3.751-3.071,4.432v10.711
	c16.092-0.012,32.892-0.096,35.202-0.108c-0.655-2.136-1.01-4.352-1.01-6.58l0.007-1.326l-6.082-2.71
	c-1.455-0.648-4.252-5.888-3.181-8.292c1.413-3.167,5.126-4.591,8.294-3.18l1.042,0.465l0.047-8.652h0.001v-1.855h-86.046v32.922v2
	v49.766c2.328,3.145,3.8,7.676,3.8,12.731c0,0.739-0.035,1.467-0.095,2.182l5.171,6.768c-0.081-9.241-0.298-34.574-0.298-42.629
	c0-10.712,16.448-11.747,17.148-11.785l19.741-0.482c0.54-2.032,2.374-3.538,4.577-3.538v-13.012v-1.001
	c-0.686,0.001-1.37,0.001-2.049,0.001c-11.1,0-21.279-0.04-25.366-0.171c-1.406-0.045-2.645-0.322-3.711-0.829
	c-1.069-0.508-1.965-1.246-2.678-2.212c-1.901-2.572-2.098-6.25-1.869-9.14c-1.863-0.643-3.21-2.393-3.21-4.475
	c0-2.625,2.128-4.753,4.753-4.753c2.625,0,4.753,2.128,4.753,4.753c0,2.581-2.06,4.67-4.624,4.74
	c-0.193,2.58-0.018,5.756,1.551,7.877c1.118,1.513,2.783,2.283,5.089,2.356c4.323,0.138,15.501,0.176,27.362,0.17v-10.391
	c-2.625,0-4.753-2.128-4.753-4.753C233.477,284.825,235.605,282.698,238.23,282.698z M179.793,261.001v42.276v2v45.365
	c0.227-0.021,0.453-0.052,0.683-0.052c2.08,0,4.026,0.836,5.71,2.277v-47.591v-2v-34.922h88.046v-0.874
	c0-2.258,0.378-4.43,1.05-6.481H179.793z M387.547,326.294c-6.348-0.5-22.285-0.367-33.163-0.201
	c-0.872,1.033-2.161,1.703-3.618,1.703c-1.399,0-2.646-0.616-3.516-1.579c-2.315,0.045-3.758,0.078-3.826,0.08
	c-0.67,0.029-16.871,0.66-17.957-9.267c-0.374-3.419-0.47-7.696-0.44-11.753c0.005-0.675,0.013-1.343,0.023-2
	c0.048-2.818,0.146-5.429,0.238-7.449c0.077-1.674,0.15-2.937,0.189-3.573l-4.323,1.927v1.62v0.104c0,2.139-0.401,4.713-1.271,7.372
	c-0.218,0.663-0.464,1.332-0.74,2c-1.455,3.518-3.755,7.023-7.038,9.73l2.095,7.079l4.137,13.973h0.002
	c1.094,0,3.916,0.227,7.834,0.657v-3.351h6.146v4.09c7.91,1.022,18.004,2.58,27.506,4.594c14.379,3.055,27.383,7.151,29.389,12.006
	c2.712,6.561,3.151,26.407,3.212,30.247l6.603-8.642v-39.063C398.787,335.556,396.549,327.003,387.547,326.294z M321.154,279.104
	v0.075v1.252l0.078-0.035c3.168-1.412,6.879,0.012,8.293,3.18c1.412,3.168-0.012,6.88-3.182,8.292l-0.009,0.004l0.847,0.064
	c-0.003,0.048-0.101,1.559-0.207,3.884l60.857-1.089c0.509-2.076,2.368-3.622,4.602-3.622c2.627,0,4.754,2.128,4.754,4.753
	c0,0.146-0.03,0.285-0.043,0.428c-0.22,2.421-2.23,4.325-4.711,4.325c-2.436,0-4.419-1.839-4.696-4.2l-60.834,1.088
	c-0.067,1.703-0.13,3.684-0.165,5.772c-0.012,0.658-0.02,1.325-0.025,2c-0.029,4.016,0.062,8.229,0.424,11.542
	c0.906,8.278,16.084,7.676,16.234,7.67c0.062-0.001,1.126-0.025,2.87-0.061c-0.136-0.441-0.229-0.901-0.229-1.387
	c0-2.625,2.129-4.753,4.754-4.753s4.754,2.128,4.754,4.753c0,0.428-0.075,0.835-0.181,1.229c10.87-0.158,26.121-0.269,32.331,0.219
	c10.652,0.839,12.996,11.698,13.02,11.808l0.02,0.194v36.969l2.678-3.505c-0.061-0.715-0.094-1.442-0.094-2.182
	c0-5.056,1.472-9.587,3.799-12.731v-49.766v-2v-6.921v-26h-85.563C321.23,274.879,321.163,278.554,321.154,279.104z
	 M322.468,261.001c-0.348,2.386-0.604,4.938-0.794,7.354h87.418v28.014v6.908v2v47.591c1.684-1.441,3.629-2.277,5.709-2.277
	c0.23,0,0.456,0.031,0.684,0.052v-45.365v-2v-6.867v-35.409H322.468z M280.556,322.481l-0.021-0.951l-0.289,0.959L280.556,322.481z
	 M325.477,292.255l0.857-0.382l-0.829-0.063C325.502,291.862,325.492,292.02,325.477,292.255z M321.281,402.795
	c0.007-0.005,0.014-0.01,0.021-0.015c0.01-0.006,0.02-0.013,0.028-0.021C321.314,402.772,321.297,402.783,321.281,402.795z
	 M322.222,402.041c-0.109,0.097-0.229,0.183-0.342,0.275c-0.182,0.149-0.36,0.302-0.551,0.443
	C321.638,402.53,321.937,402.292,322.222,402.041z M321.281,402.795c-0.134,0.099-0.278,0.188-0.417,0.282
	c-0.187,0.128-0.368,0.26-0.563,0.38C320.638,403.248,320.965,403.026,321.281,402.795z M312.84,405.81
	c-0.399,0.03-0.803,0.045-1.21,0.047c-0.032,0.001-0.063,0.004-0.095,0.004C311.976,405.861,312.41,405.843,312.84,405.81z
	 M269.516,353.966h56.655v41.193v0.001c-0.354,2.256-1.441,4.321-3.055,6.022c-0.01,0.01-0.018,0.02-0.027,0.028
	c-0.258,0.271-0.531,0.534-0.82,0.787c-0.016,0.015-0.031,0.029-0.047,0.043c-0.285,0.251-0.584,0.489-0.893,0.719
	c-0.016,0.013-0.033,0.023-0.049,0.035c-0.316,0.231-0.643,0.453-0.98,0.662c-0.002,0.001-0.008,0.003-0.01,0.006
	c-0.682,0.419-1.408,0.788-2.172,1.105c-0.027,0.013-0.057,0.025-0.086,0.038c0.029-0.013,0.059-0.025,0.086-0.038
	c0.764-0.317,1.49-0.687,2.172-1.105c0.002-0.003,0.008-0.005,0.01-0.006c-0.002,0.001-0.008,0.004-0.01,0.007
	c-0.341,0.209-0.692,0.406-1.055,0.59c-0.362,0.185-0.734,0.356-1.115,0.515c-0.029,0.013-0.057,0.025-0.086,0.038
	c-0.097,0.04-0.199,0.07-0.297,0.108c-0.132,0.051-0.266,0.099-0.399,0.146c0.233-0.083,0.469-0.162,0.696-0.255
	c-0.228,0.093-0.463,0.172-0.696,0.255c-0.135,0.048-0.265,0.103-0.401,0.146c-0.012,0.004-0.024,0.008-0.036,0.013
	c-0.037,0.012-0.074,0.024-0.112,0.036c-0.363,0.116-0.734,0.219-1.111,0.311c0.377-0.092,0.748-0.194,1.111-0.311
	c0.038-0.012,0.075-0.024,0.112-0.036c-0.021,0.007-0.042,0.014-0.063,0.021c-0.016,0.005-0.031,0.011-0.047,0.016
	c-0.365,0.115-0.736,0.218-1.113,0.311c-0.061,0.014-0.119,0.027-0.18,0.042c-0.377,0.088-0.758,0.164-1.148,0.226
	c-0.059,0.01-0.115,0.017-0.174,0.026c-0.398,0.06-0.801,0.108-1.209,0.141c-0.043,0.004-0.086,0.005-0.127,0.009
	c-0.43,0.032-0.863,0.051-1.305,0.051h-27.381c-0.441,0-0.875-0.019-1.306-0.051c-0.042-0.004-0.083-0.006-0.125-0.009
	c-0.41-0.032-0.813-0.081-1.212-0.142c-0.057-0.009-0.115-0.016-0.173-0.025c-0.389-0.063-0.772-0.139-1.15-0.227
	c-0.061-0.014-0.12-0.028-0.18-0.042c-0.376-0.092-0.748-0.195-1.112-0.311c-0.051-0.017-0.102-0.033-0.153-0.05
	c-0.371-0.123-0.736-0.255-1.091-0.401c0.355,0.146,0.721,0.278,1.091,0.4c-0.371-0.122-0.736-0.255-1.091-0.4
	c-0.03-0.013-0.062-0.025-0.092-0.038c-0.762-0.318-1.489-0.688-2.168-1.107c-0.004-0.002-0.007-0.004-0.01-0.006
	c0.003,0.001,0.007,0.004,0.01,0.005c0.68,0.42,1.406,0.789,2.168,1.107c-0.762-0.318-1.488-0.688-2.168-1.107
	c-0.003-0.001-0.007-0.004-0.01-0.005c-0.338-0.208-0.665-0.429-0.979-0.661c-0.015-0.013-0.033-0.024-0.049-0.036
	c-0.308-0.229-0.604-0.469-0.89-0.719c-0.017-0.015-0.035-0.029-0.052-0.045c-0.286-0.253-0.558-0.515-0.816-0.785
	c-0.011-0.011-0.021-0.022-0.031-0.034c0.01,0.011,0.02,0.021,0.031,0.033c0.258,0.271,0.531,0.533,0.816,0.785
	c-0.285-0.252-0.558-0.515-0.816-0.785c-0.011-0.012-0.021-0.022-0.031-0.033c-1.613-1.702-2.698-3.77-3.049-6.028h0.001V353.966z
	 M278.744,405.005c0.051,0.017,0.102,0.033,0.153,0.05C278.846,405.038,278.796,405.021,278.744,405.005z M281.339,405.635
	c-0.389-0.063-0.772-0.138-1.15-0.227c-0.061-0.014-0.12-0.028-0.18-0.042c-0.376-0.092-0.748-0.195-1.111-0.311
	c0.363,0.115,0.735,0.219,1.111,0.311c0.06,0.014,0.119,0.028,0.18,0.042C280.567,405.497,280.95,405.572,281.339,405.635z
	 M310.91,389.547c0,2.534,2.055,4.59,4.588,4.59c2.535,0,4.59-2.056,4.59-4.59c0-2.535-2.055-4.59-4.59-4.59
	C312.965,384.957,310.91,387.011,310.91,389.547z M278.744,389.547c0,2.534,2.055,4.59,4.589,4.59s4.589-2.056,4.589-4.59
	c0-2.535-2.055-4.59-4.589-4.59S278.744,387.011,278.744,389.547z M277.561,404.566c0.031,0.013,0.061,0.025,0.092,0.038
	C277.622,404.592,277.593,404.579,277.561,404.566z M274.353,402.755c0.017,0.012,0.034,0.023,0.05,0.036
	c0.315,0.231,0.641,0.453,0.979,0.662c-0.338-0.209-0.664-0.431-0.979-0.662C274.387,402.778,274.369,402.766,274.353,402.755z
	 M322.269,401.999c-0.007,0.006-0.014,0.013-0.021,0.019c-0.009,0.008-0.018,0.016-0.026,0.023
	C322.238,402.027,322.254,402.012,322.269,401.999c0.289-0.254,0.563-0.517,0.82-0.788
	C322.83,401.482,322.558,401.746,322.269,401.999z M323.117,401.182c1.413-1.487,2.422-3.255,2.889-5.186
	C325.539,397.927,324.53,399.694,323.117,401.182z M326.006,395.997c-0.467,1.931-1.476,3.698-2.889,5.186
	c-0.01,0.01-0.018,0.02-0.027,0.028c-0.26,0.271-0.531,0.535-0.82,0.788c-0.007,0.006-0.014,0.013-0.021,0.019
	c0.008-0.007,0.016-0.013,0.022-0.02c0.287-0.253,0.561-0.516,0.82-0.787c0.01-0.01,0.018-0.019,0.027-0.028
	c1.613-1.701,2.701-3.767,3.055-6.022c0-0.001,0-0.001,0-0.001v-0.015c-0.001,0.005-0.001,0.011-0.002,0.016
	C326.128,395.442,326.072,395.721,326.006,395.997z M316.937,405.007c-0.012,0.004-0.024,0.008-0.036,0.013
	c0.013-0.005,0.025-0.009,0.038-0.013c0.136-0.045,0.266-0.099,0.399-0.146C317.204,404.908,317.074,404.963,316.937,405.007z
	 M316.838,405.041c0.034-0.012,0.068-0.022,0.102-0.034c-0.013,0.004-0.025,0.008-0.038,0.013
	C316.88,405.026,316.859,405.033,316.838,405.041z M316.939,405.007c0.271-0.089,0.535-0.19,0.799-0.292
	c-0.132,0.051-0.266,0.099-0.399,0.146C317.205,404.908,317.075,404.962,316.939,405.007z M311.537,405.861
	c0.031,0,0.062-0.003,0.093-0.004c-0.032,0.001-0.063,0.004-0.095,0.004H311.537z M321.302,402.78c0.01-0.006,0.02-0.013,0.03-0.021
	c0.189-0.142,0.367-0.294,0.549-0.443c-0.182,0.149-0.36,0.302-0.551,0.443C321.321,402.767,321.311,402.774,321.302,402.78z
	 M320.291,403.464c-0.341,0.209-0.692,0.406-1.055,0.59c0.363-0.184,0.716-0.381,1.057-0.591c0.002-0.003,0.006-0.005,0.01-0.006
	c0.194-0.12,0.376-0.253,0.562-0.38c-0.187,0.128-0.368,0.26-0.563,0.38C320.299,403.458,320.293,403.461,320.291,403.464z
	 M269.387,464.782l56.691-0.778l0.221-26.068h-56.912V464.782z M269.408,434.031h56.871c-0.307-4.955-4.128-9.125-9.423-10.831
	h-38.024C273.538,424.906,269.714,429.076,269.408,434.031z M284.151,422.368c-1.877,0-3.667,0.3-5.319,0.832h38.024
	c-1.652-0.532-3.443-0.832-5.321-0.832H284.151z M392.433,384.956c0,0-0.002-0.235-0.009-0.653l-0.5,0.653H392.433z
	 M197.093,380.143l1.682-0.017c0-0.037-0.004-0.462-0.01-1.176l-1.702-2.228C197.081,378.805,197.093,380.077,197.093,380.143z"></path>
<path id="color_x5F_3" fill="#E84393" d="M326.172,336.717v17.249h-56.655h-0.001v-17.327c3.186-0.378,5.457-0.579,6.362-0.579
	h0.276h42.183h0.002C319.431,336.059,322.254,336.286,326.172,336.717z M359.824,342.05c-9.502-2.014-19.596-3.571-27.506-4.594
	v26.743c6.668,4.05,11.09,11.15,11.09,19.242l-0.604,31.841l-0.038,2l-0.112,5.918l-1.27,67.043l-0.02,1.011h5.506
	c0,0,2.07-29.116,4.043-57.056c0.263-3.711,0.523-7.399,0.776-10.998c0.142-2.004,0.281-3.982,0.417-5.918
	c0.048-0.672,0.095-1.338,0.141-2c1.022-14.527,1.854-26.439,2.105-30.295c0-0.002,0-0.005,0-0.007L369,384.969l22.925-0.013
	l0.5-0.653c-0.061-3.84-0.5-23.687-3.212-30.247C387.207,349.201,374.203,345.104,359.824,342.05z M245.934,340.257
	c-1.996,0.365-4.01,0.761-6.022,1.171c-0.173,0.035-0.345,0.073-0.518,0.108c-1.203,0.247-2.408,0.493-3.6,0.756
	c-14.373,3.139-27.498,7.234-29.368,11.762c-3.007,7.276-2.326,30.901-2.326,30.901l22.006,0.013l1.264,0.001l13.816,0.011h0
	c0,0.006,0.001,0.015,0.001,0.021c0.205,3.869,0.508,15.771,0.829,30.282c0.015,0.662,0.029,1.328,0.044,2
	c0.042,1.936,0.085,3.914,0.127,5.918c0.134,6.307,0.268,12.893,0.397,19.381c0.499,25.086,0.916,48.672,0.916,48.672h5.504h0.001
	l1.289-68.053l0.112-5.918l0.038-2l0.603-31.841c0-5.606,2.119-10.733,5.635-14.698c1.063-1.199,2.264-2.277,3.562-3.244
	c0.985-0.735,2.021-1.412,3.121-1.995c0,0,0.001-0.001,0.001-0.001v-26.067c0,0-0.001,0-0.001,0
	C258.315,338.137,252.228,339.093,245.934,340.257z M324.005,400.128c0.045-0.06,0.094-0.118,0.138-0.18
	C324.098,400.01,324.051,400.068,324.005,400.128z M324.84,398.873c-0.212,0.369-0.443,0.729-0.697,1.075
	C324.396,399.601,324.628,399.242,324.84,398.873z M324.005,400.128c-0.276,0.363-0.568,0.719-0.888,1.055
	C323.436,400.846,323.728,400.492,324.005,400.128z M326.006,395.997c0.066-0.275,0.122-0.555,0.166-0.837
	c-0.045,0.289-0.104,0.574-0.172,0.856C326.001,396.01,326.004,396.004,326.006,395.997z M324.974,398.633
	c-0.044,0.08-0.089,0.161-0.135,0.24C324.885,398.794,324.93,398.714,324.974,398.633z M324.974,398.633
	c0.203-0.373,0.388-0.754,0.546-1.146C325.362,397.879,325.177,398.26,324.974,398.633z M325.599,397.275
	c0.157-0.411,0.296-0.83,0.4-1.259C325.895,396.445,325.757,396.864,325.599,397.275z M325.52,397.487
	c0.028-0.07,0.053-0.142,0.079-0.212C325.573,397.345,325.549,397.417,325.52,397.487z M326.174,353.966h-0.002v41.193v0.001
	c0.001-0.005,0.001-0.011,0.002-0.016c0.082-0.523,0.129-1.054,0.129-1.594v-31.973v-7.472c0-0.047-0.006-0.094-0.006-0.141H326.174
	z M277.56,404.565c-0.762-0.318-1.488-0.688-2.168-1.107C276.072,403.878,276.798,404.247,277.56,404.565z M269.393,353.966
	c-0.001,0.047-0.005,0.094-0.005,0.141v7.156v32.288c0,0.54,0.046,1.072,0.127,1.594v-41.179h0H269.393z M269.515,395.144
	c0.351,2.26,1.435,4.326,3.049,6.028C270.951,399.47,269.865,397.404,269.515,395.144z M484.327,159.914
	c0,6.105-3.372,18.502-8.692,28.414h-0.209l-3.942,18.313v17.475h-24v-18.509l-3.72-17.279h-0.432
	c-5.32-9.912-8.692-22.309-8.692-28.414c0-11.089,11.123-20.079,24.844-20.079S484.327,148.825,484.327,159.914z M473.38,188.328
	h-27.57l3.592,16.686h20.387L473.38,188.328z M300.092,159.676c1.104,0,2-0.896,2-2v-12.813c0-1.104-0.896-2-2-2s-2,0.896-2,2
	v12.813C298.092,158.781,298.987,159.676,300.092,159.676z M300.092,206.121c1.104,0,2-0.896,2-2v-12.813c0-1.104-0.896-2-2-2
	s-2,0.896-2,2v12.813C298.092,205.226,298.987,206.121,300.092,206.121z M283.275,176.492c1.104,0,2-0.896,2-2s-0.896-2-2-2h-12.813
	c-1.104,0-2,0.896-2,2s0.896,2,2,2H283.275z M329.72,172.492h-12.813c-1.104,0-2,0.896-2,2s0.896,2,2,2h12.813c1.104,0,2-0.896,2-2
	S330.825,172.492,329.72,172.492z M286.787,164.016c0.391,0.391,0.902,0.586,1.414,0.586s1.023-0.195,1.414-0.586
	c0.781-0.781,0.781-2.047,0-2.828l-9.061-9.061c-0.781-0.781-2.047-0.781-2.828,0s-0.781,2.047,0,2.828L286.787,164.016z
	 M319.629,196.858c0.391,0.391,0.902,0.586,1.414,0.586s1.023-0.195,1.414-0.586c0.781-0.781,0.781-2.047,0-2.828l-9.061-9.061
	c-0.781-0.781-2.047-0.781-2.828,0s-0.781,2.047,0,2.828L319.629,196.858z M286.787,184.969l-9.061,9.061
	c-0.781,0.781-0.781,2.047,0,2.828c0.391,0.391,0.902,0.586,1.414,0.586s1.023-0.195,1.414-0.586l9.061-9.061
	c0.781-0.781,0.781-2.047,0-2.828S287.568,184.188,286.787,184.969z M311.982,164.602c0.512,0,1.023-0.195,1.414-0.586l9.061-9.061
	c0.781-0.781,0.781-2.047,0-2.828s-2.047-0.781-2.828,0l-9.061,9.061c-0.781,0.781-0.781,2.047,0,2.828
	C310.959,164.406,311.47,164.602,311.982,164.602z"></path>
<path id="color_x5F_2" fill="#FBC02D" d="M73.092,303.277h106.702v2H73.092V303.277z M415.484,303.277v2h111.607v-2H415.484z
	 M399.027,375.661l1.682-2.2v-36.969l-0.02-0.194c-0.023-0.109-2.367-10.969-13.02-11.808c-6.21-0.487-21.461-0.377-32.331-0.219
	c-0.184,0.682-0.513,1.297-0.955,1.821c10.878-0.166,26.815-0.299,33.163,0.201c9.002,0.709,11.24,9.263,11.48,10.304V375.661z
	 M343.371,324.489c-0.15,0.006-15.328,0.608-16.234-7.67c-0.362-3.313-0.453-7.526-0.424-11.542c0.006-0.675,0.014-1.342,0.025-2
	c0.035-2.089,0.098-4.069,0.165-5.772l60.834-1.088c-0.007-0.062-0.014-0.124-0.019-0.186c-0.01-0.124-0.037-0.241-0.037-0.367
	c0-0.392,0.061-0.767,0.15-1.131l-60.857,1.089c0.106-2.326,0.204-3.836,0.207-3.884l-0.847-0.064l-0.857,0.382
	c-0.039,0.637-0.112,1.899-0.189,3.573c-0.093,2.021-0.19,4.631-0.238,7.449c-0.011,0.657-0.019,1.325-0.023,2
	c-0.029,4.057,0.066,8.334,0.44,11.753c1.086,9.927,17.287,9.296,17.957,9.267c0.068-0.002,1.511-0.035,3.826-0.08
	c-0.46-0.509-0.803-1.116-1.009-1.788C344.497,324.464,343.432,324.488,343.371,324.489z M280.246,322.489l0.289-0.959l-0.018-0.848
	l-37.779,0.923c0.146,0.456,0.245,0.933,0.245,1.437c0,0.122-0.027,0.237-0.036,0.357L280.246,322.489z M213.912,322.309
	c-0.7,0.038-17.148,1.073-17.148,11.785c0,8.055,0.217,33.388,0.298,42.629l1.702,2.228c-0.056-6.262-0.318-36.005-0.318-44.856
	c0-9.011,15.397-9.98,15.528-9.988l19.562-0.478c-0.024-0.194-0.059-0.386-0.059-0.587c0-0.423,0.073-0.824,0.176-1.215
	L213.912,322.309z M238.23,341.536h1.164c0.173-0.035,0.345-0.073,0.518-0.108v-13.953c-0.524,0.199-1.087,0.321-1.682,0.321
	V341.536z M407.092,415.282h-9.014l-0.785,2h11.799v-30.03l-2,5.091V415.282z M188.187,415.282v-22.94l-2-5.091v30.031h11.799
	l-0.786-2H188.187z M343.406,383.441l-0.603,31.841h0.001l-0.038,2h-0.001l-0.112,5.918l-1.269,67.043l-0.02,1.011v0.001h-92.359
	v-0.002h0.001l1.289-68.053l0.112-5.918l0.038-2l0.603-31.841c0-5.606,2.119-10.733,5.635-14.698
	c1.063-1.199,2.264-2.277,3.562-3.244c0.985-0.734,2.021-1.411,3.121-1.994v-0.001c0,0,0.001-0.001,0.001-0.001v-26.067
	c0,0-0.001,0-0.001,0v-4.069h6.148v3.272v17.327h-0.122h-0.001c0,0.047-0.004,0.094-0.004,0.142v7.157v32.287
	c0,0.54,0.046,1.071,0.127,1.593c0.35,2.261,1.434,4.326,3.047,6.029c0.011,0.011,0.021,0.022,0.032,0.034
	c0.259,0.271,0.531,0.532,0.816,0.785c0.017,0.015,0.035,0.03,0.052,0.045c0.285,0.249,0.581,0.489,0.89,0.719
	c0.016,0.012,0.033,0.023,0.05,0.035c0.315,0.232,0.641,0.453,0.979,0.661c0.004,0.003,0.007,0.005,0.009,0.006
	c0.681,0.419,1.406,0.789,2.17,1.107c0.03,0.013,0.061,0.026,0.092,0.039c0.355,0.146,0.72,0.278,1.091,0.4
	c0.05,0.017,0.102,0.034,0.153,0.05c0.363,0.116,0.734,0.219,1.111,0.312c0.06,0.014,0.12,0.027,0.18,0.042
	c0.377,0.088,0.762,0.164,1.151,0.227c0.058,0.01,0.115,0.016,0.173,0.025c0.398,0.06,0.803,0.108,1.211,0.142
	c0.042,0.003,0.084,0.005,0.125,0.008c0.432,0.032,0.867,0.051,1.307,0.051h0.001h0h27.381h0.002c0.031,0,0.062-0.003,0.093-0.004
	c0.408-0.002,0.81-0.017,1.21-0.046c0.041-0.004,0.084-0.005,0.125-0.009c0.408-0.032,0.813-0.08,1.211-0.141
	c0.059-0.01,0.115-0.017,0.174-0.026c0.389-0.063,0.771-0.139,1.148-0.227c0.059-0.014,0.119-0.027,0.18-0.041
	c0.377-0.093,0.748-0.195,1.111-0.311c0.017-0.006,0.032-0.011,0.049-0.017c0.034-0.012,0.068-0.022,0.102-0.034
	c0.271-0.089,0.535-0.19,0.799-0.292c0.098-0.037,0.199-0.068,0.295-0.107c0.029-0.013,0.059-0.024,0.086-0.038
	c0.382-0.159,0.755-0.331,1.117-0.516c0.363-0.184,0.716-0.381,1.057-0.591c0.002-0.003,0.006-0.005,0.01-0.006
	c0.194-0.12,0.376-0.253,0.562-0.38c0.139-0.095,0.282-0.183,0.417-0.281c0.007-0.005,0.014-0.01,0.021-0.016
	c0.01-0.006,0.02-0.013,0.03-0.021c0.189-0.142,0.367-0.294,0.549-0.443c0.113-0.093,0.232-0.179,0.342-0.274
	c0.009-0.008,0.018-0.017,0.026-0.024c0.008-0.007,0.016-0.013,0.022-0.02c0.287-0.253,0.561-0.516,0.82-0.787
	c0.01-0.01,0.018-0.019,0.027-0.028c1.613-1.701,2.701-3.767,3.055-6.022c0-0.001,0-0.001,0-0.001v-0.015
	c0.082-0.523,0.129-1.054,0.129-1.594v-31.973v-7.472c0-0.047-0.006-0.094-0.006-0.141h-0.123h-0.002v-17.249v-3.351h6.146v4.09
	v26.743C338.984,368.248,343.408,375.349,343.406,383.441z M326.299,437.935h-56.912v26.847l56.691-0.778L326.299,437.935z
	 M316.856,423.2c-1.652-0.532-3.443-0.832-5.321-0.832h-27.384c-1.877,0-3.667,0.3-5.319,0.832
	c-5.294,1.706-9.118,5.876-9.424,10.831h56.871C325.972,429.076,322.151,424.906,316.856,423.2z M322.468,261.001
	c0.459-3.151,1.077-6.003,1.906-7.866c0.124-0.28,0.252-0.545,0.386-0.777c5.311-9.198-6.641-20.708-14.158-13.035
	c-2.896,2.957-11.354,5.225-16.206,6.327c-1.209,0.163-2.388,0.409-3.531,0.736l0,0c-7.439,2.136-13.295,7.641-15.581,14.614
	c-0.672,2.051-1.05,4.223-1.05,6.481v0.874h-88.046v34.922v2v47.591c0.72,0.616,1.388,1.349,2,2.175v-49.766v-2v-32.922h86.046
	v1.855h-0.001l-0.047,8.652l-0.074,13.717l-0.007,1.326c0,2.228,0.355,4.444,1.01,6.58c-2.311,0.013-19.11,0.097-35.202,0.108
	v-10.711c-0.524,0.199-1.087,0.321-1.682,0.321v10.391c-11.861,0.006-23.039-0.032-27.362-0.17
	c-2.306-0.073-3.971-0.844-5.089-2.356c-1.569-2.122-1.745-5.298-1.551-7.877c-0.044,0.001-0.085,0.013-0.129,0.013
	c-0.543,0-1.057-0.11-1.543-0.278c-0.229,2.889-0.032,6.567,1.869,9.14c0.713,0.966,1.609,1.704,2.678,2.212
	c1.066,0.507,2.306,0.784,3.711,0.829c4.087,0.131,14.266,0.171,25.366,0.171c0.68,0,1.364,0,2.049-0.001v1.001v13.012
	c0.595,0,1.158,0.122,1.682,0.321v-13.333v-1.001c17.184-0.014,35.173-0.109,35.484-0.11l-0.004-0.841
	c0.229,0.66,0.487,1.312,0.773,1.952c1.507,3.381,3.773,6.456,6.587,8.908c4.054,3.534,9.233,5.776,14.877,5.776
	c6.138,0,10.893-2.001,14.475-4.954c3.283-2.707,5.583-6.213,7.038-9.73c0.276-0.668,0.522-1.337,0.74-2
	c0.87-2.659,1.271-5.233,1.271-7.372v-0.104v-1.62v-13.75v-1.252v-0.075c0.009-0.55,0.076-4.225,0.375-8.749h85.563v26v6.921v2
	v49.766c0.611-0.826,1.279-1.559,2-2.175v-47.591v-2v-6.908v-28.014h-87.418C321.863,265.938,322.12,263.386,322.468,261.001z
	 M278.744,389.547c0,2.534,2.055,4.59,4.589,4.59s4.589-2.056,4.589-4.59c0-2.535-2.055-4.59-4.589-4.59
	S278.744,387.011,278.744,389.547z M315.498,394.136c2.535,0,4.59-2.056,4.59-4.59c0-2.535-2.055-4.59-4.59-4.59
	c-2.533,0-4.588,2.055-4.588,4.59C310.91,392.081,312.965,394.136,315.498,394.136z M182.342,191.703
	c-0.581,0.088-1.162,0.168-1.741,0.267c-0.112,0.184-0.231,0.363-0.342,0.548c-0.15-0.261-0.272-0.543-0.408-0.815h-0.124
	c0.057,0.298,0.131,0.596,0.17,0.893c-0.785-0.312-1.578-0.601-2.369-0.893h-0.531c0,0-16.503,10.614-27.341,42.32
	c-17.522,51.265-12.321,65.852-12.321,65.852h17.876c-1.548-18.929-1.365-33.398,4.946-68.814
	c3.736-20.965,15.853-33.092,21.091-37.472c-0.402-0.303-0.796-0.615-1.203-0.912c0.892-0.411,1.849-0.722,2.838-0.975H182.342z
	 M85.839,158.764c5.046,5.421,17.593,21.383,21.408,49.414c6.312,46.378,6.495,66.91,4.946,91.698h17.876
	c0,0,5.201-20.687-12.321-87.82c-10.837-41.521-27.341-55.419-27.341-55.419h-0.531c-0.791,0.292-1.583,0.581-2.369,0.893
	c0.039-0.297,0.113-0.595,0.17-0.893h-0.124c-0.136,0.271-0.258,0.554-0.408,0.815c-0.111-0.185-0.23-0.364-0.342-0.548
	c-0.579-0.099-1.16-0.178-1.741-0.267H84.52c0.989,0.253,1.946,0.564,2.838,0.975C86.844,157.988,86.344,158.38,85.839,158.764z"></path>
<path id="color_x5F_1" fill="#0984E3" d="M415.484,296.41v-35.409h-93.017c0.459-3.151,1.077-6.003,1.906-7.866
	c12.634-14.43,28.955-26.958,47.515-26.876c31.703,0.14,68.135,40,68.135,40s14.46-22.23,42-19.941
	c35.876,2.982,42,50.793,42,50.793L415.484,296.41z M204.099,282.698c-2.625,0-4.753,2.128-4.753,4.753
	c0,2.082,1.347,3.832,3.21,4.475c0.486,0.168,1,0.278,1.543,0.278c0.044,0,0.085-0.012,0.129-0.013
	c2.564-0.07,4.624-2.159,4.624-4.74C208.852,284.825,206.724,282.698,204.099,282.698z M238.23,282.698
	c-2.625,0-4.753,2.128-4.753,4.753c0,2.625,2.128,4.753,4.753,4.753c0.595,0,1.158-0.122,1.682-0.321
	c1.792-0.681,3.071-2.401,3.071-4.432C242.984,284.825,240.855,282.698,238.23,282.698z M239.912,318.61
	c-0.524-0.199-1.087-0.321-1.682-0.321c-2.203,0-4.037,1.506-4.577,3.538c-0.104,0.391-0.176,0.792-0.176,1.215
	c0,0.201,0.035,0.393,0.059,0.587c0.292,2.345,2.27,4.167,4.694,4.167c0.595,0,1.158-0.122,1.682-0.321
	c1.684-0.641,2.894-2.203,3.035-4.075c0.009-0.12,0.036-0.235,0.036-0.357c0-0.504-0.1-0.98-0.245-1.437
	C242.298,320.224,241.26,319.122,239.912,318.61z M350.765,318.289c-2.625,0-4.754,2.128-4.754,4.753
	c0,0.485,0.094,0.945,0.229,1.387c0.206,0.672,0.549,1.279,1.009,1.788c0.87,0.963,2.116,1.579,3.516,1.579
	c1.457,0,2.746-0.67,3.618-1.703c0.442-0.524,0.771-1.14,0.955-1.821c0.105-0.395,0.181-0.802,0.181-1.229
	C355.519,320.417,353.39,318.289,350.765,318.289z M392.433,291.111c-2.233,0-4.093,1.546-4.602,3.622
	c-0.09,0.364-0.15,0.739-0.15,1.131c0,0.126,0.027,0.244,0.037,0.367c0.005,0.063,0.012,0.124,0.019,0.186
	c0.277,2.361,2.261,4.2,4.696,4.2c2.48,0,4.491-1.904,4.711-4.325c0.013-0.144,0.043-0.282,0.043-0.428
	C397.187,293.239,395.06,291.111,392.433,291.111z M186.739,191.126c17.203-1.87,34.637,0.625,50.666,7.322
	c-1.093-9.666-11.51-19.886-26.382-21.527c-10.41-1.214-19.62,2.17-25.321,7.456c9.565-12.968,22.067-23.549,36.551-30.819
	c-8.044-5.47-22.584-4.229-33.521,5.981c-2.671,2.463-4.822,5.18-6.491,8c-1.248-3.267-3.055-6.509-5.504-9.552
	c-9.31-11.713-23.508-15.086-32.271-10.863c14.206,10,25.602,23.426,33.182,38.981c-4.043-7.245-12.973-13.502-24.503-14.571
	c-14.89-1.475-27.198,6.367-30.268,15.598c18.311-3.468,37.2-1.871,54.653,4.572c0.791,0.292,1.583,0.581,2.369,0.893
	c-0.039-0.297-0.113-0.595-0.17-0.893c-0.025-0.133-0.047-0.265-0.076-0.398c0.063,0.135,0.133,0.265,0.199,0.398
	c0.136,0.271,0.258,0.554,0.408,0.815c0.111-0.185,0.23-0.364,0.342-0.548c0.579-0.099,1.16-0.178,1.741-0.267
	c0.466-0.071,0.932-0.15,1.399-0.214c-0.292,0.06-0.572,0.141-0.857,0.214c-0.989,0.253-1.946,0.564-2.838,0.975
	c0.407,0.297,0.801,0.609,1.203,0.912c15.143,11.405,26.851,26.776,33.793,44.438c6.177-7.515,6.259-22.108-2.92-33.925
	C205.076,194.913,195.023,190.689,186.739,191.126z M144.529,152.065c-3.07-9.23-15.378-17.072-30.268-15.598
	c-11.531,1.068-20.46,7.326-24.503,14.571c7.58-15.556,18.977-28.981,33.182-38.981c-8.763-4.223-22.961-0.85-32.271,10.863
	c-2.449,3.042-4.257,6.285-5.504,9.552c-1.669-2.82-3.82-5.537-6.491-8c-10.937-10.211-25.477-11.452-33.521-5.981
	c14.483,7.27,26.986,17.852,36.551,30.819c-5.702-5.286-14.911-8.67-25.321-7.456C41.51,143.495,31.093,153.715,30,163.381
	c16.029-6.697,33.463-9.191,50.666-7.322c-8.285-0.437-18.338,3.788-25.384,12.978c-9.179,11.817-9.097,26.41-2.92,33.925
	c6.894-17.539,18.487-32.818,33.477-44.198c0.506-0.384,1.005-0.776,1.52-1.152c-0.892-0.411-1.849-0.722-2.838-0.975
	c-0.285-0.073-0.565-0.154-0.857-0.214c0.467,0.064,0.933,0.143,1.399,0.214c0.581,0.088,1.162,0.168,1.741,0.267
	c0.112,0.184,0.231,0.363,0.342,0.548c0.15-0.261,0.272-0.543,0.408-0.815c0.066-0.133,0.136-0.263,0.199-0.398
	c-0.028,0.133-0.051,0.265-0.076,0.398c-0.057,0.298-0.131,0.596-0.17,0.893c0.785-0.312,1.578-0.601,2.369-0.893
	C107.329,150.194,126.218,148.597,144.529,152.065z M471.483,380.681c-1.104,0-2,0.896-2,2v12.813c0,1.104,0.896,2,2,2s2-0.896,2-2
	v-12.813C473.483,381.577,472.588,380.681,471.483,380.681z M471.483,427.126c-1.104,0-2,0.896-2,2v12.813c0,1.104,0.896,2,2,2
	s2-0.896,2-2v-12.813C473.483,428.021,472.588,427.126,471.483,427.126z M456.667,412.31c0-1.104-0.896-2-2-2h-12.813
	c-1.104,0-2,0.896-2,2s0.896,2,2,2h12.813C455.771,414.31,456.667,413.415,456.667,412.31z M501.112,410.31H488.3
	c-1.104,0-2,0.896-2,2s0.896,2,2,2h12.813c1.104,0,2-0.896,2-2S502.217,410.31,501.112,410.31z M451.946,389.945
	c-0.781-0.781-2.047-0.781-2.828,0s-0.781,2.047,0,2.828l9.061,9.061c0.391,0.391,0.902,0.586,1.414,0.586s1.023-0.195,1.414-0.586
	c0.781-0.781,0.781-2.047,0-2.828L451.946,389.945z M484.788,422.787c-0.781-0.781-2.047-0.781-2.828,0s-0.781,2.047,0,2.828
	l9.061,9.061c0.391,0.391,0.902,0.586,1.414,0.586s1.023-0.195,1.414-0.586c0.781-0.781,0.781-2.047,0-2.828L484.788,422.787z
	 M458.178,422.787l-9.061,9.061c-0.781,0.781-0.781,2.047,0,2.828c0.391,0.391,0.902,0.586,1.414,0.586s1.023-0.195,1.414-0.586
	l9.061-9.061c0.781-0.781,0.781-2.047,0-2.828S458.96,422.006,458.178,422.787z M491.02,389.945l-9.061,9.061
	c-0.781,0.781-0.781,2.047,0,2.828c0.391,0.391,0.902,0.586,1.414,0.586s1.023-0.195,1.414-0.586l9.061-9.061
	c0.781-0.781,0.781-2.047,0-2.828S491.802,389.164,491.02,389.945z M122.94,380.681c-1.104,0-2,0.896-2,2v12.813
	c0,1.104,0.896,2,2,2s2-0.896,2-2v-12.813C124.94,381.577,124.044,380.681,122.94,380.681z M122.94,427.126c-1.104,0-2,0.896-2,2
	v12.813c0,1.104,0.896,2,2,2s2-0.896,2-2v-12.813C124.94,428.021,124.044,427.126,122.94,427.126z M108.123,412.31
	c0-1.104-0.896-2-2-2H93.311c-1.104,0-2,0.896-2,2s0.896,2,2,2h12.813C107.228,414.31,108.123,413.415,108.123,412.31z
	 M152.569,410.31h-12.813c-1.104,0-2,0.896-2,2s0.896,2,2,2h12.813c1.104,0,2-0.896,2-2S153.673,410.31,152.569,410.31z
	 M103.403,389.945c-0.781-0.781-2.047-0.781-2.828,0s-0.781,2.047,0,2.828l9.061,9.061c0.391,0.391,0.902,0.586,1.414,0.586
	s1.023-0.195,1.414-0.586c0.781-0.781,0.781-2.047,0-2.828L103.403,389.945z M136.244,422.787c-0.781-0.781-2.047-0.781-2.828,0
	s-0.781,2.047,0,2.828l9.061,9.061c0.391,0.391,0.902,0.586,1.414,0.586s1.023-0.195,1.414-0.586c0.781-0.781,0.781-2.047,0-2.828
	L136.244,422.787z M109.635,422.787l-9.061,9.061c-0.781,0.781-0.781,2.047,0,2.828c0.391,0.391,0.902,0.586,1.414,0.586
	s1.023-0.195,1.414-0.586l9.061-9.061c0.781-0.781,0.781-2.047,0-2.828S110.416,422.006,109.635,422.787z M134.83,402.42
	c0.512,0,1.023-0.195,1.414-0.586l9.061-9.061c0.781-0.781,0.781-2.047,0-2.828s-2.047-0.781-2.828,0l-9.061,9.061
	c-0.781,0.781-0.781,2.047,0,2.828C133.807,402.224,134.319,402.42,134.83,402.42z"></path>
</svg>