<?xml version="1.0" standalone="no"?>
<svg version="1.1" id="Layer_1_99_" xmlns="http://www.w3.org/2000/svg" xmlns:xlink="http://www.w3.org/1999/xlink" x="0px" y="0px" viewBox="0 0 595.276 595.276" enable-background="new 0 0 595.276 595.276" xml:space="preserve">
<path id="color_x5F_7" fill-rule="evenodd" clip-rule="evenodd" fill="#E96257" d="M203.707,352.469h15.356
	c3.968,0,7.179,3.211,7.179,7.178v9.089c-4.178,3.015-9.306,4.796-14.855,4.796c-5.55,0-10.679-1.782-14.857-4.798v-9.087
	C196.531,355.711,199.689,352.52,203.707,352.469L203.707,352.469z M211.388,328.902c5.175,0,9.36,4.185,9.36,9.36
	s-4.185,9.36-9.36,9.36c-5.176,0-9.36-4.185-9.36-9.36S206.212,328.902,211.388,328.902z M401.526,153.149
	c3.9,0,7.051,3.153,7.051,7.054c0,3.9-3.151,7.051-7.051,7.051c-3.901,0-7.054-3.151-7.054-7.051
	C394.471,156.302,397.624,153.149,401.526,153.149z"></path>
<path id="color_x5F_6" fill-rule="evenodd" clip-rule="evenodd" fill="#1ACEBD" d="M97.957,369.672H62.013
	c-2.908-3.405-5.489-6.991-7.812-10.778h32.979C87.179,358.895,97.957,369.672,97.957,369.672z M532.54,369.672h-35.945
	l10.778-10.778h32.978C538.059,362.638,535.466,366.247,532.54,369.672z M495.183,369.672h-7.67
	c8.724-10.425,15.377-22.863,19.125-36.847c0.011-0.041,0.02-0.082,0.031-0.123l0,0v25.484L495.183,369.672L495.183,369.672z
	 M107.038,369.672h-7.669l-11.486-11.486v-25.484c0.011,0.041,0.021,0.082,0.032,0.123
	C91.66,346.809,98.313,359.247,107.038,369.672L107.038,369.672z M125.98,369.672h-17.643c-7.129-8.369-12.891-18.079-16.878-28.957
	l34.521,19.931V369.672L125.98,369.672z M486.214,369.672h-17.639v-9.026l34.518-19.931
	C499.135,351.544,493.362,361.282,486.214,369.672L486.214,369.672z M508.905,310.214c-0.183,7.398-1.233,14.891-3.233,22.354
	c-0.61,2.276-1.306,4.507-2.067,6.699l-35.029,20.225v-0.149l8.193-30.576L508.905,310.214L508.905,310.214z M85.648,310.212
	l32.137,18.555l8.195,30.584v0.141l-35.031-20.225c-0.762-2.192-1.458-4.423-2.068-6.699
	C86.889,325.138,85.84,317.677,85.648,310.212z M86.18,357.896H53.595c-3.744-6.309-6.601-12.996-8.599-19.982h21.2
	C66.196,337.914,86.18,357.896,86.18,357.896z M540.955,357.896h-32.583l19.984-19.982h21.199
	C547.582,344.84,544.717,351.558,540.955,357.896z M66.904,315.996c6.603,1.877,13.023,4.563,19.1,8.072
	c0.258,1.503,0.549,3.007,0.881,4.51v28.609l-19.981-19.98L66.904,315.996z M527.649,337.209l-19.982,19.979v-28.609
	c0.332-1.504,0.624-3.007,0.882-4.51c6.078-3.51,12.497-6.196,19.1-8.072V337.209z M125.98,315.984v39.507l-7.229-26.981
	L125.98,315.984L125.98,315.984z M468.575,315.988l7.227,12.522l-7.227,26.973V315.988z M549.831,336.915h-20.477l23.465-23.465
	C552.914,321.345,551.915,329.246,549.831,336.915z M65.198,336.915H44.722c-2.083-7.669-3.083-15.57-2.989-23.465l0,0
	L65.198,336.915z M549.941,312.744c0.721-0.01,1.443-0.001,2.164,0.008l-23.457,23.457v-20.484
	C535.614,313.837,542.77,312.839,549.941,312.744L549.941,312.744z M44.61,312.744c7.17,0.095,14.329,1.094,21.295,2.981v20.484
	l-23.458-23.457C43.167,312.743,43.889,312.735,44.61,312.744L44.61,312.744z M506.052,284.71c1.984,7.865,2.972,16.039,2.87,24.341
	l-31.787,18.353l8.24-30.754L506.052,284.71L506.052,284.71z M88.498,284.71l20.682,11.94l8.24,30.754l-31.789-18.355
	C85.528,300.747,86.515,292.574,88.498,284.71L88.498,284.71z M122.08,275.717c1.335,1.375,2.646,2.777,3.899,4.237v34.035
	l-7.595,13.158l-8.242-30.756L122.08,275.717z M472.472,275.717l11.936,20.674l-8.24,30.754l-7.594-13.152v-34.041
	C469.828,278.492,471.138,277.091,472.472,275.717L472.472,275.717z M375.488,292.401h15.355c3.967,0,7.18,3.212,7.18,7.178v9.087
	c-4.178,3.016-9.307,4.799-14.857,4.799c-5.55,0-10.678-1.783-14.857-4.799v-9.087C368.31,295.613,371.521,292.401,375.488,292.401z
	 M99.11,259.073l9.702,36.212l-20.052-11.576C91.05,275.029,94.547,266.736,99.11,259.073L99.11,259.073z M495.442,259.073
	c4.563,7.663,8.06,15.956,10.348,24.636l-20.052,11.576L495.442,259.073L495.442,259.073z M100.077,258.819
	c7.784,4.354,14.955,9.786,21.277,16.158l-11.576,20.048L100.077,258.819z M494.475,258.819l-9.701,36.206l-11.575-20.048
	C479.521,268.605,486.693,263.173,494.475,258.819z M383.167,268.836c5.175,0,9.36,4.185,9.36,9.36c0,5.176-4.185,9.36-9.36,9.36
	c-5.175,0-9.36-4.184-9.36-9.36C373.807,273.021,377.992,268.836,383.167,268.836z M430.482,177.254H164.07V154.21
	c0-5.985,4.842-10.827,10.827-10.827h244.76c5.985,0,10.825,4.842,10.825,10.827V177.254z M401.526,153.149
	c3.9,0,7.051,3.153,7.051,7.054c0,3.9-3.151,7.051-7.051,7.051c-3.901,0-7.054-3.151-7.054-7.051
	C394.471,156.302,397.624,153.149,401.526,153.149z M377.453,153.149c3.901,0,7.054,3.153,7.054,7.054
	c0,3.9-3.153,7.051-7.054,7.051c-3.9,0-7.051-3.151-7.051-7.051C370.401,156.302,373.553,153.149,377.453,153.149z"></path>
<path id="color_x5F_5" fill-rule="evenodd" clip-rule="evenodd" fill="#FFD2BB" d="M430.482,397.857H164.07V178.253h266.412
	V397.857z M203.707,352.469h15.356c3.968,0,7.179,3.211,7.179,7.178v9.089c-4.178,3.015-9.306,4.796-14.855,4.796
	c-5.55,0-10.679-1.782-14.857-4.798v-9.087C196.531,355.711,199.689,352.52,203.707,352.469L203.707,352.469z M211.388,328.902
	c5.175,0,9.36,4.185,9.36,9.36s-4.185,9.36-9.36,9.36c-5.176,0-9.36-4.185-9.36-9.36S206.212,328.902,211.388,328.902z
	 M375.488,292.401h15.355c3.967,0,7.18,3.212,7.18,7.178v9.087c-4.178,3.016-9.307,4.799-14.857,4.799
	c-5.55,0-10.678-1.783-14.857-4.799v-9.087C368.31,295.613,371.521,292.401,375.488,292.401z M383.167,268.836
	c-5.175,0-9.36,4.185-9.36,9.36c0,5.176,4.185,9.36,9.36,9.36h0.121c5.12-0.065,9.239-4.225,9.239-9.36s-4.119-9.294-9.239-9.359
	L383.167,268.836z M203.707,232.335h15.356c3.968,0,7.179,3.212,7.179,7.179v9.088c-4.178,3.015-9.306,4.797-14.855,4.797
	c-5.55,0-10.679-1.783-14.857-4.799v-9.086C196.531,235.548,199.74,232.335,203.707,232.335z M211.388,208.771
	c5.175,0,9.36,4.184,9.36,9.36c0,5.175-4.185,9.36-9.36,9.36c-5.176,0-9.36-4.185-9.36-9.36
	C202.028,212.955,206.212,208.771,211.388,208.771z M353.383,153.149c3.9,0,7.051,3.153,7.051,7.054c0,3.9-3.151,7.051-7.051,7.051
	c-3.901,0-7.052-3.151-7.052-7.051C346.331,156.302,349.482,153.149,353.383,153.149z"></path>
<path id="color_x5F_4" fill-rule="evenodd" clip-rule="evenodd" fill="#00CEC9" d="M203.707,232.335h15.356
	c3.968,0,7.179,3.212,7.179,7.179v9.088c-4.178,3.015-9.306,4.797-14.855,4.797c-5.55,0-10.679-1.783-14.857-4.799v-9.086
	C196.531,235.548,199.74,232.335,203.707,232.335z M211.388,208.771c5.175,0,9.36,4.184,9.36,9.36c0,5.175-4.185,9.36-9.36,9.36
	c-5.176,0-9.36-4.185-9.36-9.36C202.028,212.955,206.212,208.771,211.388,208.771z M377.453,153.149
	c3.901,0,7.054,3.153,7.054,7.054c0,3.9-3.153,7.051-7.054,7.051c-3.9,0-7.051-3.151-7.051-7.051
	C370.401,156.302,373.553,153.149,377.453,153.149z"></path>
<path id="color_x5F_3" fill-rule="evenodd" clip-rule="evenodd" fill="#E84393" d="M487.111,421.586H107.441
	c-10.747,0-19.45-8.703-19.45-19.451v-0.948c0-1.26,0.987-2.279,2.331-2.331h162.309c0.125,3.096,1.394,6.045,3.595,8.244
	c2.319,2.318,5.463,3.621,8.741,3.621h64.618c3.279,0,6.423-1.302,8.741-3.621c2.199-2.199,3.47-5.148,3.596-8.244h162.309
	c1.294,0,2.331,1.038,2.331,2.331v0.948C506.562,412.883,497.859,421.586,487.111,421.586z M141.96,397.857h-14.982V206.522
	c0-2.872,1.14-5.624,3.17-7.655c2.009-2.009,4.725-3.148,7.655-3.172h25.268v14.982H145.29c-0.884,0-1.73,0.353-2.354,0.977
	s-0.976,1.471-0.976,2.355V397.857z M467.576,397.857h-14.982V214.009c0-0.884-0.353-1.731-0.978-2.355
	c-0.624-0.625-1.471-0.977-2.354-0.977h-17.781v-14.982h25.268c2.871,0,5.623,1.142,7.655,3.172c2.03,2.031,3.172,4.783,3.172,7.655
	V397.857z"></path>
<path id="color_x5F_2" fill-rule="evenodd" clip-rule="evenodd" fill="#FBC02D" d="M329.585,409.722h-64.618
	c-3.013,0-5.903-1.197-8.035-3.328c-1.992-1.992-3.155-4.649-3.304-7.538h87.296c-0.125,2.832-1.29,5.525-3.303,7.538
	C335.489,408.525,332.599,409.722,329.585,409.722L329.585,409.722z M163.072,397.857h-20.113V214.009
	c0-0.619,0.246-1.212,0.683-1.649c0.418-0.419,0.977-0.662,1.648-0.684h17.781V397.857z M451.596,397.857h-20.115V211.676h17.781
	c0.618,0,1.212,0.247,1.648,0.684c0.437,0.437,0.685,1.03,0.685,1.649V397.857z M203.707,351.471c-4.509,0-8.175,3.67-8.175,8.177
	v8.328c-5.823-4.656-9.557-11.816-9.557-19.855c0-14.014,11.33-25.368,25.413-25.41c14.04,0,25.41,11.37,25.41,25.41
	c0,8.04-3.732,15.201-9.556,19.857v-8.33c0-4.508-3.67-8.177-8.178-8.177L203.707,351.471L203.707,351.471z M406.246,366.203
	H256.733c-0.618,0-1.213-0.245-1.65-0.683c-0.437-0.436-0.683-1.03-0.683-1.648v-9.347c0-0.132-0.053-0.26-0.146-0.353l-8.154-8.152
	l8.154-8.155c0.093-0.093,0.146-0.221,0.146-0.353v-9.346c0-0.618,0.246-1.211,0.683-1.649c0.419-0.418,0.979-0.66,1.65-0.682
	h149.513c0.619,0,1.213,0.245,1.649,0.682c0.437,0.437,0.682,1.031,0.682,1.649v35.705c0,0.618-0.245,1.21-0.682,1.646
	c0,0.001,0,0.001,0,0.002C407.458,365.957,406.865,366.202,406.246,366.203L406.246,366.203z M211.388,328.902
	c5.175,0,9.36,4.185,9.36,9.36s-4.185,9.36-9.36,9.36c-5.176,0-9.36-4.185-9.36-9.36S206.212,328.902,211.388,328.902z
	 M375.488,291.403c-4.508,0-8.177,3.671-8.177,8.177v8.33c-5.823-4.655-9.556-11.815-9.556-19.855
	c0-14.013,11.329-25.367,25.412-25.41c14.04,0,25.41,11.37,25.41,25.41c0,8.04-3.731,15.199-9.554,19.855v-8.33
	c0-4.507-3.672-8.177-8.179-8.177H375.488z M337.822,306.135H188.306c-0.619,0-1.211-0.245-1.648-0.683
	c-0.436-0.436-0.683-1.03-0.683-1.648v-35.703c0-0.617,0.246-1.211,0.683-1.649c0.437-0.437,1.029-0.682,1.648-0.682l0,0h149.516
	c0.618,0,1.212,0.246,1.648,0.682c0.437,0.438,0.683,1.032,0.683,1.649v9.346c0,0.133,0.052,0.26,0.146,0.354l8.152,8.152
	l-8.152,8.154c-0.094,0.094-0.146,0.221-0.146,0.353v9.345c0,0.618-0.246,1.212-0.683,1.648c0,0.001,0,0.002,0,0.002
	C339.034,305.891,338.441,306.135,337.822,306.135z M383.167,268.836c5.175,0,9.36,4.185,9.36,9.36c0,5.176-4.185,9.36-9.36,9.36
	c-5.175,0-9.36-4.184-9.36-9.36C373.807,273.021,377.992,268.836,383.167,268.836z M203.707,231.337
	c-4.508,0.001-8.175,3.671-8.175,8.178v8.33c-5.824-4.655-9.557-11.816-9.557-19.855c0-14.014,11.33-25.368,25.413-25.411
	c14.04,0,25.41,11.371,25.41,25.411c0,8.04-3.732,15.202-9.556,19.857v-8.332c0-4.508-3.67-8.177-8.178-8.178H203.707z
	 M406.246,246.069H256.733c-0.619,0-1.213-0.245-1.65-0.682c-0.437-0.438-0.683-1.031-0.683-1.649v-9.346
	c0-0.133-0.053-0.26-0.146-0.354l-8.154-8.152l8.154-8.152c0.093-0.094,0.146-0.221,0.146-0.353v-9.347
	c0-0.618,0.246-1.212,0.683-1.648c0.437-0.437,1.031-0.683,1.65-0.683h149.513c0.619,0,1.213,0.246,1.649,0.683
	c0.437,0.436,0.682,1.029,0.682,1.648v35.703c0,0.618-0.245,1.211-0.682,1.649C407.458,245.823,406.866,246.069,406.246,246.069z
	 M211.388,208.771c5.175,0,9.36,4.184,9.36,9.36c0,5.175-4.185,9.36-9.36,9.36c-5.176,0-9.36-4.185-9.36-9.36
	C202.028,212.955,206.212,208.771,211.388,208.771z"></path>
<path id="color_x5F_1" fill="#0984E3" d="M88.237,124.079c-0.542,0.009-0.984,0.457-0.984,0.999c0,0.006,0,0.011,0.001,0.016
	v11.207c-0.001,0.004-0.001,0.009-0.001,0.014c0,0.547,0.451,0.999,1,0.999c0.547,0,0.999-0.451,0.999-0.999c0-0.005,0-0.01,0-0.014
	v-11.207c0-0.005,0-0.01,0-0.016c0-0.547-0.451-0.999-0.999-0.999C88.247,124.079,88.242,124.079,88.237,124.079z M69.031,132.042
	c-0.547,0-0.998,0.451-0.998,0.999c0,0.27,0.109,0.528,0.302,0.716l7.926,7.925c0.187,0.188,0.441,0.293,0.706,0.293
	c0.548,0,0.999-0.451,0.999-1c0-0.265-0.105-0.519-0.293-0.707l-7.926-7.923C69.559,132.151,69.301,132.042,69.031,132.042z
	 M107.443,132.042c-0.259,0.008-0.505,0.116-0.686,0.303l-7.926,7.925c-0.196,0.189-0.307,0.449-0.307,0.721
	c0,0.547,0.45,0.999,0.999,0.999c0.272,0,0.532-0.111,0.72-0.308l7.926-7.925c0.194-0.188,0.303-0.446,0.303-0.716
	c0-0.548-0.451-0.999-0.999-0.999C107.463,132.042,107.453,132.042,107.443,132.042z M174.897,141.885
	c-6.795,0-12.325,5.531-12.325,12.325v39.986h-24.769c-3.268,0-6.404,1.3-8.714,3.612c-2.31,2.311-3.609,5.445-3.609,8.713v70.604
	c-7.401-8.185-16.118-15.016-25.725-20.233c-0.147-0.08-0.313-0.122-0.479-0.121c-0.347,0.001-0.668,0.183-0.849,0.477
	c-11.548,18.853-16.664,41.606-13.279,64.628c-13.619-7.482-28.826-11.036-43.953-10.643c-0.528,0.013-0.959,0.443-0.973,0.972
	c-0.525,20.166,5.973,40.476,19.444,56.968H42.191c-0.551,0-0.999,0.447-0.999,0.999s0.447,0.999,0.999,0.999h83.29v26.187H90.322
	c-2.103,0-3.829,1.726-3.829,3.829v0.948c0,11.557,9.392,20.949,20.949,20.949h379.669c11.559,0,20.95-9.392,20.95-20.949v-0.948
	c0-2.103-1.726-3.829-3.829-3.829h-35.156v-26.187h83.287c0.266,0,0.519-0.105,0.706-0.293c0.188-0.188,0.293-0.441,0.293-0.706
	c0-0.551-0.446-0.999-0.999-0.999c-3.844,0-17.475,0-17.475,0c13.472-16.492,19.968-36.801,19.443-56.968
	c-0.014-0.528-0.445-0.959-0.974-0.972c-15.127-0.393-30.332,3.161-43.952,10.643c3.385-23.022-1.73-45.774-13.279-64.628
	c-0.178-0.29-0.491-0.47-0.831-0.477c-0.174-0.004-0.346,0.038-0.497,0.121c-9.604,5.218-18.323,12.047-25.723,20.231v-70.602
	c0-3.268-1.3-6.402-3.612-8.713c-2.311-2.31-5.445-3.612-8.713-3.612h-24.769V154.21c0-6.794-5.528-12.325-12.323-12.325
	L174.897,141.885L174.897,141.885z M174.897,143.883h244.76c5.715,0,10.325,4.613,10.325,10.327v22.546H164.57V154.21
	C164.57,148.496,169.182,143.883,174.897,143.883L174.897,143.883z M61.084,151.263c-0.004,0-0.009,0-0.014,0
	c-0.547,0-0.999,0.451-0.999,0.999c0,0.548,0.451,0.999,0.999,0.999c0.005,0,0.01,0,0.014,0h11.207c0.005,0,0.009,0,0.014,0
	c0.548,0,0.999-0.45,0.999-0.999c0-0.547-0.45-0.999-0.999-0.999c-0.005,0-0.009,0-0.014,0H61.084z M104.213,151.263
	c-0.005,0-0.009,0-0.014,0c-0.548,0-0.999,0.451-0.999,0.999c0,0.548,0.45,0.999,0.999,0.999c0.005,0,0.009,0,0.014,0h11.207
	c0.004,0,0.009,0,0.014,0c0.547,0,0.999-0.45,0.999-0.999c0-0.547-0.451-0.999-0.999-0.999c-0.005,0-0.01,0-0.014,0H104.213z
	 M353.383,151.652c-4.711,0-8.551,3.841-8.551,8.552c0,4.711,3.839,8.551,8.551,8.551c4.71,0,8.55-3.839,8.55-8.551
	C361.933,155.493,358.094,151.652,353.383,151.652z M377.453,151.652c-4.71,0-8.55,3.841-8.55,8.552c0,4.711,3.839,8.551,8.55,8.551
	c4.711,0,8.553-3.839,8.553-8.551C386.006,155.493,382.164,151.652,377.453,151.652z M401.526,151.652
	c-4.71,0-8.553,3.841-8.553,8.552c0,4.711,3.842,8.551,8.553,8.551s8.55-3.839,8.55-8.551
	C410.075,155.493,406.236,151.652,401.526,151.652z M353.383,153.649c3.631,0,6.552,2.923,6.552,6.554
	c0,3.632-2.921,6.553-6.552,6.553c-3.632,0-6.553-2.921-6.553-6.553C346.83,156.573,349.752,153.649,353.383,153.649z
	 M377.453,153.649c3.632,0,6.555,2.923,6.555,6.554c0,3.632-2.923,6.553-6.555,6.553c-3.631,0-6.552-2.921-6.552-6.553
	C370.901,156.573,373.822,153.649,377.453,153.649z M401.526,153.649c3.631,0,6.552,2.923,6.552,6.554
	c0,3.632-2.921,6.553-6.552,6.553c-3.632,0-6.555-2.921-6.555-6.553C394.971,156.573,397.894,153.649,401.526,153.649z
	 M76.947,162.538c-0.26,0.008-0.505,0.117-0.686,0.303l-7.926,7.924c-0.196,0.188-0.307,0.448-0.307,0.72
	c0,0.548,0.45,0.999,0.999,0.999c0.272,0,0.532-0.111,0.72-0.307l7.926-7.924c0.193-0.188,0.303-0.446,0.303-0.716
	c0-0.548-0.451-0.999-0.999-0.999C76.967,162.538,76.957,162.538,76.947,162.538L76.947,162.538z M99.528,162.538
	c-0.548,0-0.999,0.451-0.999,0.999c0,0.27,0.109,0.528,0.302,0.716l7.926,7.924c0.188,0.196,0.448,0.307,0.72,0.307
	c0.548,0,0.999-0.45,0.999-0.999c0-0.272-0.111-0.532-0.307-0.72l-7.926-7.924C100.055,162.647,99.797,162.538,99.528,162.538
	L99.528,162.538z M88.237,167.209c-0.547,0.009-0.991,0.465-0.983,1.013v11.208c-0.001,0.005-0.001,0.01-0.001,0.014
	c0,0.548,0.451,1,1,1c0.547,0,0.999-0.451,0.999-1c0-0.004,0-0.009,0-0.014v-11.208c0-0.005,0-0.009,0-0.014
	c0-0.548-0.451-0.999-0.999-0.999C88.247,167.209,88.242,167.209,88.237,167.209z M164.57,178.754h265.413v218.605H164.57V178.754
	L164.57,178.754z M511.706,182.223c-0.547,0.009-0.991,0.465-0.983,1.013v11.207c0,0.004,0,0.009,0,0.014
	c0,0.547,0.45,0.999,0.999,0.999s0.999-0.451,0.999-0.999c0-0.005,0-0.01,0-0.014v-11.207c0-0.005,0-0.009,0-0.014
	c0-0.547-0.45-0.999-0.999-0.999C511.717,182.223,511.711,182.223,511.706,182.223z M492.501,190.185
	c-0.548,0-0.999,0.45-0.999,0.999c0,0.27,0.109,0.527,0.302,0.716l7.924,7.925c0.188,0.188,0.442,0.294,0.707,0.294
	c0.548,0,1-0.451,1-1c0-0.265-0.106-0.518-0.293-0.706l-7.925-7.925C493.028,190.294,492.771,190.185,492.501,190.185z
	 M530.913,190.185c-0.26,0.008-0.506,0.116-0.687,0.303l-7.925,7.925c-0.197,0.189-0.308,0.448-0.308,0.721
	c0,0.547,0.451,0.999,0.999,0.999c0.272,0,0.532-0.111,0.721-0.308l7.925-7.925c0.194-0.189,0.303-0.446,0.303-0.716
	c0-0.548-0.45-1-0.999-1C530.932,190.184,530.923,190.185,530.913,190.185z M137.803,196.194h24.769v13.983H145.29
	c-1.016,0-1.99,0.407-2.708,1.124c-0.717,0.718-1.122,1.692-1.122,2.708v183.35h-13.983V206.522c0-2.739,1.087-5.363,3.023-7.301
	C132.438,197.284,135.065,196.194,137.803,196.194z M431.981,196.194h24.769c2.739,0,5.364,1.09,7.301,3.026
	c1.937,1.938,3.026,4.562,3.026,7.301v190.837h-13.983v-183.35c0-1.016-0.406-1.99-1.124-2.708
	c-0.718-0.718-1.693-1.124-2.708-1.124h-17.282V196.194z M211.388,201.081c-14.85,0-26.911,12.059-26.911,26.908
	c0,14.85,12.061,26.909,26.911,26.909c14.849,0,26.908-12.059,26.908-26.909C238.296,213.141,226.237,201.081,211.388,201.081z
	 M211.388,203.079c13.77,0,24.911,11.141,24.911,24.911c0,7.507-3.315,14.227-8.558,18.792v-7.266c0-4.778-3.898-8.677-8.677-8.677
	h-15.356c-4.778,0-8.674,3.899-8.674,8.677v7.266c-5.243-4.565-8.559-11.285-8.559-18.792
	C186.474,214.22,197.618,203.079,211.388,203.079z M256.733,204.207c-1.015,0-1.991,0.404-2.71,1.122
	c-0.717,0.717-1.122,1.692-1.122,2.708v8.93l-8.214,8.215c-0.388,0.388-0.388,1.025,0,1.412l8.214,8.213v8.932
	c0,1.015,0.406,1.99,1.122,2.708c0.719,0.718,1.695,1.122,2.71,1.122h149.513c1.016,0,1.99-0.403,2.708-1.122
	c0.719-0.718,1.122-1.693,1.122-2.708v-35.703c0-1.015-0.403-1.99-1.122-2.708c-0.718-0.719-1.692-1.122-2.708-1.122
	L256.733,204.207L256.733,204.207z M256.733,206.204h149.513c0.487,0,0.953,0.191,1.295,0.534c0,0.001,0,0.001,0,0.002
	c0.344,0.343,0.536,0.808,0.536,1.295v35.703c0,0.486-0.192,0.951-0.536,1.295c0,0.001,0,0.001,0,0.002
	c-0.343,0.344-0.808,0.534-1.295,0.534H256.733c-0.487,0-0.953-0.192-1.297-0.536c-0.343-0.345-0.536-0.811-0.536-1.295v-9.346
	c0-0.265-0.105-0.519-0.293-0.706l-7.801-7.8l7.801-7.8c0.188-0.187,0.293-0.441,0.293-0.706v-9.346
	c0-0.486,0.194-0.952,0.536-1.295C255.78,206.396,256.245,206.204,256.733,206.204z M211.388,207.273
	c-5.985,0-10.858,4.873-10.858,10.858s4.873,10.858,10.858,10.858s10.858-4.873,10.858-10.858S217.373,207.273,211.388,207.273z
	 M211.388,209.27c4.905,0,8.86,3.955,8.86,8.86c0,4.906-3.955,8.86-8.86,8.86s-8.86-3.954-8.86-8.86
	C202.528,213.226,206.483,209.27,211.388,209.27z M484.554,209.405c-0.005,0-0.01,0-0.014,0c-0.548,0-1,0.45-1,0.999
	c0,0.548,0.451,0.999,1,0.999c0.004,0,0.009,0,0.014,0h11.206c0.005,0,0.01,0,0.015,0c0.547,0,0.999-0.45,0.999-0.999
	c0-0.548-0.451-0.999-0.999-0.999c-0.005,0-0.01,0-0.015,0H484.554z M527.68,209.405c-0.004,0-0.009,0-0.014,0
	c-0.547,0-0.999,0.45-0.999,0.999c0,0.548,0.451,0.999,0.999,0.999c0.005,0,0.01,0,0.014,0h11.209c0.005,0,0.009,0,0.014,0
	c0.548,0,0.999-0.45,0.999-0.999c0-0.548-0.45-0.999-0.999-0.999c-0.005,0-0.009,0-0.014,0H527.68z M145.29,212.175h17.282v185.184
	h-19.114v-183.35c0-0.486,0.193-0.952,0.536-1.294C144.339,212.37,144.804,212.175,145.29,212.175z M431.981,212.175h17.282
	c0.486,0,0.952,0.195,1.295,0.539c0,0,0.001,0,0.002,0c0.344,0.343,0.536,0.808,0.536,1.294v183.35h-19.116V212.175z
	 M271.262,214.536c-0.265,0-0.519,0.105-0.706,0.293c-0.188,0.187-0.293,0.441-0.293,0.706c0,0.265,0.105,0.518,0.293,0.706
	c0.187,0.187,0.441,0.293,0.706,0.293c10.956,0,108.571,0,119.522,0c0.551,0,0.998-0.447,0.998-0.998c0-0.001,0-0.002,0-0.002
	c0-0.551-0.446-0.998-0.998-0.998C379.833,214.536,282.218,214.536,271.262,214.536L271.262,214.536z M500.415,220.681
	c-0.26,0.008-0.506,0.116-0.687,0.303l-7.924,7.923c-0.188,0.188-0.293,0.442-0.293,0.708c0,0.548,0.45,0.999,0.999,0.999
	c0.265,0,0.519-0.105,0.707-0.293l7.925-7.925c0.194-0.188,0.303-0.446,0.303-0.716c0-0.548-0.45-0.999-0.999-0.999
	C500.436,220.681,500.425,220.681,500.415,220.681L500.415,220.681z M522.997,220.681c-0.548,0-0.999,0.451-0.999,0.999
	c0,0.27,0.109,0.528,0.303,0.716l7.925,7.925c0.188,0.188,0.442,0.293,0.706,0.293c0.548,0,1-0.45,1-0.999
	c0-0.266-0.106-0.52-0.294-0.708l-7.925-7.923C523.525,220.789,523.266,220.681,522.997,220.681L522.997,220.681z M511.706,225.351
	c-0.547,0.008-0.991,0.465-0.983,1.013v11.208c0,0.005,0,0.01,0,0.014c0,0.548,0.45,0.999,0.999,0.999s0.999-0.45,0.999-0.999
	c0-0.004,0-0.009,0-0.014v-11.208c0-0.005,0-0.01,0-0.014c0-0.548-0.45-0.999-0.999-0.999
	C511.717,225.351,511.711,225.351,511.706,225.351z M271.262,225.887c-0.265,0-0.519,0.105-0.706,0.293
	c-0.188,0.187-0.293,0.441-0.293,0.706s0.105,0.519,0.293,0.706c0.187,0.188,0.441,0.293,0.706,0.293c10.956,0,108.571,0,119.522,0
	c0.551,0,0.998-0.446,0.998-0.998c0-0.001,0-0.001,0-0.002c0-0.551-0.446-0.998-0.998-0.998
	C379.833,225.887,282.218,225.887,271.262,225.887L271.262,225.887z M203.707,232.836h15.356c3.698,0,6.68,2.983,6.68,6.68v8.834
	c-4.057,2.865-9.006,4.551-14.356,4.551c-5.35,0-10.3-1.687-14.358-4.551v-8.834C197.03,235.819,200.011,232.836,203.707,232.836z
	 M271.262,237.238c-0.265,0-0.519,0.106-0.706,0.293c-0.188,0.188-0.293,0.441-0.293,0.706s0.105,0.519,0.293,0.706
	c0.187,0.188,0.441,0.293,0.706,0.293c9.079,0,77.199,0,86.278,0c0.265,0,0.518-0.105,0.706-0.293
	c0.187-0.187,0.293-0.441,0.293-0.706s-0.106-0.518-0.293-0.706c-0.188-0.187-0.441-0.293-0.706-0.293
	C348.461,237.238,280.341,237.238,271.262,237.238z M100.877,259.879c7.227,4.163,13.917,9.249,19.855,15.178l-10.784,18.678
	L100.877,259.879z M493.676,259.879l-9.071,33.856l-10.782-18.678C479.76,269.128,486.449,264.041,493.676,259.879z M98.945,260.382
	l9.075,33.869l-18.665-10.778C91.531,275.366,94.767,267.604,98.945,260.382L98.945,260.382z M495.608,260.382
	c4.178,7.221,7.416,14.984,9.592,23.091l-18.667,10.778L495.608,260.382L495.608,260.382z M383.167,261.147
	c-14.85,0-26.91,12.058-26.91,26.908s12.06,26.909,26.91,26.909s26.908-12.059,26.908-26.909
	C410.075,273.206,398.017,261.147,383.167,261.147z M383.167,263.145c13.77,0,24.911,11.14,24.911,24.911
	c0,7.506-3.314,14.225-8.556,18.79v-7.265c0-4.777-3.9-8.676-8.678-8.676h-15.355c-4.778,0-8.676,3.899-8.676,8.676v7.267
	c-5.243-4.565-8.558-11.286-8.558-18.792C358.254,274.285,369.397,263.145,383.167,263.145z M188.306,264.273
	c-1.015,0-1.989,0.403-2.708,1.122c0,0-0.001,0-0.002,0c-0.716,0.718-1.12,1.692-1.12,2.708v35.703c0,1.016,0.405,1.99,1.122,2.708
	c0.719,0.718,1.693,1.122,2.708,1.122h149.516c1.015,0,1.99-0.403,2.707-1.122c0.718-0.718,1.123-1.693,1.123-2.708v-8.931
	l8.214-8.214c0.388-0.388,0.388-1.025,0-1.412l-8.214-8.213v-8.932c0-1.016-0.405-1.99-1.123-2.708
	c-0.717-0.72-1.692-1.122-2.707-1.122L188.306,264.273L188.306,264.273z M188.306,266.27h149.516c0.486,0,0.95,0.193,1.292,0.536
	c0.001,0,0.002,0,0.002,0c0.346,0.345,0.537,0.81,0.537,1.295v9.346c0,0.265,0.105,0.519,0.293,0.706l7.799,7.799l-7.799,7.801
	c-0.188,0.188-0.293,0.441-0.293,0.706v9.345c0,0.486-0.193,0.952-0.537,1.295c0,0-0.001,0.001-0.002,0.002
	c-0.343,0.343-0.806,0.534-1.292,0.534H188.306c-0.487,0-0.951-0.193-1.295-0.536c-0.343-0.344-0.536-0.809-0.536-1.295v-35.703
	c0-0.485,0.193-0.951,0.536-1.295C187.355,266.462,187.819,266.27,188.306,266.27L188.306,266.27L188.306,266.27z M383.167,267.339
	c-5.985,0-10.858,4.873-10.858,10.858c0,5.985,4.873,10.858,10.858,10.858c5.985,0,10.858-4.873,10.858-10.858
	C394.025,272.212,389.152,267.339,383.167,267.339z M383.167,269.336c4.905,0,8.86,3.955,8.86,8.86c0,4.905-3.955,8.86-8.86,8.86
	c-4.905,0-8.86-3.955-8.86-8.86C374.307,273.292,378.262,269.336,383.167,269.336z M203.77,274.603
	c-0.265,0-0.519,0.106-0.706,0.293c-0.188,0.188-0.293,0.441-0.293,0.706c0,0.266,0.105,0.519,0.293,0.706
	c0.187,0.188,0.441,0.293,0.706,0.293c10.956,0,108.565,0,119.521,0c0.265,0,0.518-0.105,0.706-0.293
	c0.187-0.187,0.293-0.44,0.293-0.706c0-0.265-0.106-0.518-0.293-0.706c-0.188-0.187-0.441-0.293-0.706-0.293
	C312.335,274.603,214.726,274.603,203.77,274.603z M122.185,276.537c1.126,1.175,2.229,2.374,3.295,3.611v33.707l-6.926,11.997
	l-7.874-29.39L122.185,276.537L122.185,276.537z M472.369,276.537l11.503,19.925l-7.875,29.39l-6.923-11.993v-33.711
	C470.14,278.911,471.243,277.711,472.369,276.537z M88.836,285.483l19.915,11.496l7.875,29.39l-30.5-17.61
	C86.054,300.827,86.989,293.016,88.836,285.483z M505.717,285.483c1.847,7.534,2.782,15.345,2.71,23.279l-30.5,17.608l7.875-29.39
	L505.717,285.483L505.717,285.483z M203.77,285.953c-0.265,0-0.519,0.105-0.706,0.293c-0.188,0.187-0.293,0.44-0.293,0.706
	c0,0.265,0.105,0.518,0.293,0.706c0.187,0.187,0.441,0.293,0.706,0.293c10.956,0,108.565,0,119.521,0
	c0.265,0,0.518-0.106,0.706-0.293c0.187-0.188,0.293-0.441,0.293-0.706c0-0.266-0.106-0.519-0.293-0.706
	c-0.188-0.188-0.441-0.293-0.706-0.293C312.335,285.953,214.726,285.953,203.77,285.953L203.77,285.953z M375.488,292.902h15.355
	c3.696,0,6.681,2.983,6.681,6.679v8.833c-4.057,2.865-9.007,4.553-14.358,4.553c-5.35,0-10.3-1.687-14.358-4.551v-8.835
	C368.809,295.885,371.792,292.902,375.488,292.902L375.488,292.902z M237.015,297.304c-0.265,0-0.519,0.105-0.706,0.293
	c-0.188,0.187-0.293,0.441-0.293,0.706c0,0.265,0.105,0.518,0.293,0.706c0.187,0.188,0.441,0.293,0.706,0.293
	c9.079,0,77.197,0,86.276,0c0.265,0,0.518-0.105,0.706-0.293c0.187-0.188,0.293-0.441,0.293-0.706c0-0.265-0.106-0.519-0.293-0.706
	c-0.188-0.188-0.441-0.293-0.706-0.293C314.212,297.304,246.094,297.304,237.015,297.304L237.015,297.304z M86.176,311.096
	l31.181,18.002l7.873,29.386L91.358,338.93c-0.734-2.125-1.405-4.287-1.996-6.492C87.454,325.313,86.417,318.163,86.176,311.096
	L86.176,311.096z M508.376,311.096c-0.24,7.067-1.276,14.218-3.185,21.342c-0.591,2.205-1.262,4.367-1.996,6.492l-33.873,19.554
	l7.873-29.386L508.376,311.096L508.376,311.096z M43.676,313.275c7.312,0.017,14.619,0.959,21.73,2.845v18.885L43.676,313.275
	L43.676,313.275z M550.877,313.275l-21.73,21.73V316.12C536.258,314.234,543.565,313.292,550.877,313.275L550.877,313.275z
	 M42.252,314.675l21.741,21.742H45.109C43.214,329.303,42.268,321.992,42.252,314.675z M552.301,314.675
	c-0.017,7.317-0.964,14.628-2.859,21.742H530.56L552.301,314.675z M67.403,316.668c6.267,1.829,12.362,4.403,18.147,7.723
	c0.247,1.414,0.524,2.829,0.835,4.243v27.35l-18.982-18.981V316.668L67.403,316.668z M527.15,316.668v20.334l-18.983,18.981v-27.352
	c0.312-1.413,0.587-2.828,0.833-4.241C514.786,321.07,520.882,318.497,527.15,316.668z M125.48,317.849v33.848l-6.193-23.117
	L125.48,317.849L125.48,317.849z M469.075,317.853l6.193,10.725l-6.193,23.113V317.853z M211.388,321.212
	c-14.85,0-26.911,12.059-26.911,26.909c0,14.85,12.061,26.91,26.911,26.91c14.849,0,26.908-12.06,26.908-26.91
	C238.296,333.272,226.237,321.212,211.388,321.212z M211.388,323.21c13.77,0,24.911,11.141,24.911,24.912
	c0,7.506-3.316,14.226-8.558,18.791v-7.264c0-4.778-3.898-8.677-8.677-8.677h-15.356c-4.778,0-8.674,3.899-8.674,8.677v7.264
	c-5.243-4.565-8.559-11.285-8.559-18.791C186.474,334.351,197.618,323.21,211.388,323.21z M256.733,324.338
	c-1.015,0-1.991,0.404-2.71,1.122c-0.716,0.718-1.122,1.693-1.122,2.708v8.933l-8.214,8.214c-0.388,0.388-0.388,1.025,0,1.412
	l8.214,8.213v8.932c0,1.016,0.405,1.991,1.122,2.708c0.718,0.718,1.694,1.122,2.71,1.122h149.513c1.016,0,1.991-0.405,2.708-1.124
	c0.719-0.717,1.122-1.691,1.122-2.706v-35.705c0-1.014-0.403-1.989-1.122-2.708c-0.718-0.719-1.692-1.122-2.708-1.122
	L256.733,324.338L256.733,324.338z M256.733,326.335h149.513c0.487,0,0.953,0.194,1.295,0.537c0.345,0.344,0.536,0.809,0.536,1.294
	v35.705c0,0.487-0.193,0.951-0.536,1.293c0,0.001,0,0.002,0,0.002c-0.343,0.345-0.809,0.536-1.295,0.536H256.733
	c-0.486,0-0.953-0.192-1.297-0.536c-0.343-0.343-0.536-0.809-0.536-1.295v-9.346c0-0.265-0.105-0.519-0.293-0.706l-7.801-7.802
	l7.801-7.799c0.188-0.188,0.293-0.441,0.293-0.706v-9.347c0-0.484,0.193-0.95,0.536-1.294
	C255.78,326.528,256.245,326.335,256.733,326.335L256.733,326.335L256.733,326.335z M211.388,327.405
	c-5.985,0-10.858,4.873-10.858,10.858c0,5.985,4.873,10.858,10.858,10.858s10.858-4.873,10.858-10.858
	C222.246,332.278,217.373,327.405,211.388,327.405z M211.388,329.402c4.905,0,8.86,3.955,8.86,8.86c0,4.905-3.955,8.86-8.86,8.86
	s-8.86-3.955-8.86-8.86C202.528,333.358,206.483,329.402,211.388,329.402z M271.262,334.669c-0.265,0-0.519,0.105-0.706,0.293
	c-0.188,0.188-0.293,0.441-0.293,0.706c0,0.265,0.105,0.519,0.293,0.706c0.187,0.188,0.441,0.293,0.706,0.293
	c10.956,0,108.571,0,119.522,0c0.551,0,0.998-0.446,0.998-0.998c0-0.001,0-0.001,0-0.002c0-0.551-0.446-0.998-0.998-0.998
	C379.833,334.669,282.218,334.669,271.262,334.669z M506.169,336.243v21.738l-11.193,11.193h-6.396
	C496.333,359.699,502.392,348.606,506.169,336.243z M88.382,336.245c3.778,12.362,9.838,23.453,17.591,32.929h-6.397l-11.193-11.193
	V336.245z M45.669,338.414h20.32l18.985,18.983H53.878C50.327,351.364,47.593,344.984,45.669,338.414z M528.562,338.414h20.321
	c-1.924,6.57-4.656,12.949-8.207,18.983h-31.099L528.562,338.414L528.562,338.414z M92.419,341.846l33.062,19.088v8.24h-16.907
	C101.818,361.206,96.309,352.024,92.419,341.846L92.419,341.846z M502.133,341.846c-3.889,10.178-9.399,19.359-16.154,27.328
	h-16.904v-8.24L502.133,341.846z M271.262,346.02c-0.265,0-0.519,0.106-0.706,0.293c-0.188,0.188-0.293,0.441-0.293,0.706
	c0,0.266,0.105,0.519,0.293,0.707c0.187,0.187,0.441,0.292,0.706,0.292c10.956,0,108.571,0,119.522,0
	c0.551,0,0.998-0.446,0.998-0.998c0,0,0-0.001,0-0.002c0-0.55-0.446-0.998-0.998-0.998
	C379.833,346.02,282.218,346.02,271.262,346.02z M203.707,352.969h15.356c3.698,0,6.68,2.982,6.68,6.68v8.835
	c-4.057,2.864-9.006,4.55-14.356,4.55c-5.35,0-10.3-1.688-14.358-4.552v-8.833C197.03,355.951,200.011,352.969,203.707,352.969z
	 M271.262,357.37c-0.265,0-0.519,0.105-0.706,0.293c-0.188,0.187-0.293,0.44-0.293,0.706c0,0.265,0.105,0.518,0.293,0.706
	c0.187,0.187,0.441,0.293,0.706,0.293c9.079,0,77.199,0,86.278,0c0.265,0,0.518-0.106,0.706-0.293
	c0.187-0.188,0.293-0.441,0.293-0.706c0-0.266-0.106-0.519-0.293-0.706c-0.188-0.188-0.441-0.293-0.706-0.293
	C348.461,357.37,280.341,357.37,271.262,357.37z M55.093,359.395h31.879l9.779,9.779H62.248
	C59.597,366.053,57.216,362.782,55.093,359.395L55.093,359.395z M507.58,359.395h31.881c-2.122,3.387-4.503,6.658-7.155,9.779
	h-34.505L507.58,359.395L507.58,359.395z M90.322,399.356h161.832c0.238,3.045,1.542,5.923,3.718,8.097
	c2.412,2.412,5.683,3.767,9.094,3.767h64.618c3.411,0,6.683-1.355,9.095-3.767c2.174-2.174,3.481-5.052,3.718-8.097h161.832
	c1.025,0,1.832,0.808,1.832,1.832v0.948c0,10.477-8.473,18.951-18.952,18.951H107.441c-10.477,0-18.951-8.474-18.951-18.951v-0.948
	C88.49,400.164,89.298,399.356,90.322,399.356L90.322,399.356z M254.152,399.356h86.249c-0.233,2.515-1.332,4.884-3.133,6.685
	c-2.039,2.039-4.8,3.182-7.683,3.182h-64.618c-2.882,0-5.643-1.144-7.682-3.182C255.483,404.24,254.384,401.872,254.152,399.356
	L254.152,399.356z M249.589,446.073c-0.548,0.008-0.993,0.464-0.986,1.013v11.206c0,0.005,0,0.01,0,0.015
	c0,0.547,0.451,0.999,0.999,0.999c0.548,0,0.999-0.451,0.999-0.999c0-0.005,0-0.01,0-0.015v-11.206c0-0.005,0-0.009,0-0.014
	c0-0.548-0.45-0.999-0.999-0.999C249.598,446.073,249.593,446.073,249.589,446.073z M230.382,454.034
	c-0.547,0.001-0.997,0.451-0.997,0.999c0,0.27,0.11,0.527,0.303,0.716l7.924,7.925c0.188,0.196,0.448,0.308,0.72,0.308
	c0.548,0,0.999-0.451,0.999-1c0-0.272-0.111-0.531-0.307-0.72l-7.924-7.925C230.911,454.143,230.652,454.033,230.382,454.034
	L230.382,454.034z M268.794,454.034c-0.259,0.008-0.505,0.116-0.686,0.303l-7.926,7.925c-0.196,0.189-0.307,0.448-0.307,0.72
	c0,0.548,0.45,1,0.999,1c0.272,0,0.532-0.112,0.72-0.308l7.926-7.925c0.193-0.189,0.303-0.446,0.303-0.717
	c0-0.547-0.451-0.999-0.999-0.999C268.814,454.033,268.804,454.034,268.794,454.034L268.794,454.034z M222.435,473.254
	c-0.004,0-0.009,0-0.014,0c-0.548,0-0.999,0.45-0.999,0.999c0,0.548,0.45,0.999,0.999,0.999c0.005,0,0.01,0,0.014,0h11.209
	c0.005,0,0.009,0,0.014,0c0.548,0,0.999-0.45,0.999-0.999c0-0.548-0.45-0.999-0.999-0.999c-0.005,0-0.009,0-0.014,0H222.435
	L222.435,473.254z M265.564,473.254c-0.005,0-0.01,0-0.014,0c-0.548,0-0.999,0.45-0.999,0.999c0,0.548,0.45,0.999,0.999,0.999
	c0.004,0,0.009,0,0.014,0h11.207c0.004,0,0.009,0,0.014,0c0.547,0,0.999-0.45,0.999-0.999c0-0.548-0.451-0.999-0.999-0.999
	c-0.005,0-0.01,0-0.014,0H265.564z M238.298,484.53c-0.26,0.008-0.505,0.116-0.686,0.303l-7.924,7.925
	c-0.196,0.189-0.308,0.449-0.308,0.721c0,0.547,0.451,0.999,1,0.999c0.272,0,0.531-0.111,0.72-0.308l7.924-7.925
	c0.193-0.188,0.303-0.446,0.303-0.716c0-0.548-0.451-0.999-0.999-0.999C238.318,484.53,238.308,484.53,238.298,484.53
	L238.298,484.53z M260.878,484.53c-0.547,0-0.998,0.451-0.998,0.999c0,0.27,0.109,0.528,0.302,0.716l7.926,7.925
	c0.188,0.197,0.448,0.308,0.72,0.308c0.548,0,0.999-0.451,0.999-0.999c0-0.272-0.111-0.532-0.307-0.721l-7.924-7.925
	C261.408,484.639,261.148,484.53,260.878,484.53L260.878,484.53z M249.589,489.202c-0.548,0.007-0.993,0.464-0.986,1.012v11.207
	c0,0.005,0,0.01,0,0.014c0,0.548,0.451,0.999,0.999,0.999c0.548,0,0.999-0.45,0.999-0.999c0-0.004,0-0.009,0-0.014v-11.207
	c0-0.004,0-0.009,0-0.013c0-0.548-0.45-0.999-0.999-0.999C249.598,489.202,249.593,489.202,249.589,489.202z"></path>
</svg>