<?xml version="1.0" standalone="no"?>
<svg version="1.1" id="Layer_1" xmlns="http://www.w3.org/2000/svg" xmlns:xlink="http://www.w3.org/1999/xlink" x="0px" y="0px" width="595.28px" height="595.28px" viewBox="0 0 595.28 595.28" enable-background="new 0 0 595.28 595.28" xml:space="preserve">
<path id="color_x5F_6" fill="#D4D4CE" d="M184.992,332.65c0.363,2.588,0.764,5.068,1.201,7.349h-18.521
	c2.727-5.265,5.969-11.146,8.882-16.235h7.354c0.223,2.1,0.466,4.213,0.733,6.293C184.754,330.93,184.872,331.795,184.992,332.65z
	 M226.249,323.764c-1.549,2.047-3.256,4.163-5.056,6.293c-0.73,0.864-1.475,1.729-2.229,2.594c-2.188,2.509-4.446,4.99-6.649,7.349
	h246.187c0.453-5.778,1.186-11.272,2.023-16.235H226.249z M500.678,217.97h0.266v-17.975c-0.087,0.159-0.174,0.318-0.266,0.474
	V217.97z M115.76,323.764V116.969h371.691v49.997c3.23,0.266,6.363,0.705,8.65,1.069c1.699-0.079,3.331,0.06,4.842,0.738v-68.039
	H102.266v239.266h9.389c1.929-6.051,3.647-11.429,5.191-16.235H115.76z"></path>
<path id="color_x5F_5" fill="#FFD2BB" d="M519.64,323.764c-0.231-2.783-0.695-5.623-1.319-8.435
	c0.768-5.76,2.349-12.313,2.349-12.313s1.094-19.314,3.075-23.271c0,0,0.021,0.035,0.053,0.088c1.948-1.813,4.641-2.973,8.082-2.973
	c2.059,0,3.844,0.421,5.368,1.142c-0.012-0.664-0.048-1.362-0.095-2.074c0.468,0.374,0.795,0.807,0.892,1.294
	C539.669,285.516,527.8,320.437,519.64,323.764z M483.678,378.056l-24.048,0.099c1.154,10.056,2.509,16.74,2.509,16.74l0.569,0.62
	l11.859,83.332l0.298-0.176l1.584,6.446c1.781-9.767,7.271-40.682,8.158-55.402c0.626-10.4-1.139-17.788-3.9-23.057
	C481.308,399.755,482.318,389.072,483.678,378.056z M519.868,377.907l-28.084,0.115c3.917,11.122,7.812,18.45,7.812,18.45
	l1.608,1.047l18.806,83.468l3.92-2.316l0.409,1.665c2.071-14.297,5.222-37.881,5.407-50.226c0.176-11.691-2.765-19.342-6.82-24.362
	C522.115,399.373,520.876,388.998,519.868,377.907z M177.105,206.9c0.964-1.906,0.499-6.209-3.234-6.522s-6.54-0.159-7.504,1.746
	c-0.615,1.215-3.56,7.525-4.646,12.02c1.446,0.779,3.481,1.857,5.141,2.71C171.176,213.85,176.42,208.255,177.105,206.9z
	 M238.288,297.305c-0.442,0.357-0.882,0.706-1.311,1.027c-0.28-0.138-0.555-0.197-0.818-0.151c-0.132,0.024-2.052-0.065-2.196-0.02
	c-0.742,0.24-6.828,1.249-6.809,7.347c-0.055,0.062-0.104,0.121-0.158,0.183c-0.092-0.036-0.17-0.067-0.226-0.091
	c-0.228-0.1-1.106,0.365-2.429,1.216c0.426,0.665,1.673,2.593,2.083,3.24c1.477,2.327,2.992,4.601,4.611,6.805
	c-0.173,0.249-0.339,0.497-0.524,0.751c0.32-0.439,0.622-0.871,0.907-1.298c0.328-0.492,0.636-0.977,0.906-1.446
	c0.119-0.004,0.239-0.021,0.361-0.027c0.146,0.028,0.303,0.055,0.453,0.082c0.097,0.018,0.186,0.037,0.287,0.053
	c0.676,0.103,1.458,0.083,2.308-0.029c2.48-0.327,6.199-3.477,7.075-6.127c1.071-3.241-2.559-7.183-2.763-7.407
	c-0.291-0.316-1.306-0.577-0.997-1.011c0.63-0.888,2.225-1.979,3.612-3.096c1.574-1.267,2.881-2.566,2.192-3.642
	C244.037,292.387,241.105,295.032,238.288,297.305z M452.666,260.339c-1.35-1.129-2.982-2.377-4.745-3.659
	c-3.553-2.583-7.603-5.289-10.815-7.379c-3.342-2.175-5.774-3.683-5.774-3.683s-8.567-6.382-14.563-8.928
	c-1.149-2.366-2.187-4.519-2.235-4.497c-0.057,0.023-0.135,0.054-0.227,0.09c-0.053-0.063-0.103-0.122-0.157-0.184
	c0.027-3.308-1.75-5.121-3.5-6.132c-1.476-0.853-2.932-1.138-3.271-1.249c-0.145-0.047-2.064,0.033-2.197,0.008
	c-0.263-0.047-0.537,0.011-0.818,0.147c-3.143-2.388-6.899-6.182-7.852-4.71c-1.1,1.698,2.794,3.987,4.849,5.804
	c0.384,0.339,0.711,0.665,0.921,0.964c0.307,0.436-0.71,0.69-1.002,1.006c-0.205,0.223-3.855,4.146-2.801,7.393
	c0.862,2.654,4.564,5.823,7.044,6.163c0.849,0.116,1.631,0.14,2.308,0.041c0.102-0.015,0.19-0.034,0.287-0.052
	c0.006-0.001,2.203,0.775,4.16,1.466c5.57,13.369,28.654,35.495,37.593,38.309c2.013,0.631,4.865-1.653,6.575-5.115
	c1.775-3.596,2.318-8.463-0.606-12.666C455.266,262.653,454.133,261.566,452.666,260.339z M182.117,267.93
	c-1.615-0.237-3.192-0.797-4.627-1.726c-0.203-0.131-0.386-0.271-0.575-0.407c-2.382-1.714-3.766-3.823-4.458-6.009l-2.995,2.568
	l-4.017,3.44l-2.082,1.783c1.862,0.971,3.369,1.881,4.174,2.401l6.613,4.282l3.832,2.481c0.563,0.365,2.099,1.204,4.135,2.35
	c0.132,0.074,0.271,0.151,0.405,0.229l1.464-5.06l0.697-2.409l0.028-0.096l1.106-3.831c-0.367,0.053-0.736,0.09-1.106,0.112
	C183.846,268.091,182.978,268.057,182.117,267.93z M173.762,240.69c-0.76,0.494-1.248,1.246-1.435,2.065
	c-0.193,0.851-0.06,1.775,0.454,2.564l1.652,2.538l3.305-5.103l0.678-1.047l-0.025-0.038
	C177.383,240.121,175.311,239.682,173.762,240.69z M199.903,255.599l-0.556-0.087l-1.94,2.998l-2.042,3.154l3.503,0.548
	c0.839,0.132,3.607-1.402,3.823-2.788c0.049-0.312,0.039-0.616,0.003-0.914C202.522,257.059,201.419,255.837,199.903,255.599z
	 M500.943,227.013l-13.492,24.781l-3.656,6.715l3.656-6.716l8.784-16.134h-8.784h-2.274h-6.976l-4.324-17.668l-0.006-0.022h10.924
	v-9.804h-3.646c-8.681,0-9.69-7.029-9.69-15.711v-7.35c0.434-1.149,1.053-2.402,1.938-3.6c0.663-0.897,1.469-1.762,2.463-2.52
	c3.158-2.407,8.249-4.288,11.592-5.353c1.971-0.627,3.334-0.972,3.334-0.972l0.043-0.02c-0.955,2.697-1.822,6.697,0.273,8.986
	c3.37,3.68,3.447,6.199,3.447,7.709c0,1.258,0.282,2.965,0.377,3.504c0.02,0.107,0.033,0.186,0.033,0.186s0.019-0.077,0.046-0.186
	c0.276-1.105,1.896-7.235,3.544-6.283c1.368,0.788,2.053,3.525,2.395,6.27c0.408,3.275,0.326,6.561,0.326,6.561
	c-0.102,0.207-0.216,0.407-0.326,0.608c-0.087,0.159-0.174,0.318-0.266,0.474v17.501h0.266h4.924l-0.169,0.31L500.943,227.013z
	 M476.796,187.054c-0.088-0.373-0.266-0.667-0.499-0.815c-0.087-0.055-0.178-0.097-0.277-0.107
	c-0.547-0.059-1.053,0.611-1.137,1.492c-0.086,0.887,0.289,1.65,0.826,1.709c0.547,0.059,1.049-0.613,1.139-1.494
	C476.875,187.557,476.853,187.292,476.796,187.054z M488.154,187.838c0.081-0.813-0.233-1.518-0.703-1.672
	c-0.041-0.013-0.082-0.03-0.125-0.035c-0.547-0.059-1.053,0.611-1.137,1.492c-0.086,0.887,0.289,1.65,0.826,1.709
	c0.151,0.016,0.299-0.028,0.436-0.113C487.809,188.997,488.09,188.475,488.154,187.838z"></path>
<path id="color_x5F_4" fill="#00CEC9" d="M172.781,245.32l1.652,2.538l-0.499,0.771c-0.269,0.415-0.525,0.893-0.762,1.413h-9.587
	c0.435-2.368,0.885-4.829,1.334-7.287h7.407C172.134,243.607,172.268,244.531,172.781,245.32z M246.652,242.756H204.98
	c0.137,2.344-0.422,4.712-1.766,6.787l-0.324,0.5h43.762c2.013,0,3.645-1.631,3.645-3.644S248.665,242.756,246.652,242.756z
	 M246.652,258.51h-43.958c0.036,0.298,0.046,0.603-0.003,0.914c-0.216,1.386-2.984,2.92-3.823,2.788l-3.503-0.548l-0.385,0.593
	c-0.759,1.172-1.74,2.187-2.857,3.034c-0.242,0.184-0.505,0.339-0.759,0.506h55.288c2.013,0,3.645-1.631,3.645-3.644
	S248.665,258.51,246.652,258.51z M162.024,258.51c-0.569,3.069-1.048,5.618-1.371,7.287h4.792l4.017-3.44l2.995-2.568
	c-0.134-0.424-0.235-0.851-0.32-1.278H162.024z M246.652,274.264h-62.666l-1.464,5.06c0.687,0.388,1.419,0.804,2.189,1.248
	c0.315,0.183,0.636,0.37,0.962,0.56l-0.087,0.134c0.147,0.094,0.296,0.19,0.445,0.286h60.62c2.013,0,3.645-1.631,3.645-3.644
	S248.665,274.264,246.652,274.264z M246.652,290.018h-48.846c2.57,2.21,4.269,4.181,4.045,5.395l0.1,1.893h36.337
	c2.817-2.272,5.749-4.918,6.565-3.642c0.688,1.075-0.618,2.375-2.192,3.642h3.991c2.013,0,3.645-1.631,3.645-3.644
	S248.665,290.018,246.652,290.018z M356.976,404.138c8.82-2.642,29.397-19.326,23.5-31.358
	c-5.376-10.963-14.268-3.434-32.829,21.938c-4.915,6.715-8.792,6.955-8.792,6.955s7.047-9.961,2.034-18.333
	c-0.812-1.357-1.678-1.621-2.561-1.124c-0.863,1.711-1.974,3.352-3.318,4.886c-1.252,2.81-2.432,6.403-3.422,9.816
	c-1.214-0.035-2.259,0.218-3.154,0.673c-0.664-1.09-1.666-2.012-3.127-2.608c0.441-3.19,0.78-6.499,0.805-9.257
	c-0.589-1.953-0.919-3.906-0.994-5.822c-0.596-0.819-1.495-0.938-2.796-0.039c-8.033,5.538-5.754,17.524-5.754,17.524
	s-3.429-1.827-5.115-9.975c-1.684-8.147-2.886-32.703-13.245-24.202c-10.357,8.502-6.08,22.842,0.849,28.904
	c6.927,6.066-9.861-7.425-12.045,0.354c-1.842,6.564,10.172,17.065,15.119,20.055c-5.444-0.688-14.158-0.996-8.106,5.346
	c6.337,6.641,16.32,8.325,20.925,8.754h12.157h6.84h20.39c-0.106-2.149-5.026-4.07-8.622-5.19
	c5.742-0.669,21.028-5.239,22.076-11.978C369.028,401.473,348.155,406.785,356.976,404.138z M339.479,183.494h-10.615v34.476h10.615
	V183.494z M361.244,157.018h-10.615v60.952h10.615V157.018z"></path>
<path id="color_x5F_3" fill="#E84393" d="M354.335,426.623h3.966l-7.827,62.579h-39.56l-12.615-62.579h16.649h12.157h6.84H354.335z
	 M215.713,150.736c-15.602-17.476-42.415-18.994-59.891-3.393s-18.994,42.415-3.393,59.891c2.207,2.473,4.645,4.614,7.243,6.444
	c0.101-0.169,0.201-0.337,0.298-0.494c0.241,0.141,0.894,0.498,1.751,0.959c1.085-4.495,4.031-10.805,4.646-12.02
	c0.964-1.905,3.771-2.06,7.504-1.746s4.198,4.616,3.234,6.522c-0.685,1.354-5.929,6.949-10.243,9.954
	c1.121,0.577,2.063,1.046,2.541,1.254c0.016-0.088,0.025-0.138,0.025-0.138c0.452,0.303,0.379,0.314-0.025,0.138
	c-0.023,0.126-0.062,0.341-0.115,0.635c14.26,5.289,30.897,2.719,43.033-8.116l-28.249-31.642l42.063-5.442
	C225.083,165.345,221.633,157.367,215.713,150.736z M406.5,271.174c0,0-12.372-11.27-27.484-3.111s-15.813-8.809-31.962-16.074
	s-23.649,7.901-32.648,11.567s-27.073-8.779-27.073-8.779v42.055h119.443L406.5,271.174z M295.947,149.02h-10.615v68.95h10.615
	V149.02z M317.713,168.169h-10.615v49.801h10.615V168.169z"></path>
<path id="color_x5F_2" fill="#FBC02D" d="M463.838,263.524c0.18,0.416,0.355,0.848,0.533,1.274
	c-0.336-0.062-0.684-0.136-1.037-0.215C463.502,264.231,463.672,263.884,463.838,263.524z M192.331,182.41l28.25,31.643
	c10.843-9.682,15.537-23.68,13.815-37.085L192.331,182.41z M372.395,217.97h10.615v-17.237h-10.615V217.97z M394.16,217.97h10.615
	v-49.801H394.16V217.97z M501.27,199.387c1.029-2.09,2.691-1.973,4.121-6.682c3-9.873,0.5-18.373,0.5-18.373
	c-1.402-3.073-3.084-4.724-4.947-5.56c-1.511-0.678-3.143-0.816-4.842-0.738c-2.287-0.365-5.42-0.803-8.65-1.069
	c-5.512-0.454-11.294-0.402-13.581,1.39c-9.163,7.18-5.421,16.963-3.922,20.021c-1.428,3.528-4.11,7.473-9.069,11.01
	c-7.012,5.002-29.846,8.749-33.333,26.581c-0.995,5.089-1.072,13.346,9.56,23.333c3.213,2.09,7.263,4.796,10.815,7.379
	c0.673-4.166,1.303-7.192,1.303-7.192s4.531-19.124,7.61-24.026c3.664-5.828,10.475-8.251,14.6-7.253l0.025-0.239l2.418,0.022
	l-0.006-0.022h10.924v-9.804h-3.646c-8.681,0-9.69-7.029-9.69-15.711v-7.35c0.434-1.149,1.053-2.402,1.938-3.6
	c0.663-0.897,1.469-1.762,2.463-2.52c3.158-2.407,8.249-4.288,11.592-5.353c1.971-0.627,3.334-0.972,3.334-0.972l0.043-0.02
	c-0.955,2.697-1.822,6.697,0.273,8.986c3.37,3.68,3.447,6.199,3.447,7.709c0,1.258,0.282,2.965,0.377,3.504
	c0.02,0.107,0.033,0.186,0.033,0.186s0.019-0.077,0.046-0.186c0.276-1.105,1.896-7.235,3.544-6.283
	c1.368,0.788,2.053,3.525,2.395,6.27C501.352,196.101,501.27,199.387,501.27,199.387z M199.082,232.86
	c-5.812-3.765-13.385-2.396-16.914,3.054l-3.752,5.795l-0.678,1.047l-3.305,5.103l-0.499,0.771
	c-0.269,0.415-0.525,0.893-0.762,1.413c-1.022,2.246-1.649,5.366-1.036,8.467c0.085,0.427,0.187,0.854,0.32,1.278
	c0.692,2.186,2.076,4.295,4.458,6.009c0.189,0.137,0.372,0.276,0.575,0.407c1.435,0.929,3.012,1.488,4.627,1.726
	c0.86,0.127,1.729,0.161,2.595,0.11c0.37-0.022,0.739-0.06,1.106-0.112c0.084-0.012,0.165-0.029,0.248-0.042
	c1.896-0.308,3.707-1.043,5.298-2.089c0.254-0.167,0.517-0.322,0.759-0.506c1.117-0.848,2.099-1.862,2.857-3.034l0.385-0.593
	l2.042-3.154l1.94-2.998l0.478-0.736l0.001,0.001l3.064-4.733l0.324-0.5c1.344-2.075,1.903-4.443,1.766-6.787
	C204.756,238.942,202.681,235.19,199.082,232.86z M485.177,235.66h-6.976l2.961,12.094l2.633,10.756l3.656-6.716l8.784-16.134
	h-8.784H485.177z M474.865,478.671l-0.298,0.176l-22.688,13.404h26.322l-1.752-7.134L474.865,478.671z M524.339,480.336
	l-0.409-1.665l-3.92,2.316l-19.066,11.264h21.604h4.719L524.339,480.336z"></path>
<path id="color_x5F_1" fill="#0984E3" d="M486.189,187.623c0.084-0.881,0.59-1.551,1.137-1.492c0.043,0.005,0.084,0.021,0.125,0.035
	c0.47,0.155,0.784,0.859,0.703,1.672c-0.064,0.637-0.346,1.159-0.703,1.381c-0.137,0.085-0.284,0.129-0.436,0.113
	C486.479,189.273,486.104,188.51,486.189,187.623z M475.709,189.332c0.547,0.059,1.049-0.613,1.139-1.494
	c0.027-0.281,0.005-0.546-0.052-0.784c-0.088-0.373-0.266-0.667-0.499-0.815c-0.087-0.055-0.178-0.097-0.277-0.107
	c-0.547-0.059-1.053,0.611-1.137,1.492C474.797,188.51,475.172,189.273,475.709,189.332z M537.152,275.927
	c-1.064-16.313-10.955-44.555-16.285-51.351c-2.082-3.773-5.513-6.244-9.399-6.244l-5.77-0.052l-4.755,8.733l-13.492,24.781
	l-3.656,6.715l-2.633-10.756l-2.961-12.094l-4.324-17.668l-2.418-0.022l-0.025,0.239c-4.125-0.998-10.936,1.425-14.6,7.253
	c-3.079,4.902-7.61,24.026-7.61,24.026s-0.63,3.026-1.303,7.192c1.763,1.282,3.396,2.53,4.745,3.659
	c1.467,1.228,2.6,2.314,3.173,3.137c2.925,4.203,2.382,9.07,0.606,12.666c2.332-2.89,4.682-6.927,6.889-11.558
	c0.168-0.353,0.338-0.7,0.504-1.06c0.18,0.416,0.355,0.848,0.533,1.274c2.329,5.594,4.418,12.012,4.508,17.252
	c0.071,4.151-1.32,11.447-2.766,17.839c-0.018,0.055-3.218,9.847-5.588,23.874c-0.838,4.963-1.57,10.457-2.023,16.235
	c-0.314,4.021-0.493,8.18-0.475,12.396c0.011,2.465,0.07,23.392,0.163,25.766l1.439-0.006l24.048-0.099l8.106-0.033l28.084-0.115
	c-0.537-10.52-1.854-38.287-0.687-43.855c0.671-3.196,0.758-6.693,0.458-10.288c-0.231-2.783-0.695-5.623-1.319-8.435
	c-2.238-10.086-6.462-19.762-8.873-24.802c-1.553-5.369-2.694-10.474-2.58-13.607c0.187-5.119,3.305-14.182,6.748-22.747
	c4.391,11.787,10.129,25.571,10.129,25.571s0.021,0.035,0.053,0.088c1.948-1.813,4.641-2.973,8.082-2.973
	c2.059,0,3.844,0.421,5.368,1.142C537.235,277.337,537.199,276.639,537.152,275.927z M214.397,445.844
	c3.146-15.15,6.99-34.034,9.669-48.428c0.164-0.883,0.323-1.747,0.479-2.594c0.784-4.281,1.443-8.076,1.926-11.149
	c0.146-0.935,0.275-1.801,0.389-2.595c0.496-3.524,0.641-5.6,0.287-5.6c0-8.444-23.183-14.82-42.435-18.192
	c-0.874-0.153-1.739-0.3-2.595-0.44c-8.926-1.467-16.693-2.251-20.42-2.251c-0.807-0.712,2.043-7.005,5.975-14.596
	c2.727-5.265,5.969-11.146,8.882-16.235c2.151-3.758,4.122-7.085,5.563-9.396c0.287-0.459,0.557-0.886,0.799-1.262
	c0.148,1.841,0.316,3.79,0.506,5.801c0.149,1.591,0.313,3.22,0.487,4.856c0.223,2.1,0.466,4.213,0.733,6.293
	c0.112,0.873,0.23,1.738,0.351,2.594c0.363,2.588,0.764,5.068,1.201,7.349c0.661,3.448,1.407,6.424,2.248,8.517
	c2.749,6.843,7.006,11.124,10.279,5.348c2.729-2.656,7.979-7.852,13.595-13.864c2.204-2.358,4.462-4.84,6.649-7.349
	c0.754-0.864,1.498-1.729,2.229-2.594c1.799-2.13,3.507-4.246,5.056-6.293c1.271-1.679,2.437-3.312,3.442-4.856
	c0.285-0.438,0.561-0.871,0.819-1.296c0.186-0.254,0.352-0.502,0.524-0.751c-1.619-2.204-3.135-4.478-4.611-6.805
	c-0.41-0.647-1.656-2.575-2.083-3.24c0,0-0.001-0.001-0.001-0.002c-0.059,0.038-0.132,0.088-0.192,0.128
	c-0.276,0.18-0.564,0.369-0.875,0.579c-0.076,0.051-0.153,0.104-0.23,0.156c-0.344,0.235-0.706,0.484-1.086,0.751
	c-0.058,0.04-0.111,0.077-0.169,0.118c-0.439,0.309-0.899,0.636-1.38,0.981c-0.083,0.061-0.172,0.125-0.257,0.186
	c-0.394,0.284-0.799,0.578-1.215,0.883c-0.143,0.105-0.285,0.209-0.43,0.316c-0.426,0.313-0.861,0.634-1.306,0.964
	c-0.093,0.068-0.182,0.134-0.275,0.203c-0.526,0.392-1.065,0.795-1.612,1.206c-0.164,0.123-0.33,0.248-0.496,0.373
	c-0.411,0.309-0.825,0.622-1.244,0.939c-0.18,0.136-0.358,0.271-0.539,0.408c-0.568,0.432-1.14,0.866-1.717,1.308
	c-1.118,0.854-2.248,1.724-3.374,2.594c-1.798,1.389-3.578,2.772-5.278,4.104c0.027-1.464,0.044-2.848,0.057-4.104
	c0.008-0.944,0.014-1.81,0.018-2.594c0.009-2.545-0.005-4.151-0.005-4.151l-0.782-14.857l-0.1-1.893
	c0.224-1.214-1.475-3.185-4.045-5.395c-3.239-2.786-7.861-5.951-11.774-8.467c-0.149-0.096-0.298-0.192-0.445-0.286l0.087-0.134
	c-0.326-0.189-0.646-0.377-0.962-0.56c-0.771-0.444-1.503-0.86-2.189-1.248c-0.135-0.077-0.273-0.154-0.405-0.229
	c-2.036-1.146-3.571-1.984-4.135-2.35l-3.832-2.481l-6.613-4.282c-0.805-0.521-2.312-1.431-4.174-2.401
	c-0.86-0.447-1.811-0.9-2.795-1.343c0.027-0.139,0.056-0.286,0.085-0.44c0.323-1.669,0.801-4.218,1.371-7.287
	c0.471-2.535,1.003-5.424,1.562-8.467c0.435-2.368,0.885-4.829,1.334-7.287c1.935-10.592,3.845-21.131,4.367-24.013
	c0.053-0.293,0.092-0.508,0.115-0.635c-0.477-0.208-1.42-0.677-2.541-1.254c-1.66-0.853-3.694-1.931-5.141-2.71
	c-0.857-0.461-1.51-0.819-1.751-0.959c-0.097,0.157-0.197,0.325-0.298,0.494c-8.125,13.663-26.39,65.183-26.39,65.183
	c-2.723,4.874-8.527,21.104-13.477,35.833l-0.029-0.019c-0.342,1.055-0.697,2.15-1.061,3.277c-0.004,0.012-0.008,0.022-0.012,0.034
	l0.001-0.002c-0.59,1.826-1.21,3.754-1.86,5.778c-1.543,4.807-3.262,10.185-5.191,16.235c-1.234,3.87-2.553,8.014-3.967,12.454
	c-0.161,0.506-0.32,1.007-0.484,1.521c-0.041,5.718,1.231,59.642,7.572,90.602c-14.847,7.619-34.172,16.021-45.183,20.686H57.773
	v26.818l12.147-23.89l64.94-5.068c0,0,3.76-22.654,7.013-41.095c2.161-12.251,4.099-25.283,5.546-36.457
	c10.746,0.17,27.908,0.354,43.566-0.481c-0.033,0.205-0.064,0.412-0.065,0.626c-0.011,1.427,0.462,4.677,1.255,9.107
	c0.148,0.825,0.307,1.69,0.477,2.594c2.361,12.599,6.709,32.406,10.318,48.428c0.199,0.876,0.395,1.742,0.587,2.594
	c3.01,13.314,5.368,23.415,5.368,23.415s2.125-9.934,4.933-23.415C214.036,447.586,214.216,446.723,214.397,445.844z
	 M169.428,217.97c0,0-0.009,0.05-0.025,0.138C169.807,218.284,169.879,218.272,169.428,217.97z M208.926,485.49h26.818
	l-26.818-13.638V485.49z"></path>
</svg>