<?xml version="1.0" encoding="UTF-8" standalone="no" ?>
<!DOCTYPE svg PUBLIC "-//W3C//DTD SVG 1.1//EN" "http://www.w3.org/Graphics/SVG/1.1/DTD/svg11.dtd">
<svg xmlns="http://www.w3.org/2000/svg" xmlns:xlink="http://www.w3.org/1999/xlink" version="1.1" viewBox="0 100 570 310" xml:space="preserve">
<desc>Created with Fabric.js 3.6.6</desc>
<defs>
</defs>
<g transform="matrix(3.09 0 0 3.19 193.14 203.88)"  >
<path style="stroke: none; stroke-width: 1; stroke-dasharray: none; stroke-linecap: butt; stroke-dashoffset: 0; stroke-linejoin: miter; stroke-miterlimit: 4; fill: rgb(163,96,65); fill-rule: nonzero; opacity: 1;"  transform=" translate(-12.85, -32.11)" d="m 8.0156 41.695 c 0.98438 -0.19531 1.9844 -0.5 2.7109 -1.1953 c 0.57422 -0.5625 0.91016 -1.3164 1.1523 -2.0742 c 0.12109 -0.36328 0.21094 -0.72656 0.30469 -1.1055 c 0.46875 0.12109 0.95312 0.19531 1.4375 0.24219 c 0.63672 0.0625 1.2734 0.0625 1.9102 -0.0625 c 0.63672 -0.12109 1.3047 -0.37891 1.8047 -0.87891 c 0.25781 -0.24219 0.45312 -0.54688 0.57422 -0.86328 c 0.13672 -0.31641 0.18359 -0.62109 0.21094 -0.92578 c 0.03125 -0.30469 0.015625 -0.58984 -0.03125 -0.86328 c -0.03125 -0.27344 -0.089844 -0.53125 -0.15234 -0.78906 c -0.13672 -0.5 -0.31641 -0.9375 -0.51562 -1.3477 c -0.03125 -0.046875 -0.046875 -0.089843 -0.074219 -0.15234 c 0.78906 -0.24219 1.5469 -0.54688 2.2734 -0.9375 c 0.71094 -0.37891 1.3945 -0.84766 1.832 -1.5156 c 0.5625 -0.83203 0.66797 -1.8789 0.68359 -2.8789 c 0.015625 -0.71094 -0.015625 -1.4375 -0.24219 -2.1211 c -0.22656 -0.68359 -0.66797 -1.3047 -1.3047 -1.6211 c -0.86328 -0.42578 -1.9258 -0.22656 -2.7266 0.30469 c -0.80469 0.53125 -1.3789 1.332 -1.8945 2.1367 c -0.5625 0.87891 -1.0625 1.8633 -1.5156 2.8789 c -0.18359 -0.24219 -0.51562 -0.57422 -1.1523 -0.89453 c -0.37891 -0.16797 -0.84766 -0.33203 -1.4531 -0.39453 c -0.58984 -0.046875 -1.3164 0.03125 -2.0625 0.33203 c -0.015625 0 -0.03125 0.015625 -0.046875 0.015625 c -0.51562 -0.60547 -1.3047 -1 -2.168 -1 c -1.5742 0 -2.8477 1.2734 -2.8477 2.832 c 0 1.2109 0.75781 2.2422 1.8164 2.6523 c 0 0.13672 -0.015624 0.25781 0 0.39453 c 0.015626 0.66797 0.19531 1.332 0.5 1.9375 c 0.089844 0.19531 0.21094 0.37891 0.33203 0.54688 c -0.63672 0.46875 -1.2422 0.95312 -1.7891 1.4531 c -0.71094 0.65234 -1.3945 1.3633 -1.7578 2.2422 c -0.37891 0.87891 -0.39453 1.9688 0.19531 2.7422 c 0.42578 0.57422 1.1211 0.89453 1.832 0.98438 c 0.75391 0.16797 1.4648 0.0625 2.1641 -0.074219 z m 3.8164 -13.742 c 0.42578 -0.015625 0.78906 0.0625 1.0898 0.12109 c 0.60547 0.16797 0.98438 0.36328 1.2422 0.4375 c 0.25781 0.089843 0.39453 0.074219 0.45313 -0.015625 c -0.074219 0.089844 0.42578 0.63672 1.0469 1.7109 c 0.31641 0.53125 0.65234 1.1953 0.9375 1.9531 c 0.13672 0.37891 0.27344 0.80469 0.34766 1.2266 c 0.046875 0.21094 0.074219 0.4375 0.074219 0.65234 c 0.015624 0.21094 0 0.4375 -0.03125 0.65234 c -0.0625 0.41016 -0.21094 0.75781 -0.48438 1 c -0.015624 -0.13672 -0.10547 -0.33203 -0.21094 -0.53125 c -0.18359 -0.31641 -0.42578 -0.68359 -0.66797 -0.96875 c -0.45312 -0.57422 -0.72656 -0.54688 -1 -0.36328 c -0.13672 0.089844 -0.24219 0.19531 -0.24219 0.36328 c -0.015625 0.16797 0.074219 0.41016 0.33203 0.72656 c 0.25781 0.31641 0.63672 0.63672 0.98438 0.83203 c 0.16797 0.089844 0.31641 0.15234 0.45312 0.18359 c -0.24219 0.13672 -0.54688 0.22656 -0.87891 0.25781 c -0.48438 0.074219 -1 0.046875 -1.5312 -0.015625 c -0.53125 -0.074219 -1.0625 -0.19531 -1.5898 -0.36328 c -0.53125 -0.16797 -1.0469 -0.37891 -1.5312 -0.63672 c -0.32031 -0.17578 -0.67188 -0.38672 -0.97266 -0.62891 c 0.15234 -0.30469 0.33203 -0.81641 0.62109 -1.3945 c 0.22656 -0.4375 0.51562 -0.92578 0.86328 -1.3477 c 0.34766 -0.4375 0.74219 -0.81641 1.1367 -1.1523 c 0.80469 -0.63672 1.332 -0.91016 1.6055 -1.168 c 0.27344 -0.24219 0.31641 -0.45312 0.25781 -0.66797 c -0.0625 -0.19531 -0.19531 -0.37891 -0.63672 -0.37891 c -0.21094 0 -0.51562 0.0625 -0.87891 0.19531 c -0.37891 0.15234 -0.83203 0.39453 -1.332 0.80469 s -0.98437 0.95312 -1.332 1.5469 c -0.36328 0.58984 -0.60547 1.2266 -0.71094 1.8047 c -0.10547 0.48438 -0.12109 0.9375 -0.089844 1.2734 c -0.27344 -0.28906 -0.5 -0.58984 -0.65234 -0.92578 c -0.21094 -0.42578 -0.31641 -0.86328 -0.33203 -1.3047 c -0.03125 -0.89453 0.31641 -1.6836 0.75781 -2.2734 c 0.45312 -0.58984 0.98437 -1.0156 1.5 -1.2578 c 0.49609 -0.22656 0.98047 -0.33203 1.4023 -0.34766 z" stroke-linecap="round" />
</g>
<g transform="matrix(3.09 0 0 3.19 241.29 364.24)"  >
<path style="stroke: none; stroke-width: 1; stroke-dasharray: none; stroke-linecap: butt; stroke-dashoffset: 0; stroke-linejoin: miter; stroke-miterlimit: 4; fill: rgb(194,127,95); fill-rule: nonzero; opacity: 1;"  transform=" translate(-28.45, -82.35)" d="m 30.348 81.926 c -2.8477 -0.75781 -6.7891 -1.4531 -6.8945 -1.0469 c -0.10547 0.42578 3.6523 1.7891 6.5 2.5625 c 2.8477 0.75781 3.3789 0.54688 3.4844 0.12109 c 0.10938 -0.41016 -0.24219 -0.86719 -3.0898 -1.6367 z" stroke-linecap="round" />
</g>
<g transform="matrix(3.09 0 0 3.19 274.08 381.68)"  >
<path style="stroke: none; stroke-width: 1; stroke-dasharray: none; stroke-linecap: butt; stroke-dashoffset: 0; stroke-linejoin: miter; stroke-miterlimit: 4; fill: rgb(194,127,95); fill-rule: nonzero; opacity: 1;"  transform=" translate(-39.08, -87.82)" d="m 40.074 87.137 c -1.3633 -0.34766 -3.2891 -0.48438 -3.3945 -0.0625 c -0.10547 0.42578 1.6523 1.2266 3.0156 1.5898 c 1.3633 0.34766 1.6523 0.0625 1.7578 -0.34766 c 0.10938 -0.4375 -0.015625 -0.83203 -1.3789 -1.1797 z" stroke-linecap="round" />
</g>
<g transform="matrix(3.09 0 0 3.19 333.25 378.89)"  >
<path style="stroke: none; stroke-width: 1; stroke-dasharray: none; stroke-linecap: butt; stroke-dashoffset: 0; stroke-linejoin: miter; stroke-miterlimit: 4; fill: rgb(194,127,95); fill-rule: nonzero; opacity: 1;"  transform=" translate(-58.26, -86.94)" d="m 59.727 85.668 c -2.9258 1.0898 -6.7734 2.8789 -6.6211 3.2891 c 0.15234 0.41016 4.2422 -0.74219 7.168 -1.8164 c 2.9258 -1.0898 3.2578 -1.5742 3.1055 -1.9844 c -0.13672 -0.41406 -0.71094 -0.58203 -3.6523 0.51172 z" stroke-linecap="round" />
</g>
<g transform="matrix(3.09 0 0 3.19 320.84 353.4)"  >
<path style="stroke: none; stroke-width: 1; stroke-dasharray: none; stroke-linecap: butt; stroke-dashoffset: 0; stroke-linejoin: miter; stroke-miterlimit: 4; fill: rgb(194,127,95); fill-rule: nonzero; opacity: 1;"  transform=" translate(-54.24, -78.96)" d="m 54.047 79.727 c 0.69531 -0.21094 1.5625 -0.81641 1.4375 -1.2266 c -0.12109 -0.41016 -1.168 -0.46875 -1.8633 -0.27344 c -0.69531 0.21094 -0.71094 0.57422 -0.58984 0.98438 c 0.10547 0.42578 0.31641 0.72656 1.0156 0.51562 z" stroke-linecap="round" />
</g>
<g transform="matrix(3.09 0 0 3.19 369.35 170.2)"  >
<path style="stroke: none; stroke-width: 1; stroke-dasharray: none; stroke-linecap: butt; stroke-dashoffset: 0; stroke-linejoin: miter; stroke-miterlimit: 4; fill: rgb(194,127,95); fill-rule: nonzero; opacity: 1;"  transform=" translate(-69.96, -21.56)" d="m 73.031 21.379 c -0.31641 -0.25781 -0.75781 -0.54688 -1.3633 -0.80469 c -0.62109 -0.24219 -1.332 -0.41016 -2.0625 -0.41016 c -0.72656 0 -1.4258 0.15234 -1.9844 0.41016 c -0.5625 0.25781 -0.98438 0.58984 -1.2266 0.87891 c -0.24219 0.28906 -0.31641 0.5 -0.24219 0.58984 c 0.15234 0.16797 0.83203 -0.25781 1.8047 -0.39453 c 0.48438 -0.074219 1.0312 -0.089844 1.5742 -0.03125 c 0.54688 0.074218 1.0742 0.22656 1.5625 0.42578 c 0.48438 0.19531 0.84766 0.37891 1.1367 0.53125 c 0.28906 0.15234 0.51562 0.25781 0.69531 0.31641 c 0.36328 0.13672 0.5625 0.0625 0.71094 -0.089844 c 0.15234 -0.15234 0.24219 -0.36328 0.015625 -0.74219 c -0.12109 -0.19531 -0.32031 -0.42188 -0.62109 -0.67969 z" stroke-linecap="round" />
</g>
<g transform="matrix(3.09 0 0 3.19 364.34 179.8)"  >
<path style="stroke: none; stroke-width: 1; stroke-dasharray: none; stroke-linecap: butt; stroke-dashoffset: 0; stroke-linejoin: miter; stroke-miterlimit: 4; fill: rgb(194,127,95); fill-rule: nonzero; opacity: 1;"  transform=" translate(-68.33, -24.57)" d="m 69.438 24.547 c -0.015625 -0.77344 -0.53125 -1.3945 -1.1367 -1.3789 s -1.0898 0.65234 -1.0742 1.4258 c 0.015626 0.77344 0.53125 1.3945 1.1367 1.3789 c 0.60547 -0.003906 1.0898 -0.64062 1.0742 -1.4258 z" stroke-linecap="round" />
</g>
<g transform="matrix(3.09 0 0 3.19 338.92 178.93)"  >
<path style="stroke: none; stroke-width: 1; stroke-dasharray: none; stroke-linecap: butt; stroke-dashoffset: 0; stroke-linejoin: miter; stroke-miterlimit: 4; fill: rgb(194,127,95); fill-rule: nonzero; opacity: 1;"  transform=" translate(-60.09, -24.3)" d="m 60.062 22.895 c -0.60547 0.015625 -1.0898 0.65234 -1.0742 1.4258 c 0.015625 0.77344 0.53125 1.3945 1.1367 1.3789 s 1.0898 -0.65234 1.0742 -1.4258 c -0.015625 -0.77344 -0.53125 -1.3945 -1.1367 -1.3789 z" stroke-linecap="round" />
</g>
<g transform="matrix(3.09 0 0 3.19 379.56 178.96)"  >
<path style="stroke: none; stroke-width: 0; stroke-dasharray: none; stroke-linecap: butt; stroke-dashoffset: 0; stroke-linejoin: miter; stroke-miterlimit: 4; fill: rgb(163,96,65); fill-rule: nonzero; opacity: 1;" vector-effect="non-scaling-stroke"  transform=" translate(-73.77, -24.52)" d="m 95.59 38.742 c -0.66797 -0.46875 -1.5312 -0.54688 -2.3477 -0.62109 c -0.81641 -0.074219 -1.668 -0.18359 -2.332 -0.66797 c -1.1367 -0.84766 -1.2422 -2.4531 -1.5898 -3.8164 c -0.39453 -1.5 -1.2109 -2.8789 -2.332 -3.9531 c 0.03125 -0.03125 0.074219 -0.0625 0.10547 -0.089844 c 0.13672 -0.13672 0.27344 -0.25781 0.37891 -0.36328 c 0.10547 -0.10547 0.19531 -0.19531 0.27344 -0.30469 c 0.074218 -0.10547 0.12109 -0.19531 0.12109 -0.27344 c 0 -0.074219 -0.015626 -0.10547 -0.046876 -0.10547 c -0.0625 0 -0.10547 0.074219 -0.27344 0.15234 c -0.074219 0.03125 -0.19531 0.089843 -0.33203 0.15234 c -0.13672 0.0625 -0.28906 0.15234 -0.45312 0.24219 c -0.33203 0.18359 -0.74219 0.42578 -1.1836 0.69531 c -0.4375 0.27344 -0.92578 0.57422 -1.4531 0.84766 c -0.53125 0.27344 -1.0898 0.51562 -1.6836 0.63672 c -0.15234 0.03125 -0.28906 0.046874 -0.4375 0.0625 c -0.074218 0.015624 -0.13672 0 -0.19531 0.015624 h -0.18359 c -0.10547 -0.015624 -0.18359 -0.046874 -0.21094 -0.074218 c -0.046874 -0.03125 -0.0625 -0.046875 -0.074218 -0.10547 c -0.046875 -0.10547 -0.0625 -0.33203 0 -0.5 c 0.03125 -0.074219 0.074218 -0.18359 0.15234 -0.28906 c 0.074218 -0.10547 0.15234 -0.19531 0.25781 -0.30469 c 0.12109 -0.12109 0.16797 -0.16797 0.27344 -0.24219 c 0.10547 -0.074219 0.27344 -0.16797 0.4375 -0.28906 c 0.13672 -0.10547 0.28906 -0.19531 0.42578 -0.30469 c 0.13672 -0.089844 0.27344 -0.18359 0.39453 -0.27344 c 0.53125 -0.34766 1.0312 -0.65234 1.4688 -0.91016 c 0.42578 -0.24219 0.77344 -0.37891 1.0625 -0.42578 c 0.28906 -0.046874 0.51562 -0.03125 0.68359 0.03125 c 0.015625 0 0.0625 0.015626 0.074218 0.03125 c 0.015626 0.015626 0.03125 0.015626 0.046876 0.015626 c 0.03125 0 0.074218 0.03125 0.10547 0.0625 c 0.074219 0.046874 0.13672 0.10547 0.21094 0.16797 c 0.13672 0.12109 0.25781 0.24219 0.36328 0.34766 c 0.10547 0.10547 0.18359 0.13672 0.22656 0.16797 c 0.0625 0.03125 0.10547 0.046875 0.15234 0.0625 s 0.10547 0.046875 0.15234 0.0625 s 0.10547 0.015625 0.16797 -0.03125 s 0.10547 -0.13672 0.10547 -0.25781 c 0.015626 -0.12109 -0.03125 -0.28906 -0.0625 -0.42578 c -0.046874 -0.15234 -0.089843 -0.33203 -0.22656 -0.5625 c -0.0625 -0.12109 -0.15234 -0.24219 -0.27344 -0.37891 c -0.0625 -0.074219 -0.12109 -0.13672 -0.21094 -0.19531 c -0.046875 -0.03125 -0.089844 -0.0625 -0.13672 -0.10547 c -0.015625 -0.015625 -0.03125 -0.015625 -0.03125 -0.03125 c 1.3789 -2.7891 1.5156 -6.3047 0.84766 -9.332 c -1.6836 -7.6836 -5.3789 -9.1523 -8.0898 -9.5469 c -1.0312 -0.15234 -1.9844 -0.62109 -2.7109 -1.3633 c -1.0898 -1.1367 -3.2266 -2.7578 -7.0898 -3.7734 c -6.3789 -1.6836 -18.348 5.4258 -18.984 9.7891 c -0.0625 0.39453 0.33203 0.81641 0.69531 1.2422 c 1.0156 1.2109 2.3633 1.9531 3.7734 2.2266 c -0.15234 0.5625 -0.28906 1.1211 -0.39453 1.6836 c -0.5 2.5898 -0.57422 5.2109 -0.4375 7.7734 c 0.03125 0.63672 0.074219 1.2891 0.13672 1.9258 c 0.046875 0.62109 0.12109 1.2891 0.22656 1.9258 c 0.21094 1.2891 0.5625 2.5469 1.0742 3.7266 c 1.0156 2.3633 2.6953 4.4258 4.8164 5.6953 c 0.25781 0.15234 0.51562 0.30469 0.78906 0.45312 c 0.27344 0.13672 0.53125 0.25781 0.80469 0.39453 l 0.19531 0.089844 c 0.0625 0.03125 0.13672 0.0625 0.21094 0.074219 c 0.13672 0.0625 0.27344 0.10547 0.41016 0.16797 c 0.27344 0.10547 0.54688 0.21094 0.81641 0.30469 c 0.27344 0.089844 0.54688 0.16797 0.81641 0.25781 c 0.27344 0.0625 0.54688 0.13672 0.81641 0.19531 c 0.13672 0.03125 0.27344 0.074219 0.41016 0.089844 c 0.13672 0.03125 0.27344 0.046875 0.41016 0.074219 c 0.27344 0.046875 0.54688 0.10547 0.81641 0.13672 c 3.5156 0.48437 6.8164 0.015624 9.3789 -1.0469 c -0.19531 0.22656 -0.37891 0.45313 -0.5625 0.68359 c -0.62109 0.84766 -1.0625 1.8945 -0.96875 2.9375 c 0.12109 1.2266 1 2.3047 2.1055 2.8477 c 1.1055 0.54688 2.4102 0.58984 3.6211 0.33203 c 1.2109 -0.25781 2.332 -0.80469 3.4102 -1.4258 c 0.63672 -0.36328 1.3047 -0.77344 2.0312 -0.83203 c 1.332 -0.12109 2.332 2.5625 3.4375 1.8164 c 1.332 -0.89453 -1.1953 -2.9688 -1.8047 -4.4688 c -0.24219 -0.62109 -0.48438 -1.3633 -0.12109 -1.9102 c 0.34766 -0.51562 1.1055 -0.60547 1.6953 -0.41016 c 0.58984 0.19531 1.0742 0.62109 1.5898 0.96875 c 0.81641 0.5625 1.7578 0.9375 2.7266 1.1367 c 0.77344 0.15234 1.7109 0.10547 2.168 -0.54688 c 0.42578 -0.70312 0.03125 -1.6914 -0.63672 -2.1445 z m -22.469 1.0898 c -0.12109 0.015625 -0.22656 0.015625 -0.34766 0.03125 c -0.22656 0.015625 -0.45313 0.046875 -0.69531 0.0625 s -0.46875 0.015625 -0.71094 0.03125 c -0.24219 0.015625 -0.48438 0.015625 -0.72656 0.015625 s -0.48438 -0.015625 -0.74219 -0.015625 c -0.24219 0 -0.5 -0.03125 -0.74219 -0.0625 c -0.5 -0.03125 -1 -0.12109 -1.5156 -0.18359 c -2.0312 -0.34766 -4.1367 -1.0156 -6.0156 -2.2109 c -1.8633 -1.168 -3.332 -3.0469 -4.2266 -5.1953 c -0.45313 -1.0742 -0.75781 -2.2422 -0.9375 -3.4258 c -0.16797 -1.1836 -0.24219 -2.4531 -0.28906 -3.6953 c -0.089844 -2.4844 0 -5.0156 0.5 -7.4258 c 0.12109 -0.63672 0.28906 -1.2578 0.46875 -1.8633 c 1.9258 -0.074219 3.8164 -0.9375 5.1367 -2.5898 c 0.33203 -0.42578 0.66797 -0.89453 0.98438 -1.3789 c -0.16797 0.27344 -2.2266 3.8945 0.39453 4.4688 c 0.42578 0.089844 2.9688 -0.21094 5.4531 -0.53125 c 2.8164 -0.37891 6.6836 1.4102 7.1367 4.2109 c 0.13672 0.84766 -0.39453 3.3945 -0.31641 4.1836 c 0.18359 2.0898 1.7578 2.1211 2 1.6523 c 0.13672 -0.25781 0.30469 -0.65234 0.45312 -1.0742 c 0.015626 0.089843 0.046876 0.13672 0.074219 0.15234 c 0.074219 0 0.16797 -0.18359 0.27344 -0.53125 l -0.015625 0.03125 c 0.22656 -0.41016 0.53125 -1.0898 0.87891 -1.9258 c 0.34766 -0.54688 0.89453 -1.0625 1.5742 -1.2734 c 0.68359 -0.22656 1.5469 -0.15234 2.1836 0.27344 c 0.31641 0.21094 0.60547 0.5 0.81641 0.83203 c 0.10547 0.16797 0.18359 0.34766 0.25781 0.53125 c 0.0625 0.18359 0.089844 0.37891 0.12109 0.5625 c 0.074219 0.77344 -0.18359 1.6055 -0.58984 2.2734 c -0.16797 0.27344 -0.34766 0.51562 -0.53125 0.72656 c -0.15234 0.18359 -0.34766 0.33203 -0.5625 0.48438 c -0.42578 0.28906 -0.86328 0.53125 -1.2578 0.72656 c -0.78906 0.39453 -1.3945 0.69531 -1.8164 0.95312 c -0.84766 0.51562 -0.96875 0.81641 -0.87891 1 c 0.10547 0.18359 0.34766 0.24219 1.1953 0.046875 c -0.089844 0.16797 -0.16797 0.33203 -0.22656 0.54688 c -0.074218 0.25781 -0.10547 0.53125 -0.074218 0.78906 c 0.015624 0.27344 0.089843 0.54688 0.24219 0.80469 c 0.13672 0.25781 0.37891 0.51562 0.65234 0.65234 c 0.27344 0.15234 0.5625 0.21094 0.80469 0.22656 c 0.12109 0.015625 0.24219 0 0.34766 0 c 0.074219 -0.015625 0.15234 -0.015625 0.22656 -0.015625 c -0.80469 1.8164 -1.8945 3.5 -3.2109 4.9844 c -0.22656 0.22656 -0.46875 0.4375 -0.72656 0.66797 c -1.3047 0.69531 -2.8945 1.2109 -4.668 1.4688 c -0.125 -0.035157 -0.24609 -0.007813 -0.35156 0.007812 z" stroke-linecap="round" />
</g>
<g transform="matrix(3.09 0 0 3.19 305.24 319.98)"  >
<path style="stroke: none; stroke-width: 1; stroke-dasharray: none; stroke-linecap: butt; stroke-dashoffset: 0; stroke-linejoin: miter; stroke-miterlimit: 4; fill: rgb(163,96,65); fill-rule: nonzero; opacity: 1;"  transform=" translate(-49.18, -68.82)" d="m 93.41 58.547 c -0.19531 -0.074219 -0.78906 0.81641 -2.6367 4.8945 c -0.22656 0.51562 -0.48438 1.0742 -0.75781 1.6836 c -0.27344 0.60547 -0.5625 1.2734 -0.91016 1.9375 c -0.34766 0.66797 -0.78906 1.332 -1.3789 1.8945 c -0.30469 0.25781 -0.62109 0.51562 -1.0156 0.71094 l -0.13672 0.074219 c -0.046875 0.03125 -0.10547 0.046874 -0.15234 0.0625 c -0.10547 0.046874 -0.19531 0.089843 -0.30469 0.12109 c -0.21094 0.0625 -0.42578 0.13672 -0.66797 0.18359 c -0.22656 0.0625 -0.46875 0.074219 -0.69531 0.10547 c -0.12109 0 -0.24219 0.015625 -0.36328 0.015625 s -0.24219 -0.015625 -0.36328 -0.015625 c -0.0625 0 -0.10547 -0.015625 -0.16797 -0.015625 c -0.015625 -0.22656 -0.03125 -0.45312 -0.0625 -0.68359 c -0.046875 -0.42578 -0.10547 -0.84766 -0.21094 -1.2891 c -0.10547 -0.4375 -0.25781 -0.89453 -0.53125 -1.3047 c -0.13672 -0.21094 -0.28906 -0.41016 -0.48438 -0.58984 c -0.19531 -0.19531 -0.42578 -0.34766 -0.66797 -0.45312 c -0.46875 -0.22656 -1 -0.33203 -1.5625 -0.21094 c -0.27344 0.0625 -0.5625 0.16797 -0.80469 0.34766 c -0.24219 0.18359 -0.42578 0.41016 -0.5625 0.66797 c -0.13672 0.25781 -0.19531 0.54688 -0.22656 0.80469 c -0.015625 0.25781 0 0.51562 0.0625 0.72656 c 0.10547 0.45312 0.28906 0.83203 0.51562 1.1836 c 0.10547 0.16797 0.24219 0.33203 0.37891 0.48437 c 0.074219 0.074219 0.15234 0.15234 0.21094 0.21094 c 0.074219 0.0625 0.13672 0.12109 0.21094 0.18359 c 0.57422 0.46875 1.2109 0.81641 1.8477 1.0469 c 0.10547 0.03125 0.19531 0.0625 0.30469 0.089843 c 0 0.21094 -0.015625 0.42578 -0.03125 0.63672 c -0.12109 1.6055 -0.45312 3.2891 -1.3047 4.6055 c -0.21094 0.33203 -0.45312 0.62109 -0.72656 0.87891 l -0.21094 0.18359 l -0.22656 0.16797 l -0.22656 0.15234 c -0.089843 0.046876 -0.18359 0.10547 -0.27344 0.15234 c -0.74219 0.39453 -1.5156 0.69531 -2.3164 0.86328 c -0.41016 0.089843 -0.81641 0.13672 -1.2109 0.15234 c -0.41016 0.015625 -0.81641 -0.015625 -1.2266 -0.074219 c -0.80469 -0.13672 -1.5898 -0.41016 -2.3164 -0.83203 c -1.4688 -0.83203 -2.668 -2.1367 -3.6836 -3.5742 c -0.24219 -0.36328 -0.5 -0.72656 -0.71094 -1.1211 c -0.22656 -0.37891 -0.4375 -0.75781 -0.63672 -1.1523 c -0.39453 -0.78906 -0.72656 -1.6055 -1.0469 -2.4258 c -0.62109 -1.6523 -1.1055 -3.3477 -1.5312 -5.0312 c -0.41016 -1.6836 -0.75781 -3.3633 -1 -5 c -0.0625 -0.41016 -0.10547 -0.81641 -0.15234 -1.2109 c -0.03125 -0.39453 -0.0625 -0.80469 -0.046874 -1.1523 c 0 -0.046874 0.015624 -0.074218 0.015624 -0.12109 v -0.0625 v -0.03125 v -0.015625 s 0.015626 0 -0.015624 -0.015625 c 0.03125 0.015625 0.015624 0 0.015624 0 v -0.015625 c 0.015626 -0.015625 0 -0.03125 0.03125 -0.046875 c 0.015626 -0.015625 0.03125 -0.046875 0.046876 -0.0625 l 0.074218 -0.074219 c 0.046875 -0.046875 0.12109 -0.10547 0.16797 -0.15234 c 0.25781 -0.19531 0.58984 -0.37891 0.92578 -0.54688 c 0.68359 -0.31641 1.3945 -0.58984 2.1055 -0.81641 s 1.4258 -0.4375 2.1367 -0.63672 c 0.69531 -0.19531 1.3945 -0.36328 2.0742 -0.53125 c 0.33203 -0.089844 0.68359 -0.16797 1.0156 -0.24219 c 0.089843 -0.015625 0.16797 -0.046875 0.25781 -0.0625 l 0.13672 -0.046875 l 0.12109 -0.03125 c 0.15234 -0.046875 0.30469 -0.089844 0.45313 -0.12109 c 0.58984 -0.13672 1.1836 -0.16797 1.6523 0.03125 c 0.22656 0.074219 0.45312 0.24219 0.66797 0.42578 c 0.21094 0.16797 0.41016 0.37891 0.60547 0.57422 c 0.75781 0.83203 1.3477 1.7109 1.8789 2.5312 c 1.0469 1.6367 1.8047 3 2.3477 3.9102 c 0.27344 0.45312 0.48438 0.81641 0.65234 1.0469 c 0.074219 0.12109 0.15234 0.19531 0.21094 0.24219 c 0.0625 0.046875 0.089844 0.074219 0.10547 0.0625 c 0.015625 -0.015625 -0.0625 -0.13672 -0.16797 -0.39453 c -0.12109 -0.25781 -0.28906 -0.62109 -0.51562 -1.1055 c -0.45313 -0.96875 -1.1211 -2.3789 -2.1055 -4.0742 c -0.5 -0.84766 -1.0625 -1.7734 -1.8477 -2.6953 c -0.19531 -0.22656 -0.41016 -0.45313 -0.65234 -0.66797 c -0.24219 -0.21094 -0.51562 -0.42578 -0.86328 -0.57422 c -0.34766 -0.15234 -0.71094 -0.21094 -1.0742 -0.22656 c -0.18359 0 -0.36328 0 -0.54688 0.015624 v -0.046874 c -0.015625 -0.39453 -0.10547 -1.0312 -0.41016 -2.0156 c -0.30469 -0.98437 -0.83203 -2.3164 -1.7578 -4.0312 c -0.22656 -0.42578 -0.48438 -0.87891 -0.74219 -1.3477 c -0.13672 -0.24219 -0.27344 -0.48438 -0.41016 -0.72656 c -0.13672 -0.24219 -0.27344 -0.51562 -0.42578 -0.78906 c -0.15234 -0.28906 -0.33203 -0.57422 -0.5625 -0.87891 c -0.22656 -0.30469 -0.51562 -0.60547 -0.84766 -0.86328 c -0.68359 -0.51562 -1.4844 -0.78906 -2.2422 -1.0156 c -1.1055 -0.30469 -2.2578 -0.62109 -3.4258 -0.9375 c -0.30469 -0.074219 -0.5625 -0.16797 -0.9375 -0.24219 c -0.18359 -0.03125 -0.37891 -0.0625 -0.60547 -0.0625 c -0.22656 0 -0.46875 0.03125 -0.69531 0.12109 c -0.24219 0.074219 -0.48438 0.21094 -0.68359 0.42578 c -0.19531 0.21094 -0.34766 0.48438 -0.41016 0.75781 c -0.0625 0.27344 -0.0625 0.51562 -0.03125 0.74219 c 0.03125 0.22656 0.089844 0.42578 0.18359 0.62109 c 0.16797 0.39453 0.37891 0.68359 0.62109 0.96875 c 0.24219 0.28906 0.51562 0.53125 0.83203 0.74219 c 0.30469 0.21094 0.63672 0.37891 0.98438 0.5 c 0.18359 0.0625 0.34766 0.10547 0.53125 0.15234 c 0.18359 0.03125 0.34766 0.0625 0.51562 0.089844 c 0.31641 0.046875 0.60547 0.0625 0.84766 0.12109 c 0.24219 0.046875 0.45312 0.12109 0.60547 0.22656 c 0.074218 0.046875 0.12109 0.089844 0.19531 0.18359 c 0.015625 0.03125 0.046875 0.046875 0.0625 0.074219 c -0.72656 -0.03125 -1.4531 0.046875 -2.1367 0.19531 c -0.98438 0.21094 -1.8789 0.62109 -2.6523 1.1055 c -0.77344 0.5 -1.4258 1.0898 -1.9531 1.6953 c -0.13672 0.15234 -0.25781 0.30469 -0.37891 0.46875 c -0.12109 0.15234 -0.22656 0.33203 -0.33203 0.51562 c -0.089844 0.18359 -0.18359 0.37891 -0.22656 0.58984 c -0.046874 -0.03125 -0.10547 -0.074218 -0.15234 -0.10547 c -0.15234 -0.10547 -0.33203 -0.24219 -0.5 -0.39453 s -0.31641 -0.34766 -0.39453 -0.54688 c -0.074219 -0.19531 -0.089844 -0.39453 -0.046876 -0.63672 c 0.03125 -0.12109 0.0625 -0.22656 0.12109 -0.34766 c 0.0625 -0.10547 0.12109 -0.21094 0.21094 -0.31641 c 0.33203 -0.42578 0.89453 -0.77344 1.4531 -1.0625 c 0.57422 -0.28906 1.0469 -0.5 1.4102 -0.66797 s 0.63672 -0.30469 0.81641 -0.41016 c 0.36328 -0.22656 0.45312 -0.41016 0.42578 -0.63672 c -0.015624 -0.10547 -0.046874 -0.21094 -0.15234 -0.28906 c -0.10547 -0.074219 -0.27344 -0.13672 -0.53125 -0.15234 c -0.25781 -0.015625 -0.60547 0.015625 -1.0469 0.12109 c -0.4375 0.10547 -0.98438 0.30469 -1.6523 0.63672 c -0.33203 0.16797 -0.68359 0.37891 -1.0156 0.63672 c -0.33203 0.25781 -0.66797 0.58984 -0.92578 1 c -0.12109 0.19531 -0.22656 0.42578 -0.30469 0.65234 c -0.046875 0.15234 -0.074218 0.30469 -0.10547 0.4375 c -0.41016 -0.27344 -1.0312 -0.63672 -1.9258 -1.1367 c -1.1367 -0.62109 -2.7422 -1.4531 -4.9531 -2.5312 c -1.1055 -0.54688 -2.3633 -1.1367 -3.8164 -1.8047 c -1.4375 -0.66797 -3.0625 -1.3945 -4.9258 -2.1523 c -0.46875 -0.18359 -0.9375 -0.36328 -1.4375 -0.54688 c -0.25781 -0.074219 -0.5 -0.16797 -0.80469 -0.24219 c -0.15234 -0.03125 -0.31641 -0.074218 -0.57422 -0.074218 l -0.16797 0.015625 l -0.089844 0.015625 l -0.0625 0.015625 c -0.074219 0.015625 -0.18359 0.03125 -0.24219 0.0625 c -0.30469 0.074219 -0.5625 0.18359 -0.81641 0.27344 c -0.25781 0.10547 -0.5 0.21094 -0.74219 0.31641 c -0.48438 0.21094 -0.96875 0.45313 -1.4531 0.68359 c -1.9102 0.9375 -3.7891 1.9844 -5.6523 3.0156 c -3.7109 2.0898 -7.3047 4.2109 -10.453 6.1211 c -3.1523 1.9102 -5.8477 3.6055 -7.7422 4.8477 c -1.0156 0.66797 -1.8047 1.1953 -2.3047 1.5625 c -0.12109 -0.046875 -0.24219 -0.089843 -0.37891 -0.15234 c -0.15234 -0.0625 -0.33203 -0.0625 -0.5 0 c -0.39453 0.13672 -0.58984 0.5625 -0.45312 0.9375 c 1.3047 3.7266 2.6211 7.4531 3.9375 11.121 c 1.332 3.668 2.6523 7.2578 4.0469 10.727 c 0.34766 0.86328 0.69531 1.7266 1.0898 2.5625 l 0.15234 0.31641 l 0.16797 0.31641 c 0.046875 0.10547 0.12109 0.21094 0.18359 0.33203 l 0.046875 0.089843 c 0.015625 0.03125 0.03125 0.0625 0.0625 0.089844 l 0.089844 0.10547 l 0.046874 0.0625 l 0.046876 0.046875 c 0.21094 0.22656 0.41016 0.34766 0.62109 0.5 c 0.19531 0.13672 0.39453 0.25781 0.60547 0.37891 c 0.80469 0.46875 1.5898 0.86328 2.3945 1.2578 c 0.78906 0.37891 1.5742 0.74219 2.3633 1.0898 c 3.1211 1.3945 6.1211 2.6055 8.8945 3.6953 c 5.5469 2.1836 10.195 3.9102 13.484 5.0742 c 1.6367 0.58984 2.9258 1.0312 3.8164 1.3164 c 0.25781 0.074219 0.46875 0.15234 0.65234 0.21094 c 0 0.074219 0.015625 0.15234 0.015625 0.22656 v 0.015625 c 0.015625 0.13672 0.0625 0.27344 0.15234 0.39453 c 0.24219 0.30469 0.69531 0.34766 1 0.10547 c 0.74219 -0.58984 1.5469 -1.1523 2.3633 -1.668 c 0.81641 -0.51562 1.6523 -1.0156 2.4844 -1.4844 c 1.668 -0.9375 3.332 -1.8047 4.9375 -2.6211 c 3.2266 -1.6367 6.2578 -3.0469 8.8164 -4.3047 c 0.31641 -0.16797 0.63672 -0.31641 0.9375 -0.48438 c 0.15234 -0.089844 0.30469 -0.16797 0.45312 -0.25781 c 0.074219 -0.046875 0.15234 -0.089843 0.22656 -0.13672 l 0.12109 -0.074218 c 0.046875 -0.046875 0.089844 -0.074219 0.15234 -0.12109 c 0.51562 -0.54688 0.78906 -1.1367 1 -1.6953 c 0.19531 -0.5625 0.33203 -1.0898 0.45312 -1.5742 s 0.22656 -0.92578 0.33203 -1.3164 c 0.25781 -1.0625 0.42578 -1.8047 0.48438 -2.1953 c 0.83203 0.48438 1.7891 0.81641 2.7422 0.98438 c 0.5 0.074219 1 0.10547 1.5 0.10547 c 0.5 -0.015625 1 -0.074219 1.4844 -0.18359 c 0.96875 -0.19531 1.8945 -0.5625 2.7422 -1.0156 c 0.10547 -0.0625 0.21094 -0.10547 0.31641 -0.16797 l 0.33203 -0.21094 l 0.31641 -0.22656 l 0.30469 -0.25781 c 0.37891 -0.34766 0.71094 -0.75781 0.98437 -1.168 c 0.54688 -0.83203 0.89453 -1.7422 1.1211 -2.6523 c 0.22656 -0.91016 0.36328 -1.8047 0.42578 -2.6953 c 0.015624 -0.15234 0.015624 -0.31641 0.015624 -0.46875 h 0.074219 c 0.15234 0 0.31641 0.015625 0.46875 0 c 0.15234 -0.015625 0.30469 -0.015625 0.46875 -0.03125 c 0.30469 -0.046875 0.60547 -0.074219 0.89453 -0.15234 c 0.28906 -0.0625 0.5625 -0.16797 0.84766 -0.25781 c 0.13672 -0.046874 0.25781 -0.10547 0.39453 -0.16797 c 0.0625 -0.03125 0.13672 -0.0625 0.19531 -0.089844 l 0.18359 -0.10547 c 0.5 -0.25781 0.92578 -0.60547 1.3047 -0.96875 c 0.72656 -0.72656 1.2109 -1.5469 1.5742 -2.2891 c 0.36328 -0.74219 0.63672 -1.4375 0.87891 -2.0625 c 0.24219 -0.62109 0.45312 -1.1953 0.66797 -1.7266 c 1.5742 -4.1953 1.8008 -5.2422 1.6055 -5.332 z m -35.805 -7.9727 c 0.046875 -0.12109 0.10547 -0.24219 0.18359 -0.37891 c 0.074219 -0.12109 0.18359 -0.25781 0.28906 -0.37891 c 0.12109 -0.13672 0.24219 -0.25781 0.36328 -0.39453 c 0.51562 -0.51562 1.1211 -1.0156 1.832 -1.4102 c 0.71094 -0.39453 1.5 -0.71094 2.3477 -0.84766 c 0.84766 -0.15234 1.7578 -0.15234 2.6523 0.015626 c 0.27344 0.046874 0.5625 -0.089844 0.68359 -0.34766 c 0.074219 -0.16797 0.12109 -0.33203 0.12109 -0.48438 c 0.015625 -0.15234 -0.015625 -0.27344 -0.03125 -0.39453 c -0.046875 -0.22656 -0.13672 -0.41016 -0.22656 -0.58984 c -0.089843 -0.16797 -0.19531 -0.33203 -0.31641 -0.48438 s -0.28906 -0.31641 -0.45312 -0.4375 c -0.34766 -0.24219 -0.72656 -0.37891 -1.0742 -0.46875 c -0.34766 -0.074218 -0.68359 -0.12109 -0.95312 -0.16797 c -0.28906 -0.046876 -0.51563 -0.089844 -0.74219 -0.18359 c -0.22656 -0.089844 -0.45312 -0.21094 -0.65234 -0.34766 c -0.19531 -0.15234 -0.37891 -0.31641 -0.53125 -0.5 c -0.15234 -0.18359 -0.30469 -0.41016 -0.36328 -0.58984 c -0.074219 -0.18359 -0.089844 -0.37891 -0.0625 -0.4375 c 0.015625 -0.03125 0.015625 -0.03125 0.03125 -0.046875 s 0.046875 -0.03125 0.089844 -0.046875 c 0.0625 -0.015625 0.12109 -0.03125 0.19531 -0.03125 c 0.089844 0 0.18359 0.015625 0.30469 0.046875 c 0.22656 0.046875 0.54688 0.15234 0.83203 0.22656 c 1.168 0.33203 2.3047 0.65234 3.4102 0.95312 c 0.71094 0.19531 1.3164 0.42578 1.7422 0.74219 c 0.42578 0.30469 0.72656 0.77344 1.0156 1.2734 c 0.15234 0.25781 0.28906 0.51562 0.4375 0.77344 c 0.15234 0.25781 0.28906 0.5 0.4375 0.74219 c 0.27344 0.46875 0.54688 0.89453 0.78906 1.3047 c 0.95312 1.6211 1.5625 2.832 1.9844 3.7109 c 0.41016 0.87891 0.65234 1.4258 0.84766 1.7578 c -0.15234 0.03125 -0.28906 0.0625 -0.4375 0.10547 l -0.12109 0.03125 l -0.10547 0.03125 c -0.074219 0.015626 -0.16797 0.03125 -0.24219 0.0625 c -0.33203 0.074219 -0.66797 0.15234 -1.0156 0.21094 c -0.68359 0.15234 -1.3945 0.30469 -2.1055 0.48438 c -0.71094 0.18359 -1.4531 0.37891 -2.1953 0.58984 c -0.66797 0.19531 -1.3477 0.4375 -2.0312 0.72656 c -0.015625 -0.0625 -0.015625 -0.10547 -0.03125 -0.16797 c -0.015625 -0.074218 -0.03125 -0.16797 -0.046875 -0.27344 s -0.015625 -0.19531 -0.03125 -0.31641 c -0.015625 -0.24219 -0.015625 -0.54688 -0.015625 -0.89453 v -0.57422 v -0.074219 v -0.0625 v -0.074219 c 0 -0.10547 -0.03125 -0.19531 -0.046875 -0.30469 c -0.0625 -0.21094 -0.15234 -0.41016 -0.30469 -0.58984 c -0.28906 -0.34766 -0.74219 -0.60547 -1.2578 -0.60547 c -0.25781 0 -0.53125 0.0625 -0.75781 0.18359 l -0.089844 0.046875 l -0.046875 0.03125 l -0.03125 0.015625 l -0.089844 0.0625 c -0.0625 0.046875 -0.13672 0.089844 -0.19531 0.12109 c -0.13672 0.089843 -0.27344 0.18359 -0.41016 0.28906 c -0.074219 0.046875 -0.13672 0.10547 -0.21094 0.15234 l -0.18359 0.13672 c -0.10547 0.089844 -0.19531 0.15234 -0.28906 0.19531 c -0.046875 0.03125 -0.074219 0.046875 -0.12109 0.0625 c -0.03125 0.015625 -0.074219 0.03125 -0.089844 0.03125 c -0.074218 0.015625 -0.16797 -0.015625 -0.18359 -0.03125 c 0 -0.03125 0 -0.10547 0.03125 -0.19531 c 0.0625 -0.19531 0.18359 -0.4375 0.34766 -0.66797 c 0.15234 -0.22656 0.33203 -0.46875 0.53125 -0.69531 c 0.36328 -0.4375 0.75781 -0.83203 1.1523 -1.168 c 0.80469 -0.68359 1.6211 -1.1055 2.2266 -1.3945 c 0.60547 -0.28906 1 -0.42578 0.96875 -0.54687 c -0.015625 -0.10547 -0.4375 -0.16797 -1.1523 -0.046876 c -0.71094 0.12109 -1.6953 0.4375 -2.6953 1.0742 c -0.5 0.31641 -1 0.72656 -1.4688 1.1953 c -0.22656 0.22656 -0.45312 0.46875 -0.66797 0.75781 c -0.074219 0.089844 -0.13672 0.18359 -0.21094 0.28906 c -0.03125 0.015625 -0.046874 0.015625 -0.074218 0.03125 c -0.19531 0.074219 -0.41016 0.13672 -0.63672 0.16797 c -0.21094 0.015624 -0.4375 -0.015626 -0.60547 -0.12109 c -0.089844 -0.0625 -0.13672 -0.12109 -0.18359 -0.21094 c -0.046874 -0.089844 -0.074218 -0.19531 -0.074218 -0.30469 c -0.042969 -0.11328 -0.027344 -0.23438 0.015625 -0.34375 z m -1.8945 0.015625 c 0.28906 0.13672 0.54687 0.19531 0.75781 0.22656 c 0.12109 0.015625 0.24219 0.03125 0.33203 0.03125 c 0 0.0625 0.015625 0.10547 0.015625 0.16797 c 0.03125 0.21094 0.10547 0.41016 0.22656 0.58984 c 0.12109 0.18359 0.28906 0.31641 0.46875 0.41016 c 0.34766 0.18359 0.72656 0.18359 1.0156 0.12109 c 0.089844 -0.015625 0.16797 -0.046875 0.24219 -0.074219 c 0 0.015625 0 0.015625 -0.015625 0.03125 c -0.074218 0.21094 -0.13672 0.45312 -0.13672 0.75781 c 0 0.28906 0.13672 0.65234 0.34766 0.89453 c 0.39453 0.46875 1.0156 0.65234 1.5625 0.5625 s 0.91016 -0.36328 1.1836 -0.5625 l 0.19531 -0.15234 l 0.16797 -0.12109 c 0.10547 -0.074218 0.22656 -0.15234 0.34766 -0.24219 c 0.0625 -0.046875 0.12109 -0.074219 0.18359 -0.12109 l 0.089843 -0.0625 l 0.015626 -0.015625 c 0.015624 -0.015625 0.03125 -0.015625 0.03125 -0.015625 c 0.03125 0 0.0625 0.015625 0.089843 0.03125 l 0.03125 0.03125 s 0.015625 0.015625 0 0.015625 v 0.015625 v 0.074219 c 0.015625 0.22656 0.03125 0.42578 0.046875 0.62109 c 0.046875 0.39453 0.089844 0.72656 0.18359 1.0469 c 0.046875 0.15234 0.089844 0.30469 0.15234 0.4375 c 0.0625 0.12109 0.12109 0.24219 0.18359 0.33203 c 0.046874 0.074218 0.089843 0.13672 0.13672 0.19531 c -0.15234 0.089844 -0.30469 0.18359 -0.45312 0.28906 l -0.13672 0.12109 c -0.046874 0.03125 -0.089843 0.074219 -0.13672 0.12109 l -0.13672 0.13672 c -0.046875 0.0625 -0.089844 0.12109 -0.13672 0.18359 s -0.089844 0.13672 -0.12109 0.21094 l -0.0625 0.12109 l -0.0625 0.24219 l -0.015624 0.089843 c 0 0.0625 -0.015626 0.13672 -0.015626 0.19531 c -0.03125 0.46875 -0.015624 0.89453 0.015626 1.3164 c 0.03125 0.42578 0.074218 0.84766 0.12109 1.2734 c 0.21094 1.6953 0.53125 3.4102 0.92578 5.1367 c 0.12109 0.53125 0.25781 1.0625 0.39453 1.5898 c -0.53125 0.19531 -1.3047 0.54688 -2.4375 1.1055 c -1.3164 0.63672 -3.1211 1.5625 -5.5625 2.8477 c -0.96875 0.51562 -2.0625 1.0898 -3.2422 1.7422 c -4.9258 -2.5625 -9.8945 -5.0742 -13.684 -6.9375 c 0.03125 -0.53125 0.015626 -1.4375 -0.046874 -2.6367 c 0.19531 -0.046875 0.4375 -0.089844 0.69531 -0.16797 c 0.87891 -0.24219 2.0742 -0.69531 3.4102 -1.3789 c 1.3164 -0.68359 2.7734 -1.5898 4.0625 -2.8047 c 0.33203 -0.31641 0.62109 -0.62109 0.91016 -0.9375 c 0.13672 -0.16797 0.28906 -0.31641 0.42578 -0.48438 c 0.13672 -0.16797 0.27344 -0.33203 0.41016 -0.5 c 0.54688 -0.66797 1.0312 -1.3477 1.4844 -2.0156 c 0.87891 -1.3477 1.4688 -2.4688 1.8633 -3.3789 c 0.41016 -0.91016 0.62109 -1.6055 0.75781 -2.1055 c 0.074219 -0.30469 0.12109 -0.54688 0.13672 -0.74219 c 0.72656 0.28906 1.2422 0.45312 1.5898 0.54688 c 0.015625 0.074218 0.03125 0.15234 0.046875 0.22656 c 0.0625 0.22656 0.16797 0.4375 0.30469 0.62109 c 0.23438 0.39844 0.55469 0.60938 0.83984 0.74609 z m -17.879 12.215 c 0 -0.015626 -0.03125 -0.046876 -0.0625 -0.074219 c 0.03125 0.015625 0.046875 0.03125 0.0625 0.03125 c 0.015625 0.011719 0 0.027343 0 0.042969 z m 0.74219 -2.5625 c -0.015625 -0.19531 -0.03125 -0.41016 -0.046875 -0.62109 c 0.089844 0.015625 0.21094 0.015625 0.33203 0.015625 c 0.15234 0 0.30469 -0.03125 0.4375 -0.0625 c -0.24219 0.51562 -0.46875 0.98438 -0.66797 1.3945 c -0.023437 -0.22656 -0.039062 -0.46875 -0.054687 -0.72656 z m 1.4102 -2.1367 h -0.089844 c -0.36328 -0.015625 -0.77344 -0.03125 -1.1055 -0.015625 c -0.16797 0 -0.28906 0.015625 -0.39453 0.046875 c -0.074219 -0.87891 -0.16797 -1.7891 -0.25781 -2.6953 c 0.21094 0.13672 0.5 0.28906 0.86328 0.37891 c 0.45312 0.12109 0.96875 0.16797 1.4688 0.10547 c 0.18359 -0.03125 0.34766 -0.0625 0.5 -0.10547 c -0.31641 0.78516 -0.65234 1.5586 -0.98438 2.2852 z m -3.2266 -2.4219 c 0.13672 0.95312 0.27344 1.8789 0.41016 2.7891 c -0.30469 -0.03125 -0.62109 -0.074218 -0.91016 -0.10547 c -0.36328 -0.046876 -0.58984 -0.03125 -0.77344 0.0625 c -0.03125 0.015624 -0.0625 0.046874 -0.089844 0.0625 c -0.36328 -0.65234 -0.72656 -1.3633 -1.0742 -2.1055 h 0.22656 c 0.45312 -0.03125 0.95312 -0.13672 1.3945 -0.30469 c 0.30078 -0.12891 0.57422 -0.25 0.81641 -0.39844 z m 0.60547 4.0586 c 0.03125 0.21094 0.074219 0.42578 0.10547 0.63672 c 0.10547 0.68359 0.22656 1.3164 0.31641 1.9102 c -0.12109 -0.18359 -0.27344 -0.42578 -0.48438 -0.69531 c -0.22656 -0.36328 -0.51562 -0.78906 -0.81641 -1.2578 c -0.074219 -0.13672 -0.16797 -0.27344 -0.25781 -0.42578 c 0.39453 0.027344 0.78906 -0.03125 1.1367 -0.16797 z m 1.3477 2.4102 c 0.03125 -0.046875 0.0625 -0.074219 0.089843 -0.12109 c 0.46875 -0.63672 1.1055 -1.5469 1.7578 -2.6211 c 0.0625 0.046875 0.10547 0.074219 0.18359 0.12109 c 0.24219 0.15234 0.58984 0.30469 1.0469 0.41016 c 0.37891 0.089844 0.78906 0.13672 1.1953 0.12109 c -0.22656 0.15234 -0.45312 0.31641 -0.68359 0.45312 c -1.4844 0.95312 -2.8047 1.6211 -3.5742 2.0312 c 0 -0.12109 -0.015624 -0.25781 -0.015624 -0.39453 z m 6.1523 -3.5156 c -0.15234 0.015625 -0.30469 0.015625 -0.48438 0.015625 c -0.34766 0 -0.72656 0 -1.1211 -0.046875 c -0.37891 -0.03125 -0.75781 -0.10547 -1.1055 -0.19531 c -0.36328 -0.089844 -0.65234 -0.16797 -0.87891 -0.22656 c 0.46875 -0.83203 0.9375 -1.7422 1.3477 -2.7109 c 0.089844 0.089844 0.21094 0.18359 0.34766 0.27344 c 0.37891 0.24219 0.92578 0.42578 1.5625 0.48438 c 0.31641 0.03125 0.62109 0.03125 0.95312 0.015625 c 0.31641 -0.015625 0.65234 -0.046875 0.95312 -0.10547 c 0.30469 -0.046875 0.60547 -0.12109 0.89453 -0.19531 c -0.074219 0.10547 -0.16797 0.21094 -0.24219 0.31641 c -0.13672 0.15234 -0.25781 0.31641 -0.39453 0.46875 c -0.25781 0.31641 -0.53125 0.62109 -0.80469 0.91016 c -0.32812 0.35938 -0.67969 0.67578 -1.0273 0.99609 z m 3.9688 -4.7578 c -0.13672 0.21094 -0.28906 0.42578 -0.4375 0.63672 c -0.15234 0.03125 -0.33203 0.046875 -0.5 0.074219 c -0.48438 0.0625 -1.0469 0.12109 -1.5898 0.13672 c -0.27344 0.015626 -0.5625 0.015626 -0.83203 0 c -0.27344 0 -0.54688 -0.015624 -0.78906 -0.046874 c -0.48438 -0.046876 -0.80469 -0.12109 -1.0312 -0.19531 c -0.22656 -0.074219 -0.39453 -0.15234 -0.53125 -0.19531 c 0.4375 -1.1953 0.80469 -2.4375 1.0469 -3.6211 c 0.0625 0.0625 0.13672 0.10547 0.21094 0.16797 c 0.36328 0.25781 0.87891 0.53125 1.5742 0.72656 s 1.5 0.27344 2.2578 0.19531 c 0.77344 -0.074218 1.5 -0.31641 2.0742 -0.60547 c 0.089844 -0.046875 0.18359 -0.10547 0.27344 -0.15234 c -0.42188 0.77344 -0.96875 1.7266 -1.7266 2.8789 z m -7.3164 0.53125 c -0.046875 0 -0.074219 0.015625 -0.12109 0.015625 c -0.31641 0.046875 -0.66797 0.0625 -1 0.046875 s -0.66797 -0.089844 -0.96875 -0.16797 c -0.58984 -0.18359 -0.92578 -0.33203 -1.1836 -0.34766 c -0.089844 0 -0.16797 0 -0.22656 0.015625 c -0.0625 -0.65234 -0.12109 -1.2891 -0.18359 -1.9375 c 0.12109 0.03125 0.24219 0.0625 0.36328 0.074219 c 0.24219 0.046875 0.53125 0.0625 0.83203 0.0625 c 0.62109 0 1.2891 -0.10547 1.9258 -0.30469 c 0.57422 -0.18359 1.1055 -0.45313 1.5312 -0.74219 c -0.24219 1.1016 -0.58984 2.207 -0.96875 3.2852 z m -5.2422 -2.4727 c 0.089843 0.83203 0.19531 1.668 0.31641 2.5 c -0.31641 0.089844 -0.66797 0.16797 -1.0156 0.24219 c -0.37891 0.0625 -0.75781 0.10547 -1.0898 0.12109 s -0.62109 0.015625 -0.81641 0.03125 c -0.03125 -0.0625 -0.046875 -0.10547 -0.074219 -0.16797 c -0.31641 -0.75781 -0.62109 -1.5312 -0.89453 -2.2891 c 0.015625 0 0.046875 0.015625 0.0625 0.015625 c 0.54688 0.13672 1.168 0.18359 1.7734 0.10547 c 0.60547 -0.0625 1.168 -0.25781 1.6211 -0.5 c 0.027344 -0.011719 0.070312 -0.042969 0.11719 -0.058594 z m -5.3359 0.19922 c 0.37891 1.0469 0.83203 2.1055 1.3164 3.1211 c 0.015625 0.03125 0.03125 0.0625 0.046875 0.089844 c -0.15234 0.03125 -0.33203 0.0625 -0.51562 0.089844 c -0.80469 0.15234 -1.7891 0.25781 -2.6211 0.25781 c -0.63672 0.015626 -1.0625 0 -1.3633 0.046876 c -0.015625 -0.03125 -0.046875 -0.046876 -0.0625 -0.074219 c -0.46875 -0.57422 -0.91016 -1.1523 -1.332 -1.7109 c 0.13672 0.015625 0.28906 0.015625 0.4375 0 c 0.68359 -0.046875 1.3633 -0.25781 1.9375 -0.51562 c 0.28906 -0.13672 0.5625 -0.25781 0.83203 -0.39453 c 0.27344 -0.13672 0.53125 -0.28906 0.77344 -0.45312 c 0.21875 -0.14062 0.40234 -0.28906 0.55078 -0.45703 z m -1.7422 5.1523 c 0.5 0 1.0469 -0.074218 1.5625 -0.22656 c 0.51563 -0.13672 1 -0.34766 1.4102 -0.5625 c 0.19531 -0.10547 0.37891 -0.22656 0.53125 -0.33203 c 0.4375 0.86328 0.91016 1.6836 1.3945 2.4258 c -0.33203 0 -0.72656 0 -1.1055 -0.015625 c -0.39453 0 -0.78906 -0.015625 -1.1211 -0.03125 c -0.68359 -0.046875 -1.0312 -0.089844 -1.2891 -0.03125 c -0.03125 0 -0.0625 0.015625 -0.089844 0.03125 c -0.36328 -0.30469 -0.71094 -0.62109 -1.0625 -0.96875 c -0.089843 -0.089844 -0.18359 -0.18359 -0.27344 -0.28906 h 0.042968 z m 3.9258 2.7109 c 0.4375 -0.074219 0.86328 -0.19531 1.2266 -0.34766 c 0.13672 -0.0625 0.27344 -0.12109 0.37891 -0.18359 c 0.0625 0.074219 0.10547 0.16797 0.16797 0.24219 c 0.10547 0.13672 0.21094 0.27344 0.30469 0.39453 c 0.21094 0.25781 0.39453 0.5 0.58984 0.72656 c 0.39453 0.4375 0.75781 0.81641 1.0625 1.1367 c 0.36328 0.31641 0.65234 0.5625 0.84766 0.68359 c -0.19531 -0.12109 -0.63672 -0.28906 -1.2109 -0.53125 c -0.84766 -0.36328 -2.0156 -0.87891 -3.2734 -1.6523 c -0.21094 -0.13672 -0.4375 -0.27344 -0.66797 -0.42578 c 0.21094 0.019531 0.39062 0.003906 0.57422 -0.042969 z m 18.953 -11.832 c 0.03125 0.015625 0.046875 0.015625 0.074219 0.03125 c -0.12109 0.15234 -0.24219 0.36328 -0.41016 0.63672 c -0.13672 0.22656 -0.28906 0.5 -0.45312 0.83203 c -0.34766 0.12109 -0.81641 0.30469 -1.3789 0.4375 c -0.53125 0.13672 -1.1523 0.21094 -1.7578 0.19531 c -0.60547 -0.015625 -1.2266 -0.10547 -1.7734 -0.25781 c -0.54688 -0.15234 -0.95312 -0.33203 -1.2734 -0.46875 c -0.28906 -0.13672 -0.5 -0.22656 -0.66797 -0.30469 c -0.015625 0 -0.015625 0 -0.015625 -0.015625 c 0.15234 -1.0312 0.21094 -1.8945 0.24219 -2.6211 c 0.015625 -0.74219 0 -1.3164 -0.046875 -1.7734 c 0.86328 0.37891 1.6523 0.74219 2.3789 1.0625 c 2.2344 1.0312 3.8711 1.7461 5.082 2.2461 z m -13.801 -6.0312 c 1.8164 0.72656 3.4258 1.4531 4.8789 2.0898 c 0.10547 0.046876 0.21094 0.089844 0.31641 0.13672 c 0 0.046875 -0.015625 0.089844 -0.015625 0.13672 c -0.074219 0.48438 -0.13672 1.1367 -0.24219 2.0469 c -0.10547 0.86328 -0.22656 1.9375 -0.48438 3.2734 c -0.19531 0.089844 -0.41016 0.16797 -0.65234 0.25781 c -0.45312 0.16797 -0.96875 0.31641 -1.4844 0.41016 c -0.53125 0.089844 -1.0625 0.13672 -1.5469 0.13672 c -0.24219 0 -0.46875 -0.015625 -0.65234 -0.03125 c -0.19531 -0.015625 -0.36328 -0.03125 -0.48438 -0.03125 c -0.089844 -0.015625 -0.15234 -0.015625 -0.21094 -0.03125 c -0.046874 -0.53125 -0.089843 -1.0625 -0.13672 -1.5625 c -0.13672 -1.8047 -0.22656 -3.2422 -0.33203 -4.3789 c -0.10547 -1.1367 -0.21094 -1.9531 -0.31641 -2.5469 c -0.03125 -0.16797 -0.0625 -0.31641 -0.10547 -0.45312 c 0.046874 0.015625 0.074218 0.03125 0.12109 0.046875 c 0.4375 0.15234 0.90625 0.31641 1.3477 0.5 z m -5.1367 0.45312 c 0.46875 -0.22656 0.9375 -0.4375 1.3945 -0.65234 c 0.22656 -0.10547 0.46875 -0.19531 0.69531 -0.28906 c 0.21094 -0.074219 0.42578 -0.16797 0.62109 -0.21094 c -0.03125 0.18359 -0.046875 0.41016 -0.0625 0.68359 c -0.03125 0.60547 -0.03125 1.4258 -0.015625 2.5625 c 0.03125 1.1367 0.074219 2.5742 0.21094 4.4102 c 0.046875 0.58984 0.10547 1.1836 0.16797 1.7891 c -0.12109 0.03125 -0.25781 0.074219 -0.42578 0.10547 c -0.39453 0.0625 -0.84766 0.12109 -1.3047 0.089844 c -0.45312 -0.015625 -0.91016 -0.089844 -1.3164 -0.18359 c -0.41016 -0.10547 -0.72656 -0.21094 -0.96875 -0.30469 c -0.03125 -0.015625 -0.0625 -0.015625 -0.089843 -0.03125 c -0.03125 -0.074219 -0.046875 -0.16797 -0.074219 -0.24219 c -0.12109 -0.34766 -0.21094 -0.68359 -0.30469 -1 c -0.089843 -0.31641 -0.18359 -0.60547 -0.25781 -0.89453 s -0.15234 -0.54688 -0.21094 -0.80469 c -0.0625 -0.25781 -0.12109 -0.48438 -0.16797 -0.71094 c -0.12109 -0.4375 -0.19531 -0.81641 -0.27344 -1.1523 c -0.089844 -0.33203 -0.13672 -0.60547 -0.19531 -0.83203 c -0.03125 -0.12109 -0.0625 -0.22656 -0.089844 -0.31641 c -0.03125 -0.089844 -0.046875 -0.18359 -0.074219 -0.25781 c -0.046875 -0.13672 -0.089843 -0.24219 -0.13672 -0.33203 c 0.96875 -0.48438 1.9258 -0.96875 2.8789 -1.4258 z m -5.6367 2.8945 c 0.66797 -0.36328 1.332 -0.71094 2.0156 -1.0625 c -0.015625 0.074219 -0.03125 0.16797 -0.046875 0.27344 c -0.015625 0.10547 -0.015625 0.21094 -0.015625 0.34766 c 0 0.25781 -0.015625 0.5625 0.015625 0.92578 s 0.0625 0.77344 0.15234 1.2422 c 0.046875 0.24219 0.074218 0.48437 0.13672 0.75781 c 0.0625 0.25781 0.12109 0.54688 0.18359 0.84766 c 0.0625 0.30469 0.15234 0.60547 0.24219 0.9375 c 0.089844 0.33203 0.18359 0.68359 0.30469 1.0469 c 0.046875 0.16797 0.10547 0.33203 0.15234 0.5 c -0.21094 0.12109 -0.45312 0.24219 -0.77344 0.34766 c -0.22656 0.074218 -0.46875 0.15234 -0.74219 0.22656 s -0.5625 0.16797 -0.84766 0.24219 c -0.5625 0.16797 -1.0742 0.28906 -1.5312 0.30469 c -0.4375 0.03125 -0.75781 -0.046875 -1.0156 -0.10547 c -0.24219 -0.0625 -0.42578 -0.12109 -0.5625 -0.16797 h -0.03125 c -0.39453 -0.60547 -0.71094 -1.1523 -0.98438 -1.6211 c -0.5 -0.84766 -0.84766 -1.4844 -1.1367 -1.9258 c -0.12109 -0.19531 -0.22656 -0.36328 -0.33203 -0.5 c 1.6055 -0.875 3.1953 -1.7383 4.8164 -2.6172 z m -18.574 10.227 c 2 -1.0742 4.7734 -2.6211 7.9844 -4.4102 c 1.5742 -0.87891 3.2578 -1.8047 5 -2.7734 c 0.03125 0.15234 0.074219 0.30469 0.12109 0.5 c 0.15234 0.53125 0.41016 1.2266 0.86328 2.168 c 0.45312 0.92578 1.0898 2.0742 2.0625 3.4375 c 0.96875 1.3633 2.1523 2.7422 3.4844 3.9688 c 1.3477 1.2266 2.8477 2.1836 4.2578 2.8633 c 1.3945 0.68359 2.6953 1.0742 3.6211 1.2578 c 0.87891 0.18359 1.4375 0.18359 1.5156 0.089844 c -0.03125 0.12109 -0.03125 0.19531 0.015624 0.22656 c 0.015626 0.015626 0.046876 0 0.074219 -0.015624 c 0.19531 1.1211 0.37891 2 0.51562 2.5469 c -0.0625 0.015626 -0.10547 0.03125 -0.15234 0.046876 c -1 0.57422 -1.9102 1.1211 -2.6836 1.6211 c -0.78906 0.48438 -1.4375 0.91016 -1.9688 1.2578 c -0.31641 0.19531 -0.57422 0.37891 -0.80469 0.51562 c -1.7734 -0.89453 -3.6367 -1.8047 -5.6055 -2.7734 c -3.332 -1.6211 -6.8047 -3.2734 -10.363 -4.9102 c -1.7734 -0.81641 -3.5742 -1.6367 -5.3945 -2.4258 c -1.5742 -0.68359 -3.168 -1.3633 -4.8047 -2 c 0.5625 -0.28125 1.3203 -0.67578 2.2617 -1.1914 z m 38.137 40.684 c -0.86328 -0.36328 -2.1211 -0.89453 -3.7266 -1.5469 c -3.2109 -1.3164 -7.8164 -3.168 -13.305 -5.4688 c -2.7422 -1.1523 -5.6953 -2.4258 -8.7734 -3.8477 c -0.77344 -0.36328 -1.5469 -0.72656 -2.3164 -1.1211 c -0.77344 -0.39453 -1.5469 -0.78906 -2.2891 -1.2422 c -0.18359 -0.10547 -0.36328 -0.22656 -0.53125 -0.34766 c -0.15234 -0.12109 -0.33203 -0.24219 -0.42578 -0.34766 l -0.03125 -0.03125 c 0 -0.015625 -0.015624 -0.015625 -0.015624 -0.03125 c 0 0 -0.015626 -0.03125 -0.03125 -0.046875 l -0.03125 -0.0625 c -0.046876 -0.089843 -0.089844 -0.16797 -0.13672 -0.27344 l -0.13672 -0.28906 l -0.13672 -0.30469 c -0.36328 -0.81641 -0.69531 -1.668 -1.0312 -2.5312 c -1.1211 -2.9102 -2.2109 -5.9375 -3.3047 -9.0156 c 0.86328 0.62109 2 1.3789 3.332 2.1523 c 1.5469 0.91016 3.3633 1.8477 5.2578 2.6953 c 1.8945 0.84766 3.8789 1.5898 5.7422 2.168 c 1.8477 0.57422 3.3477 0.9375 4.5312 1.168 c 0.28906 0.0625 0.57422 0.10547 0.83203 0.16797 c 0.25781 0.046875 0.5 0.074219 0.72656 0.10547 c 0.4375 0.0625 0.81641 0.10547 1.1367 0.13672 c 1.2734 0.089843 1.5898 -0.0625 1.6367 -0.27344 c 0.03125 -0.21094 -0.22656 -0.45312 -1.4258 -0.81641 c -0.30469 -0.089844 -0.65234 -0.19531 -1.0742 -0.31641 c -0.21094 -0.0625 -0.4375 -0.12109 -0.68359 -0.18359 c -0.24219 -0.074219 -0.51562 -0.13672 -0.78906 -0.22656 c -1.1367 -0.30469 -2.5742 -0.69531 -4.3945 -1.2578 c -1.8047 -0.5625 -3.7578 -1.2422 -5.6523 -2 s -3.7109 -1.5742 -5.3047 -2.332 c -1.5898 -0.75781 -2.9375 -1.4844 -3.9258 -1.9844 c -0.089844 -0.046875 -0.18359 -0.089844 -0.27344 -0.13672 c -0.089844 -0.25781 -0.18359 -0.51562 -0.27344 -0.77344 c -1.1211 -3.168 -2.2266 -6.3789 -3.332 -9.6055 c 1.332 0.54688 2.6523 1.1211 3.9688 1.6953 c 1.8047 0.80469 3.5898 1.6211 5.3633 2.4375 c 3.5312 1.6523 7 3.3047 10.316 4.9258 c 2.0898 1.0156 4.0625 1.9844 5.9102 2.9102 c 0.92578 0.46875 1.832 0.92578 2.6836 1.3633 c 0.42578 0.22656 0.86328 0.46875 1.2891 0.68359 c 0.42578 0.22656 0.84766 0.4375 1.2734 0.63672 c 1.5469 0.75781 3 1.4375 4.3789 2.0898 c 1.0156 0.53125 2.1211 1.1055 3.332 1.7266 c 0.22656 0.12109 0.45312 0.22656 0.68359 0.34766 c 0.0625 0.78906 0.12109 1.6055 0.18359 2.4531 c 0.39453 5.3047 0.86328 11.105 1.332 16.773 c -0.16797 -0.054688 -0.34766 -0.13281 -0.55859 -0.22266 z m 23.559 -14.699 c -0.13672 0.39453 -0.27344 0.81641 -0.4375 1.2891 c -0.15234 0.46875 -0.31641 0.98438 -0.53125 1.4844 c -0.10547 0.25781 -0.22656 0.5 -0.37891 0.74219 c -0.15234 0.24219 -0.33203 0.46875 -0.53125 0.65234 c -0.015626 0.015625 -0.03125 0.015625 -0.046876 0.03125 l -0.089843 0.0625 c -0.0625 0.03125 -0.13672 0.074219 -0.19531 0.10547 c -0.13672 0.074219 -0.28906 0.13672 -0.4375 0.21094 c -0.30469 0.13672 -0.62109 0.28906 -0.9375 0.42578 c -2.5898 1.1523 -5.6836 2.4688 -8.9688 4.0156 c -1.6523 0.77344 -3.3477 1.6055 -5.0625 2.5312 c -0.86328 0.46875 -1.7109 0.9375 -2.5742 1.4688 c -0.48438 0.30469 -0.96875 0.60547 -1.4531 0.9375 c -0.36328 -5.4102 -0.75781 -10.895 -1.1367 -15.938 c -0.0625 -0.83203 -0.12109 -1.6367 -0.18359 -2.4102 c 1.7578 -1.0156 3.5742 -2.0625 5.4102 -3.1367 l 0.015625 -0.015625 c 0.12109 -0.074219 0.21094 -0.16797 0.28906 -0.30469 c 0.015625 -0.03125 0.03125 -0.0625 0.03125 -0.089844 c 1.1055 -0.62109 2.1055 -1.1953 3.0156 -1.7109 c 2.4102 -1.3633 4.1523 -2.3945 5.4102 -3.1523 c 0.98438 -0.60547 1.6523 -1.0469 2.1211 -1.3633 c 0.27344 0.98438 0.57422 1.9688 0.92578 2.9375 c 0.30469 0.86328 0.65234 1.7266 1.0742 2.5742 c 0.19531 0.42578 0.4375 0.84766 0.68359 1.2578 c 0.22656 0.41016 0.5 0.80469 0.75781 1.1953 c 0.54688 0.78906 1.1367 1.5469 1.8164 2.2266 c 0.66797 0.68359 1.4102 1.2891 2.2422 1.7891 c -0.19141 0.39844 -0.46484 1.125 -0.82812 2.1836 z m 10.516 -12.59 l -0.15234 -0.13672 c -0.046875 -0.046875 -0.089844 -0.089844 -0.12109 -0.13672 c -0.074219 -0.089843 -0.16797 -0.19531 -0.22656 -0.30469 c -0.13672 -0.21094 -0.24219 -0.4375 -0.28906 -0.66797 c -0.042968 -0.085937 -0.042968 -0.19141 -0.042968 -0.26953 c 0 -0.089844 0.03125 -0.15234 0.046874 -0.19531 c 0.03125 -0.046875 0.074219 -0.10547 0.12109 -0.13672 s 0.10547 -0.0625 0.18359 -0.074218 c 0.15234 -0.03125 0.37891 0 0.57422 0.089844 c 0.10547 0.046874 0.19531 0.10547 0.25781 0.18359 c 0.074219 0.074219 0.16797 0.18359 0.22656 0.28906 c 0.28906 0.45312 0.42578 1.168 0.5 1.9375 c 0 0.03125 0 0.074218 0.015625 0.10547 c -0.38281 -0.16797 -0.76172 -0.39453 -1.0938 -0.68359 z" stroke-linecap="round" />
</g>
<g transform="matrix(3.09 0 0 3.19 306.42 235.85)"  >
<path style="stroke: none; stroke-width: 1; stroke-dasharray: none; stroke-linecap: butt; stroke-dashoffset: 0; stroke-linejoin: miter; stroke-miterlimit: 4; fill: rgb(194,127,95); fill-rule: nonzero; opacity: 1;"  transform=" translate(-49.56, -42.13)" d="m 50.121 40.938 c -0.30469 -0.13672 -0.57422 -0.13672 -0.92578 0.54688 c -0.18359 0.33203 -0.34766 0.75781 -0.4375 1.1211 c -0.089843 0.36328 -0.12109 0.66797 0.015626 0.75781 c 0.13672 0.089844 0.41016 -0.046875 0.69531 -0.31641 c 0.28906 -0.25781 0.57422 -0.65234 0.77344 -1 c 0.36328 -0.74219 0.16797 -0.97266 -0.12109 -1.1094 z" stroke-linecap="round" />
</g>
<g transform="matrix(3.09 0 0 3.19 312.29 219.46)"  >
<path style="stroke: none; stroke-width: 1; stroke-dasharray: none; stroke-linecap: butt; stroke-dashoffset: 0; stroke-linejoin: miter; stroke-miterlimit: 4; fill: rgb(194,127,95); fill-rule: nonzero; opacity: 1;"  transform=" translate(-51.46, -37)" d="m 51.09 38.348 c 0.15234 0.046875 0.36328 -0.16797 0.57422 -0.5 c 0.19531 -0.33203 0.36328 -0.80469 0.41016 -1.2422 c 0.046875 -0.42578 -0.015625 -0.68359 -0.13672 -0.81641 c -0.10547 -0.13672 -0.25781 -0.15234 -0.42578 -0.15234 c -0.16797 0.015625 -0.30469 0.046875 -0.41016 0.16797 c -0.10547 0.12109 -0.16797 0.31641 -0.21094 0.66797 c -0.046875 0.34766 -0.0625 0.78906 -0.046875 1.168 c 0.019531 0.375 0.09375 0.66406 0.24609 0.70703 z" stroke-linecap="round" />
</g>
<g transform="matrix(3.09 0 0 3.19 304.87 205.35)"  >
<path style="stroke: none; stroke-width: 1; stroke-dasharray: none; stroke-linecap: butt; stroke-dashoffset: 0; stroke-linejoin: miter; stroke-miterlimit: 4; fill: rgb(194,127,95); fill-rule: nonzero; opacity: 1;"  transform=" translate(-49.06, -32.57)" d="m 48.531 33.016 c 0.33203 0.074219 0.72656 0.15234 1.0625 0.22656 c 0.33203 0.074218 0.62109 0.12109 0.72656 0 c 0.10547 -0.12109 -0.015624 -0.42578 -0.31641 -0.71094 c -0.28906 -0.30469 -0.77344 -0.5625 -1.2109 -0.65234 s -0.69531 -0.046875 -0.84766 0.0625 c -0.15234 0.10547 -0.18359 0.24219 -0.18359 0.41016 c 0 0.16797 0.03125 0.30469 0.13672 0.42578 c 0.11719 0.10156 0.3125 0.16016 0.63281 0.23828 z" stroke-linecap="round" />
</g>
<g transform="matrix(3.09 0 0 3.19 289.16 209.21)"  >
<path style="stroke: none; stroke-width: 1; stroke-dasharray: none; stroke-linecap: butt; stroke-dashoffset: 0; stroke-linejoin: miter; stroke-miterlimit: 4; fill: rgb(194,127,95); fill-rule: nonzero; opacity: 1;"  transform=" translate(-43.97, -33.79)" d="m 42.848 34.152 c -0.046875 0.16797 -0.03125 0.28906 0 0.37891 c 0.0625 0.18359 0.21094 0.22656 0.37891 0.25781 c 0.16797 0.03125 0.30469 0.015626 0.4375 -0.0625 c 0.0625 -0.03125 0.12109 -0.074218 0.18359 -0.13672 s 0.13672 -0.15234 0.21094 -0.27344 c 0.16797 -0.22656 0.4375 -0.51562 0.68359 -0.77344 c 0.24219 -0.25781 0.42578 -0.48438 0.36328 -0.63672 s -0.37891 -0.18359 -0.77344 -0.074219 c -0.19531 0.046875 -0.42578 0.13672 -0.63672 0.27344 c -0.21094 0.13672 -0.41016 0.30469 -0.5625 0.5 c -0.16406 0.19922 -0.25391 0.39453 -0.28516 0.54688 z" stroke-linecap="round" />
</g>
<g transform="matrix(3.09 0 0 3.19 294.64 213.53)"  >
<path style="stroke: none; stroke-width: 1; stroke-dasharray: none; stroke-linecap: butt; stroke-dashoffset: 0; stroke-linejoin: miter; stroke-miterlimit: 4; fill: rgb(194,127,95); fill-rule: nonzero; opacity: 1;"  transform=" translate(-45.74, -35.14)" d="m 45.727 34 c -0.13672 0.089844 -0.21094 0.30469 -0.31641 0.63672 c -0.089844 0.33203 -0.19531 0.68359 -0.31641 0.95312 c -0.10547 0.27344 -0.27344 0.5 -0.21094 0.65234 c 0.03125 0.074218 0.12109 0.12109 0.27344 0.12109 s 0.33203 -0.0625 0.54688 -0.19531 c 0.19531 -0.12109 0.37891 -0.31641 0.51562 -0.53125 c 0.13672 -0.21094 0.24219 -0.4375 0.31641 -0.65234 c 0.12109 -0.42578 0.089844 -0.68359 0.015625 -0.83203 c -0.074219 -0.15234 -0.21094 -0.19531 -0.37891 -0.22656 c -0.17188 -0.03125 -0.32422 -0.015625 -0.44531 0.074219 z" stroke-linecap="round" />
</g>
<g transform="matrix(3.09 0 0 3.19 294.02 196.69)"  >
<path style="stroke: none; stroke-width: 1; stroke-dasharray: none; stroke-linecap: butt; stroke-dashoffset: 0; stroke-linejoin: miter; stroke-miterlimit: 4; fill: rgb(194,127,95); fill-rule: nonzero; opacity: 1;"  transform=" translate(-45.54, -29.86)" d="m 45.516 30.684 c 0.19531 0.30469 0.39453 0.53125 0.5625 0.5 c 0.15234 -0.03125 0.24219 -0.33203 0.24219 -0.72656 s -0.12109 -0.89453 -0.30469 -1.2734 s -0.36328 -0.5625 -0.53125 -0.62109 c -0.16797 -0.0625 -0.30469 -0.015625 -0.4375 0.074219 c -0.13672 0.089843 -0.24219 0.19531 -0.27344 0.34766 c -0.03125 0.16797 0.015624 0.37891 0.18359 0.69531 c 0.14844 0.32031 0.35938 0.69922 0.55859 1.0039 z" stroke-linecap="round" />
</g>
<g transform="matrix(3.09 0 0 3.19 282.96 183.89)"  >
<path style="stroke: none; stroke-width: 1; stroke-dasharray: none; stroke-linecap: butt; stroke-dashoffset: 0; stroke-linejoin: miter; stroke-miterlimit: 4; fill: rgb(194,127,95); fill-rule: nonzero; opacity: 1;"  transform=" translate(-41.96, -25.85)" d="m 41.363 26.242 c 0.33203 0.13672 0.74219 0.27344 1.0898 0.36328 c 0.34766 0.089843 0.63672 0.13672 0.74219 0 c 0.089844 -0.12109 -0.03125 -0.41016 -0.30469 -0.71094 c -0.27344 -0.28906 -0.69531 -0.58984 -1.0898 -0.74219 s -0.65234 -0.16797 -0.80469 -0.10547 c -0.16797 0.0625 -0.22656 0.19531 -0.27344 0.34766 c -0.046875 0.15234 -0.046875 0.30469 0.03125 0.4375 c 0.09375 0.15234 0.27734 0.27344 0.60938 0.41016 z" stroke-linecap="round" />
</g>
<g transform="matrix(3.09 0 0 3.19 266.49 182.66)"  >
<path style="stroke: none; stroke-width: 1; stroke-dasharray: none; stroke-linecap: butt; stroke-dashoffset: 0; stroke-linejoin: miter; stroke-miterlimit: 4; fill: rgb(194,127,95); fill-rule: nonzero; opacity: 1;"  transform=" translate(-36.62, -25.47)" d="m 35.637 26.137 c 0.15234 0.046875 0.36328 0.015625 0.71094 -0.089844 c 0.34766 -0.12109 0.74219 -0.27344 1.0742 -0.4375 c 0.31641 -0.16797 0.57422 -0.31641 0.5625 -0.48438 c -0.015625 -0.16797 -0.28906 -0.28906 -0.69531 -0.33203 c -0.39453 -0.046875 -0.91016 0 -1.3047 0.13672 c -0.41016 0.13672 -0.60547 0.30469 -0.68359 0.45312 c -0.074219 0.15234 -0.046875 0.30469 0.03125 0.4375 c 0.0625 0.14844 0.15234 0.26953 0.30469 0.31641 z" stroke-linecap="round" />
</g>
<g transform="matrix(3.09 0 0 3.19 252.39 192.21)"  >
<path style="stroke: none; stroke-width: 1; stroke-dasharray: none; stroke-linecap: butt; stroke-dashoffset: 0; stroke-linejoin: miter; stroke-miterlimit: 4; fill: rgb(194,127,95); fill-rule: nonzero; opacity: 1;"  transform=" translate(-32.05, -28.46)" d="m 31.195 29.426 c 0.25781 0.21094 0.53125 0.27344 1.0312 -0.31641 c 0.25781 -0.28906 0.5 -0.66797 0.68359 -0.98438 c 0.16797 -0.33203 0.27344 -0.60547 0.16797 -0.72656 c -0.10547 -0.12109 -0.41016 -0.046876 -0.74219 0.15234 c -0.33203 0.19531 -0.71094 0.5 -0.98438 0.80469 c -0.53516 0.59766 -0.39844 0.87109 -0.15625 1.0703 z" stroke-linecap="round" />
</g>
<g transform="matrix(3.09 0 0 3.19 241.62 205.89)"  >
<path style="stroke: none; stroke-width: 1; stroke-dasharray: none; stroke-linecap: butt; stroke-dashoffset: 0; stroke-linejoin: miter; stroke-miterlimit: 4; fill: rgb(194,127,95); fill-rule: nonzero; opacity: 1;"  transform=" translate(-28.56, -32.74)" d="m 27.789 33.773 c 0.25781 0.19531 0.53125 0.27344 1.0156 -0.34766 c 0.48437 -0.62109 0.9375 -1.6211 0.68359 -1.8164 c -0.25781 -0.19531 -1.1211 0.46875 -1.6055 1.0898 c -0.48828 0.61719 -0.35156 0.875 -0.09375 1.0742 z" stroke-linecap="round" />
</g>
<g transform="matrix(3.09 0 0 3.19 230.82 219.51)"  >
<path style="stroke: none; stroke-width: 1; stroke-dasharray: none; stroke-linecap: butt; stroke-dashoffset: 0; stroke-linejoin: miter; stroke-miterlimit: 4; fill: rgb(194,127,95); fill-rule: nonzero; opacity: 1;"  transform=" translate(-25.06, -37.01)" d="m 24.438 38.121 c 0.16797 0.015625 0.4375 -0.074219 0.77344 -0.36328 c 0.33203 -0.28906 0.62109 -0.69531 0.77344 -1.0625 c 0.16797 -0.36328 0.21094 -0.65234 0.074219 -0.75781 c -0.12109 -0.10547 -0.41016 0.015625 -0.71094 0.22656 c -0.30469 0.19531 -0.65234 0.46875 -0.91016 0.69531 s -0.39453 0.37891 -0.4375 0.53125 c -0.046875 0.15234 0 0.28906 0.074219 0.4375 c 0.09375 0.15625 0.19922 0.26172 0.36328 0.29297 z" stroke-linecap="round" />
</g>
<g transform="matrix(3.09 0 0 3.19 215.4 222.18)"  >
<path style="stroke: none; stroke-width: 1; stroke-dasharray: none; stroke-linecap: butt; stroke-dashoffset: 0; stroke-linejoin: miter; stroke-miterlimit: 4; fill: rgb(194,127,95); fill-rule: nonzero; opacity: 1;"  transform=" translate(-20.06, -37.85)" d="m 19.832 37.258 c -0.34766 -0.13672 -0.5625 -0.16797 -0.72656 -0.12109 c -0.15234 0.046875 -0.24219 0.16797 -0.31641 0.30469 c -0.074218 0.15234 -0.10547 0.28906 -0.03125 0.4375 c 0.074219 0.15234 0.27344 0.31641 0.65234 0.46875 c 0.39453 0.15234 0.89453 0.24219 1.2891 0.22656 c 0.41016 -0.015625 0.69531 -0.13672 0.71094 -0.28906 c 0.015625 -0.16797 -0.21094 -0.33203 -0.53125 -0.51562 c -0.30469 -0.19531 -0.69531 -0.375 -1.0469 -0.51172 z" stroke-linecap="round" />
</g>
<g transform="matrix(3.09 0 0 3.19 346.78 184.77)"  >
<path style="stroke: none; stroke-width: 1; stroke-dasharray: none; stroke-linecap: butt; stroke-dashoffset: 0; stroke-linejoin: miter; stroke-miterlimit: 4; fill: rgb(194,127,95); fill-rule: nonzero; opacity: 1;"  transform=" translate(-63.31, -26.13)" d="m 66.289 30.953 c -0.24219 0.0625 -0.51562 0.13672 -0.83203 0.22656 c -0.16797 0.046874 -0.33203 0.10547 -0.53125 0.16797 c -0.18359 0.0625 -0.42578 0.13672 -0.5625 0.16797 c -0.074219 0.015625 -0.12109 0.015625 -0.13672 0 c -0.015624 0 0 0 -0.03125 -0.03125 c -0.015624 -0.015625 -0.046874 -0.074219 -0.0625 -0.12109 c -0.015624 -0.046875 -0.03125 -0.13672 -0.03125 -0.24219 c 0 -0.19531 0.0625 -0.53125 0.089844 -0.86328 c 0.046875 -0.33203 0.074219 -0.66797 0.12109 -1.0469 c 0.16797 -1.4531 0.33203 -3.0469 0.46875 -4.6211 c 0.03125 -0.39453 0.074219 -0.78906 0.10547 -1.168 c 0.03125 -0.39453 0.074219 -0.75781 0.089843 -1.168 c 0.015626 -0.41016 0 -0.84766 -0.16797 -1.2891 c -0.089844 -0.21094 -0.21094 -0.42578 -0.36328 -0.58984 c -0.15234 -0.16797 -0.34766 -0.30469 -0.53125 -0.39453 c -0.37891 -0.19531 -0.74219 -0.25781 -1.0742 -0.28906 c -0.33203 -0.03125 -0.65234 -0.03125 -0.9375 -0.046875 c -0.57422 0 -1.0898 0.03125 -1.5156 0.074219 c -0.84766 0.089844 -1.332 0.24219 -1.332 0.31641 c 0.015624 0.089844 0.51562 0.089844 1.332 0.13672 c 0.41016 0.03125 0.91016 0.0625 1.4688 0.12109 c 0.27344 0.03125 0.57422 0.0625 0.86328 0.12109 c 0.28906 0.0625 0.57422 0.13672 0.78906 0.28906 c 0.22656 0.13672 0.37891 0.31641 0.45313 0.57422 c 0.074218 0.24219 0.089843 0.5625 0.0625 0.91016 c -0.03125 0.33203 -0.089844 0.72656 -0.15234 1.1211 c -0.046875 0.37891 -0.10547 0.77344 -0.15234 1.168 c -0.21094 1.5625 -0.41016 3.1523 -0.5625 4.6055 c -0.046875 0.36328 -0.074219 0.71094 -0.12109 1.0469 c -0.015625 0.16797 -0.03125 0.31641 -0.046875 0.48438 c -0.015625 0.15234 -0.03125 0.33203 -0.03125 0.51562 c 0 0.19531 0.03125 0.39453 0.10547 0.60547 s 0.19531 0.39453 0.36328 0.54688 s 0.39453 0.28906 0.63672 0.31641 c 0.22656 0.03125 0.42578 0 0.57422 -0.046875 c 0.15234 -0.046875 0.27344 -0.089843 0.36328 -0.13672 c 0.089844 -0.046874 0.19531 -0.074218 0.28906 -0.12109 c 0.18359 -0.074219 0.34766 -0.15234 0.51563 -0.21094 c 0.31641 -0.13672 0.57422 -0.25781 0.78906 -0.36328 c 0.86328 -0.42578 1.0312 -0.65234 0.96875 -0.80469 c -0.046875 -0.14062 -0.33594 -0.20312 -1.2734 0.039063 z" stroke-linecap="round" />
</g>
<g transform="matrix(3.09 0 0 3.19 371.28 212.09)"  >
<path style="stroke: none; stroke-width: 1; stroke-dasharray: none; stroke-linecap: butt; stroke-dashoffset: 0; stroke-linejoin: miter; stroke-miterlimit: 4; fill: rgb(194,127,95); fill-rule: nonzero; opacity: 1;"  transform=" translate(-70.58, -34.69)" d="m 73.121 32.211 c -0.089844 -0.03125 -0.22656 -0.074219 -0.39453 -0.074219 c -0.33203 -0.03125 -0.81641 0 -1.3477 0.13672 c -0.53125 0.15234 -1.1055 0.42578 -1.6367 0.81641 c -0.53125 0.37891 -0.96875 0.89453 -1.2891 1.4102 c -0.046875 0.0625 -0.074219 0.13672 -0.12109 0.19531 c -0.03125 0.0625 -0.0625 0.13672 -0.089843 0.19531 c -0.03125 0.0625 -0.0625 0.12109 -0.089844 0.18359 c -0.03125 0.0625 -0.046875 0.12109 -0.074219 0.18359 c -0.089844 0.24219 -0.13672 0.48438 -0.15234 0.69531 c -0.03125 0.42578 0.074219 0.77344 0.21094 0.98438 s 0.28906 0.28906 0.39453 0.30469 c 0.10547 0.015624 0.18359 -0.03125 0.22656 -0.074219 c 0.0625 -0.0625 0.089844 -0.13672 0.12109 -0.21094 c 0.015625 -0.089843 0.03125 -0.18359 0.03125 -0.30469 c 0.015625 -0.12109 0.015625 -0.28906 0.089844 -0.53125 c 0.03125 -0.12109 0.074219 -0.27344 0.15234 -0.4375 c 0.015625 -0.046875 0.03125 -0.074219 0.0625 -0.12109 s 0.046875 -0.089844 0.074218 -0.13672 c 0.03125 -0.046875 0.046876 -0.089843 0.074219 -0.15234 c 0.03125 -0.046876 0.0625 -0.10547 0.089844 -0.15234 c 0.24219 -0.41016 0.57422 -0.83203 0.96875 -1.1836 c 0.39453 -0.36328 0.83203 -0.65234 1.2422 -0.87891 c 0.83203 -0.4375 1.5742 -0.54688 1.5742 -0.72656 c 0.019531 -0.042969 -0.027343 -0.074219 -0.11719 -0.12109 z" stroke-linecap="round" />
</g>
</svg>