<svg xmlns="http://www.w3.org/2000/svg" version="1.1" fill="rgba(128, 128, 128, 0.216)" viewBox="-5.0 -10.0 110.0 100.0">
 <path d="m65.625 45.312v-31.25c0-4.3125-3.5-7.8125-7.8125-7.8125h-34.375c-0.85938 0-1.5625 0.70312-1.5625 1.5625s0.70312 1.5625 1.5625 1.5625h34.375c2.5781 0 4.6875 2.1094 4.6875 4.6875v31.25c0 2.5781-2.1094 4.6875-4.6875 4.6875h-28.125c-0.46875 0-0.90625 0.20312-1.2031 0.5625l-7.1719 8.6094c-0.3125 0.375-1 0.125-1-0.35938v-7.25c0-0.85938-0.70312-1.5625-1.5625-1.5625h-7.8125c-2.5781 0-4.6875-2.1094-4.6875-4.6875v-31.25c0-2.5781 2.1094-4.6875 4.6875-4.6875h6.25c0.85938 0 1.5625-0.70312 1.5625-1.5625s-0.70312-1.5625-1.5625-1.5625h-6.25c-4.3125 0-7.8125 3.5-7.8125 7.8125v31.25c0 4.3125 3.5 7.8125 7.8125 7.8125h6.25v5.6875c0 2.0312 1.6562 3.6875 3.6875 3.6875 1.0938 0 2.1406-0.48438 2.8438-1.3281l6.7031-8.0469h27.391c4.3125 0 7.8125-3.5 7.8125-7.8125z"/>
 <path d="m95.312 65.625c-0.85938 0-1.5625 0.70312-1.5625 1.5625v9.375c0 2.5781-2.1094 4.6875-4.6875 4.6875h-7.8125c-0.85938 0-1.5625 0.70312-1.5625 1.5625v7.25c0 0.48438-0.70312 0.71875-1 0.35938l-7.1719-8.6094c-0.29688-0.35938-0.73438-0.5625-1.2031-0.5625h-28.125c-2.5781 0-4.6875-2.1094-4.6875-4.6875v-18.75c0-0.85938-0.70312-1.5625-1.5625-1.5625s-1.5625 0.70312-1.5625 1.5625v18.75c0 4.3125 3.5 7.8125 7.8125 7.8125h27.391l6.7031 8.0469c0.70312 0.84375 1.7344 1.3281 2.8438 1.3281 2.0312 0 3.6875-1.6562 3.6875-3.6875v-5.6875h6.25c4.3125 0 7.8125-3.5 7.8125-7.8125v-9.375c0-0.85938-0.70312-1.5625-1.5625-1.5625z"/>
 <path d="m89.062 37.5h-18.75c-0.85938 0-1.5625 0.70312-1.5625 1.5625s0.70312 1.5625 1.5625 1.5625h18.75c2.5781 0 4.6875 2.1094 4.6875 4.6875v15.625c0 0.85938 0.70312 1.5625 1.5625 1.5625s1.5625-0.70312 1.5625-1.5625v-15.625c0-4.3125-3.5-7.8125-7.8125-7.8125z"/>
 <path d="m46.453 37.078c0.78125 0.35938 1.7188 0.03125 2.0781-0.75 0.98438-2.0938 1.4688-4.3281 1.4688-6.625 0-8.6094-7.0156-15.625-15.625-15.625s-15.625 7.0156-15.625 15.625 7.0156 15.625 15.625 15.625c3.5938 0 7.0781-1.2344 9.8281-3.5 0.67188-0.54688 0.76562-1.5312 0.21875-2.2031s-1.5312-0.76562-2.2031-0.21875c-2.2031 1.7969-4.9844 2.7812-7.8594 2.7812-6.8906 0-12.5-5.6094-12.5-12.5s5.6094-12.5 12.5-12.5 12.5 5.6094 12.5 12.5c0 1.8438-0.39062 3.625-1.1875 5.3125-0.35938 0.78125-0.03125 1.7188 0.75 2.0781z"/>
 <path d="m69.203 50.609c1.0938 0.375 2.0938 0.90625 2.9844 1.5781l-15.297 15.297c-1.375-1.8281-2.1875-4.0781-2.1875-6.5312 0-0.90625 0.10938-1.8281 0.34375-2.75 0.20312-0.84375-0.29688-1.6875-1.1406-1.8906-0.84375-0.21875-1.6875 0.29688-1.8906 1.1406-0.29688 1.1562-0.4375 2.3438-0.4375 3.5 0 7.75 6.3125 14.062 14.062 14.062s14.062-6.3125 14.062-14.062c0-6-3.8125-11.344-9.4688-13.281-0.8125-0.28125-1.7031 0.15625-1.9844 0.96875s0.15625 1.7031 0.96875 1.9844zm7.3594 10.328c0 6.0312-4.9062 10.938-10.938 10.938-2.4531 0-4.7188-0.82812-6.5312-2.1875l15.281-15.281c1.375 1.8438 2.1875 4.125 2.1875 6.5312z"/>
 <path d="m30.938 36.484c0.8125-1.0781 2.0938-1.7188 3.4375-1.7188s2.625 0.64062 3.4375 1.7188c0.3125 0.40625 0.78125 0.625 1.25 0.625 0.32812 0 0.65625-0.10938 0.9375-0.3125 0.6875-0.51562 0.82812-1.5 0.3125-2.1875-1.3906-1.8594-3.6094-2.9688-5.9375-2.9688s-4.5312 1.1094-5.9375 2.9688c-0.51562 0.6875-0.375 1.6719 0.3125 2.1875s1.6719 0.375 2.1875-0.3125z"/>
 <path d="m40.625 25c0 2.082-3.125 2.082-3.125 0s3.125-2.082 3.125 0"/>
 <path d="m31.25 25c0 2.082-3.125 2.082-3.125 0s3.125-2.082 3.125 0"/>
</svg>