<svg xmlns="http://www.w3.org/2000/svg" viewBox="0 0 64 60" x="0px" y="0px" fill="rgba(128, 128, 128, 0.216)"><path d="m56,21c0-5.51-4.49-10-10-10-2.63,0-5.03,1.03-6.81,2.7-1.71-1.1-3.58-1.88-5.54-2.3.83-.89,1.36-2.08,1.36-3.4,0-2.76-2.24-5-5-5s-5,2.24-5,5c0,1.32.52,2.51,1.36,3.4-7.63,1.67-13.36,8.47-13.36,16.6v16.05c0,.8-.47,1.53-1.2,1.88-1.85.87-3.14,2.6-3.45,4.64l-.17,1.14c-.08.58.08,1.16.46,1.6.38.44.93.69,1.51.69h9.6c1.64,4.21,5.67,7,10.24,7s8.6-2.79,10.24-7h9.6c.58,0,1.13-.25,1.51-.69.38-.44.55-1.02.46-1.6l-.17-1.14c-.31-2.03-1.6-3.76-3.45-4.63-.73-.34-1.2-1.08-1.2-1.88v-13.1c5.05-.5,9-4.77,9-9.95Zm-10-8c4.41,0,8,3.59,8,8s-3.59,8-8,8-8-3.59-8-8,3.59-8,8-8Zm-19-5c0-1.65,1.35-3,3-3s3,1.35,3,3-1.35,3-3,3-3-1.35-3-3Zm3,51c-3.47,0-6.56-1.96-8.06-5h16.12c-1.5,3.04-4.59,5-8.06,5Zm17.34-11.27c1.25.59,2.12,1.76,2.33,3.12l.17,1.14H10.16s.17-1.14.17-1.14c.21-1.37,1.08-2.54,2.33-3.13,1.42-.67,2.34-2.12,2.34-3.68v-16.05c0-8.27,6.73-15,15-15,2.8,0,5.49.77,7.85,2.22-1.16,1.63-1.85,3.63-1.85,5.78,0,5.18,3.95,9.45,9,9.95v13.1c0,1.57.92,3.01,2.34,3.69Zm-5.59-23.91l2.83-2.83-2.83-2.83c-.39-.39-.39-1.02,0-1.41.39-.39,1.02-.39,1.41,0l2.83,2.83,2.83-2.83c.39-.39,1.02-.39,1.41,0,.39.39.39,1.02,0,1.41l-2.83,2.83,2.83,2.83c.39.39.39,1.02,0,1.41-.2.2-.45.29-.71.29s-.51-.1-.71-.29l-2.83-2.83-2.83,2.83c-.2.2-.45.29-.71.29s-.51-.1-.71-.29c-.39-.39-.39-1.02,0-1.41Z"/></svg>