<?xml version="1.0" standalone="no"?>
<svg version="1.1" id="Layer_1_15_" xmlns="http://www.w3.org/2000/svg" xmlns:xlink="http://www.w3.org/1999/xlink" x="0px" y="0px" viewBox="0 0 595.276 595.276" enable-background="new 0 0 595.276 595.276" xml:space="preserve">
<path id="color_x5F_6" fill-rule="evenodd" clip-rule="evenodd" fill="#FFCBD5" d="M292.71,353.318
	c0.683-0.047,1.386,0.092,2.036,0.435l-0.237-0.178c0.001,0.001,0.278,0.199,0.28,0.199l-0.038-0.015
	c0.077,0.04,0.143,0.092,0.215,0.137c0.094,0.092,0.205,0.165,0.326,0.214c1.09,0.838,1.625,2.189,1.436,3.522c0,0,0,0.001,0,0.002
	s0,0.003,0,0.004s0,0.002,0,0.004c-0.051,0.356-0.156,0.706-0.316,1.052c-2.918,6.272-8.141,17.502-8.141,17.502
	c-0.179,0.384-0.096,0.841,0.207,1.138c0,0,3.418,3.355,6.873,6.753c3.651,3.59,3.913,9.359,0.61,13.271
	c-5.215,6.178-11.168,13.232-11.896,14.095l-18.738-19.249c0.298-0.451,6.65-10.094,11.642-17.674
	c0.113-0.107,0.199-0.239,0.252-0.385c4.699-7.135,7.341-11.148,10.883-16.527c0.012-0.015,0.023-0.031,0.033-0.047
	c0.008-0.011,0.016-0.023,0.024-0.035c0.002-0.003,0.004-0.006,0.006-0.01c0.535-0.813,1.213-1.842,1.654-2.512
	C290.493,353.992,291.573,353.396,292.71,353.318L292.71,353.318L292.71,353.318z M270.249,373.975
	c0.168,0.006,0.336,0.023,0.503,0.047c1.954,0.281,2.872,0.413,3.796,0.544c-3.945,5.992-8.434,12.808-9.425,14.313
	c0.057-2.494,0.133-5.864,0.231-10.287c0.029-1.353,0.635-2.627,1.668-3.502C267.927,374.325,269.078,373.932,270.249,373.975
	L270.249,373.975L270.249,373.975z M161.669,375.621H132.73v-15.498c0.89-0.103,6.469-0.744,11.392-1.311
	c3.961-0.457,7.246-3.309,8.257-7.166c0.441-1.678,0.804-3.067,0.804-3.067c0.139-0.523-0.173-1.07-0.694-1.217
	c0,0-3.208-0.906-6.473-1.829c-3.401-0.961-5.517-4.307-4.931-7.793c0.342-2.03,1.56-3.804,3.332-4.852
	c1.771-1.047,3.912-1.262,5.854-0.583c2.078,0.727,3.693,1.297,3.693,1.297c0.274,0.097,0.575,0.071,0.828-0.072
	c0,0,2.474-1.432,5.035-4.971c2.451-3.387,4.97-8.918,5.899-16.935c1.029,0.108,5.032,0.018,9.902-1.196l0,0
	c0.175,0.965,3.432,18.971,5.954,32.905c-1.508,2.165-3.39,2.373-5.174,2.095c-1.866-0.29-3.398-1.218-3.398-1.218
	c-0.158-0.097-0.34-0.148-0.524-0.148c-0.548,0-1,0.45-1,1c0,0.347,0.181,0.669,0.476,0.851c0,0,1.804,1.128,4.138,1.49
	c1.815,0.283,4.087,0.015,5.93-1.583c0.082,0.453,0.123,0.677,0.203,1.12c0.551,3.043-0.136,6.176-1.902,8.713
	c-1.766,2.539-4.468,4.272-7.513,4.815c-5.322,0.948-10.329,1.843-10.329,1.843c-0.472,0.087-0.819,0.501-0.82,0.982V375.621
	L161.669,375.621z"></path>
<path id="color_x5F_5" fill-rule="evenodd" clip-rule="evenodd" fill="#FFD2BB" d="M263.235,384.144h-23.382
	c-6.887,0-13.489-2.733-18.359-7.603c-4.87-4.869-7.602-11.477-7.602-18.364s2.732-13.49,7.602-18.359
	c4.87-4.871,11.471-7.61,18.359-7.61l0,0h132.913c6.887,0,13.489,2.739,18.359,7.61c4.87,4.869,7.608,11.472,7.608,18.359
	c0,6.887-2.738,13.495-7.608,18.364c-4.87,4.87-11.472,7.603-18.359,7.603h-74.76c-0.377-0.519-0.792-1.02-1.263-1.483
	c-3.203-3.149-5.918-5.827-6.363-6.265c0.315-0.677,4.101-8.81,6.888-14.799h1.065l4.206,9.431c0.142,0.397,0.52,0.663,0.941,0.663
	c0.548,0,1-0.45,1-0.999c0-0.166-0.042-0.329-0.12-0.474l-4.3-9.638c-0.007-0.266-0.119-0.517-0.313-0.7l-1.022-2.29
	c0.165-1.955-0.672-3.892-2.274-5.096l-3.196-7.167c-0.167-0.374-0.548-0.607-0.957-0.588c-0.379,0.015-0.716,0.244-0.871,0.588
	l-4.988,11.182c-3.472,5.274-6.042,9.176-10.676,16.214c-0.51-0.073-2.292-0.327-4.723-0.677c-1.904-0.274-3.839,0.274-5.308,1.518
	c-1.468,1.242-2.332,3.059-2.374,4.984C263.304,380.953,263.286,381.757,263.235,384.144L263.235,384.144z M331.412,344.686
	c-0.429-0.003-0.814,0.271-0.953,0.677l-9.151,22.804l-11.236-22.871c-0.174-0.374-0.561-0.603-0.973-0.575
	c-0.52,0.037-0.928,0.475-0.928,0.997c0,0.159,0.038,0.316,0.11,0.456l12.224,24.89c0.168,0.339,0.515,0.554,0.894,0.554
	c0.408,0,0.776-0.25,0.928-0.628l9.982-24.882c0.062-0.133,0.094-0.278,0.094-0.423C332.403,345.14,331.957,344.69,331.412,344.686
	L331.412,344.686L331.412,344.686z M359.325,344.737H337.11c-0.545,0.002-0.993,0.449-0.995,0.995v12.125
	c-0.071,0.209-0.071,0.434,0,0.642v12.122c0.001,0.545,0.448,0.994,0.995,0.997h22.215c0.548,0,1-0.451,1-1c0-0.548-0.451-1-1-1
	h-21.212v-10.438h21.212c0.548,0,1-0.451,1-1c0-0.549-0.451-1-1-1h-21.212v-10.446h21.212c0.539-0.013,0.977-0.459,0.977-0.999
	C360.302,345.195,359.865,344.749,359.325,344.737z M253.301,369.619c-0.548,0-1,0.451-1,1c0,0.548,0.451,1,1,1h15.993
	c1.914,0,3.747-0.755,5.102-2.109c1.353-1.353,2.116-3.196,2.116-5.111s-0.763-3.755-2.116-5.109
	c-1.354-1.353-3.188-2.108-5.102-2.108h-9.777c-1.385,0-2.708-0.554-3.687-1.534c-0.98-0.979-1.533-2.307-1.533-3.693
	c0-1.385,0.553-2.715,1.533-3.695c0.979-0.98,2.301-1.525,3.687-1.525h15.993c0.007,0,0.015,0,0.022,0c0.548,0,1-0.451,1-0.999
	c0-0.548-0.451-1-1-1c-0.007,0-0.015,0-0.022,0.001h-15.993c-1.915,0-3.747,0.76-5.101,2.114c-1.354,1.353-2.116,3.188-2.116,5.103
	s0.762,3.755,2.116,5.109c1.353,1.354,3.186,2.116,5.101,2.117h9.777c1.384,0,2.708,0.545,3.688,1.525
	c0.98,0.98,1.533,2.307,1.533,3.693s-0.553,2.715-1.533,3.695c-0.98,0.98-2.303,1.526-3.688,1.526L253.301,369.619L253.301,369.619z
	 M151.557,280.933c4.946,0.062,9.51,0.872,12.973,2.407c8.408,3.728,14.081,4.607,17.719,4.512c1.796-0.047,3.071-0.34,3.944-0.633
	c1.205,6.211,0.771,10.819-0.761,13.994c-1.646,3.413-4.384,5.456-7.393,6.717c-6.019,2.521-12.976,1.689-12.976,1.689
	c-0.043-0.005-0.085-0.008-0.128-0.008c-0.51,0-0.943,0.392-0.994,0.9c-0.78,8.287-3.37,13.616-5.73,16.876
	c-2.215,3.062-3.906,4.003-4.135,4.138c-0.39-0.136-1.38-0.487-3.149-1.106v0.008c-2.496-0.875-5.25-0.611-7.528,0.735
	c-2.277,1.346-3.844,3.638-4.284,6.246l-0.013,0.162c0-0.021,0-0.042,0.002-0.063c-0.696,4.44,2.034,8.724,6.367,9.949
	c2.788,0.788,4.789,1.355,5.53,1.565c-0.138,0.522-0.249,0.964-0.552,2.122c-0.804,3.067-3.405,5.321-6.555,5.684
	c-5.156,0.594-11.555,1.336-11.931,1.379c-0.348-0.165-18.026-8.58-22.862-24.338c-2.451-7.982-0.807-13.849,1.415-17.806
	c2.223-3.957,4.991-5.913,4.991-5.913c0.325-0.228,0.484-0.629,0.406-1.019c-1.25-6.14,0.113-11.129,3.111-15.224
	c2.998-4.094,7.691-7.269,13.101-9.446c5.411-2.176,11.531-3.335,17.29-3.51C150.135,280.931,150.851,280.924,151.557,280.933
	L151.557,280.933L151.557,280.933z M292.341,348.194l1.43,3.195c-0.749-0.104-1.505-0.07-2.227,0.115
	c-0.278,0.071-0.543,0.176-0.808,0.287L292.341,348.194L292.341,348.194z M347.882,286.15H277.13c-0.283,0-0.558-0.03-0.825-0.082
	c-0.801-0.163-1.542-0.561-2.13-1.15c-0.587-0.586-0.98-1.328-1.142-2.13c-0.052-0.267-0.084-0.541-0.084-0.825v-0.008
	c0-0.284,0.031-0.559,0.084-0.827c0.161-0.801,0.553-1.542,1.142-2.13c0.786-0.786,1.845-1.23,2.955-1.23l0,0h70.752
	c2.324,0,4.18,1.865,4.18,4.188v0.008C352.062,284.287,350.206,286.15,347.882,286.15L347.882,286.15z"></path>
<path id="color_x5F_4" fill-rule="evenodd" clip-rule="evenodd" fill="#00CEC9" d="M196.397,506.779h-77.344l-0.807-10.682
	l-0.806-10.714c-0.002-0.012-0.004-0.025-0.006-0.037l-2.939-38.916c0.029-0.164,0.016-0.334-0.037-0.491l-4.218-55.835
	c1.141-1.248,2.486-2.306,3.999-3.106c6.537-3.457,17.467-9.235,17.741-9.379v-0.001h30.431l7.81,4.179
	c-3.76,0.035-7.484,1.42-10.505,4.058c-0.004,0.004-0.01,0.004-0.013,0.008c-0.126,0.045-0.242,0.116-0.34,0.207
	c-3.301,3.036-5.205,7.297-5.258,11.781c-0.053,4.484,1.749,8.793,4.976,11.907c9.651,9.31,22.294,23.511,33.729,35.871
	L196.397,506.779L196.397,506.779z M442.898,414.373L442.898,414.373L442.898,414.373L442.898,414.373
	c11.619,9.21,21.339,29.704,22.082,53.303c0.032,0.96,0.051,1.925,0.051,2.895c0,13.423-2.953,25.961-7.558,36.208h-13.573v-65.628
	c0-0.006,0-0.012,0-0.018c0-0.547-0.451-0.999-0.999-0.999c-0.007,0-0.013,0-0.02,0c-0.541,0.01-0.982,0.457-0.982,0.999
	c0,0.006,0.001,0.012,0.001,0.018v65.628h-13.574c-4.382-9.753-7.262-21.584-7.53-34.276c-0.014-0.643-0.026-1.287-0.026-1.935
	c0-0.316,0.006-0.629,0.01-0.944C421.034,445.212,430.962,423.837,442.898,414.373L442.898,414.373z M108.416,392.56v-0.001l0,0
	V392.56l4.054,53.626l-6.51,16.347c-0.097,0.244-0.095,0.517,0.008,0.759l9.487,22.403l1.594,21.083H98.867
	c-0.325-0.688-10.49-22.29-17.104-36.335c-3.259-6.92-3.245-14.933,0.029-21.845c7.484-15.797,20.718-43.726,25.983-54.84
	C107.969,393.348,108.186,392.949,108.416,392.56L108.416,392.56z M487.106,506.779h-24.95l33.723-40.197
	c0.157-0.182,0.243-0.414,0.243-0.653c0-0.548-0.45-1-0.999-1c-0.004,0-0.007,0-0.011,0c-0.295,0.005-0.573,0.141-0.759,0.37
	l-34.432,41.026c4.387-10.265,7.108-22.614,7.108-35.754c0-0.856-0.015-1.71-0.037-2.56c14.114-14.036,31.412-21.488,44.134-21.159
	l0,0c2.867,14.083-3.031,35.662-17.894,53.372C491.278,502.553,489.222,504.731,487.106,506.779L487.106,506.779z M373.7,446.852
	h0.002c13.009-0.34,30.802,7.469,45.085,22.119c-0.008,0.532-0.014,1.066-0.014,1.6c0,0.843,0.011,1.683,0.034,2.518
	c0.327,12.392,3.049,23.991,7.266,33.69h-0.784l-34.806-41.481c-0.193-0.238-0.484-0.374-0.79-0.37
	c-0.543,0.007-0.987,0.456-0.987,1c0,0.24,0.087,0.471,0.244,0.653l33.731,40.197h-24.959c-2.114-2.047-4.173-4.227-6.128-6.555
	C376.732,482.513,370.834,460.934,373.7,446.852L373.7,446.852z M170.577,383.768c2.133,0.033,4.256,0.552,6.202,1.539l0.437,0.234
	c1.107,0.611,2.152,1.371,3.099,2.298c14.969,14.653,37.847,41.575,37.847,41.575c0.349,0.413,0.973,0.473,1.392,0.133
	l44.415-35.869l18.698,19.207c-1.02,0.901-35.897,31.743-54.031,47.776c-5.475,4.843-13.731,4.66-18.993-0.413
	c-4.361-4.207-9.539-9.689-14.997-15.585c-0.076-0.131-0.18-0.243-0.305-0.328c-11.41-12.336-24.109-26.594-33.875-36.014
	c-2.832-2.732-4.413-6.512-4.366-10.446c0.047-3.931,1.711-7.666,4.601-10.33c0.003-0.003,0.006-0.005,0.008-0.008
	C163.503,384.968,167.051,383.713,170.577,383.768L170.577,383.768L170.577,383.768z M373.7,446.852L373.7,446.852L373.7,446.852z"></path>
<path id="color_x5F_3" fill-rule="evenodd" clip-rule="evenodd" fill="#E84393" d="M420.064,298.897
	c0.063,0.308,0.061,0.297,0.125,0.612c0.892,4.357,4.3,7.772,8.656,8.664c0.308,0.063,0.297,0.056,0.597,0.117
	c-0.301,0.062-0.289,0.062-0.597,0.125c-4.356,0.892-7.764,4.302-8.656,8.658c-0.064,0.316-0.062,0.304-0.125,0.611
	c-0.063-0.308-0.062-0.296-0.127-0.611c-0.891-4.356-4.299-7.766-8.656-8.658c-0.308-0.063-0.296-0.063-0.596-0.125
	c0.3-0.061,0.289-0.054,0.596-0.117c4.357-0.892,7.765-4.307,8.656-8.664C420.002,299.194,420.001,299.205,420.064,298.897
	L420.064,298.897z M249.232,299.709h-22.303v-11.561h22.303V299.709z M388.109,286.15h-35.697c1.019-1.105,1.648-2.573,1.648-4.187
	v-0.008c0-1.584-0.605-3.028-1.648-4.188h35.697c1.111,0,2.177,0.444,2.963,1.23c0.785,0.786,1.226,1.847,1.226,2.957v0.008
	c0,1.111-0.44,2.171-1.226,2.955C390.286,285.704,389.219,286.15,388.109,286.15L388.109,286.15z M245.052,275.769h-16.547v-11.56
	h16.547V275.769z M241.998,265.387c-0.545,0.01-0.988,0.465-0.981,1.011v6.054c0,0.548,0.451,1,1,1c0.548,0,1-0.451,1-1v-6.054
	c0-0.004,0-0.008,0-0.012c0-0.547-0.451-0.999-0.999-0.999H241.998L241.998,265.387z M155.699,220.5
	c0.257,0.17,0.244,0.165,0.507,0.34c3.71,2.45,8.536,2.45,12.246,0c0.266-0.176,0.258-0.169,0.517-0.34
	c-0.171,0.26-0.164,0.251-0.34,0.516c-2.45,3.711-2.45,8.537,0,12.247c0.173,0.262,0.163,0.255,0.332,0.509
	c-0.257-0.17-0.246-0.166-0.509-0.34c-3.711-2.45-8.536-2.45-12.246,0c-0.26,0.171-0.249,0.165-0.501,0.332
	c0.167-0.253,0.161-0.243,0.332-0.501c2.449-3.711,2.449-8.537,0-12.247C155.861,220.751,155.869,220.759,155.699,220.5
	L155.699,220.5z M416.539,156.792c-0.171,0.259-0.164,0.249-0.34,0.514c-2.45,3.711-2.45,8.536,0,12.247
	c0.171,0.259,0.165,0.249,0.332,0.501c-0.253-0.167-0.242-0.161-0.501-0.332c-3.712-2.45-8.536-2.45-12.246,0
	c-0.264,0.174-0.253,0.171-0.509,0.34c0.168-0.256,0.159-0.248,0.332-0.509c2.449-3.712,2.449-8.537,0-12.247
	c-0.175-0.264-0.169-0.259-0.336-0.512c0.256,0.169,0.249,0.161,0.513,0.336c3.711,2.449,8.535,2.449,12.246,0L416.539,156.792z
	 M192.791,104.502c0.061,0.301,0.063,0.289,0.127,0.597c0.891,4.356,4.299,7.764,8.656,8.656c0.315,0.064,0.303,0.064,0.61,0.127
	c-0.308,0.063-0.296,0.06-0.61,0.125c-4.357,0.892-7.765,4.299-8.656,8.656c-0.064,0.309-0.066,0.296-0.127,0.597
	c-0.062-0.301-0.055-0.29-0.118-0.597c-0.891-4.357-4.307-7.764-8.663-8.656c-0.316-0.065-0.306-0.062-0.613-0.125
	c0.308-0.063,0.298-0.062,0.613-0.127c4.356-0.892,7.772-4.3,8.663-8.656C192.736,104.791,192.729,104.802,192.791,104.502z
	 M365.289,102.725h-13.529V89.196L365.289,102.725z"></path>
<path id="color_x5F_2" fill-rule="evenodd" clip-rule="evenodd" fill="#FBC02D" d="M224.929,299.709h-1.546
	c-0.812,0-1.589-0.32-2.162-0.892c-0.573-0.574-0.899-1.349-0.899-2.161V267.26c0-1.7,1.359-3.05,3.061-3.05h-0.001h3.125v12.563
	c0.003,0.544,0.45,0.993,0.995,0.995h18.553c0.544-0.002,0.993-0.45,0.995-0.995v-12.563h1.525l7.255,7.246v25.201
	c0,1.702-1.357,3.052-3.059,3.053h-1.541v-12.564c-0.001-0.546-0.451-0.997-0.999-0.997h-0.004h-24.301
	c-0.032-0.001-0.065-0.001-0.097,0c-0.509,0.051-0.901,0.485-0.9,0.997V299.709z M357.533,246.668h-102.44
	c-5.076,0-9.165-4.097-9.165-9.172V96.96c0-5.075,4.089-9.172,9.165-9.172h94.668v15.94c0.001,0.547,0.451,0.997,0.999,0.997
	c0.002,0,0.004,0,0.006,0h15.932v132.771C366.697,242.571,362.608,246.668,357.533,246.668L357.533,246.668z M339.484,204.096
	H272.05c-0.519,0.039-0.927,0.476-0.927,0.998c0,0.548,0.452,1.001,1.001,1.001c0.01,0,0.02-0.001,0.03-0.001h67.331
	c0.539-0.012,0.976-0.459,0.976-0.999C340.46,204.556,340.024,204.108,339.484,204.096L339.484,204.096z M339.484,185.162H272.05
	c-0.519,0.039-0.927,0.476-0.927,0.998c0,0.548,0.451,1,1.001,1c0.01,0,0.02,0,0.03,0h67.331c0.539-0.012,0.977-0.459,0.977-0.999
	C340.461,185.621,340.024,185.174,339.484,185.162z M339.484,166.228H272.05c-0.529,0.028-0.95,0.47-0.95,1
	c0,0.549,0.452,1.001,1.002,1.001c0.017,0,0.034,0,0.052-0.001h67.331c0.548,0,1-0.451,1-1
	C340.484,166.679,340.033,166.228,339.484,166.228L339.484,166.228z M339.484,147.296h-67.331c-0.54,0.012-0.978,0.458-0.978,0.999
	c0,0.539,0.437,0.987,0.978,0.999h67.331c0.539-0.012,0.977-0.459,0.977-0.999C340.461,147.754,340.024,147.308,339.484,147.296z
	 M339.484,128.362h-67.331c-0.54,0.012-0.977,0.459-0.977,0.999c0,0.539,0.436,0.987,0.977,0.999h67.331
	c0.539-0.012,0.976-0.459,0.976-0.999C340.46,128.821,340.024,128.374,339.484,128.362z"></path>
<path id="color_x5F_1" fill-rule="evenodd" clip-rule="evenodd" fill="#0984E3" d="M350.75,85.776
	c-0.035,0-0.069,0.002-0.104,0.006c-0.016,0.002-0.032,0.005-0.048,0.008h-95.505c-6.156,0-11.162,5.015-11.162,11.17v140.535
	c0,6.155,5.007,11.163,11.162,11.163h102.44c6.155,0,11.161-5.008,11.163-11.163V103.811c0.028-0.326-0.106-0.645-0.358-0.854
	l-16.792-16.797C351.355,85.916,351.06,85.774,350.75,85.776L350.75,85.776L350.75,85.776z M255.092,87.788h94.668v15.94
	c0.001,0.547,0.451,0.997,0.999,0.997c0.002,0,0.004,0,0.006,0h15.932v132.771c-0.001,5.075-4.09,9.172-9.165,9.172h-102.44
	c-5.076,0-9.165-4.097-9.165-9.172V96.96C245.928,91.885,250.017,87.788,255.092,87.788L255.092,87.788z M351.761,89.196
	l13.529,13.529h-13.529V89.196z M192.761,98.523c-0.458,0.016-0.851,0.346-0.944,0.796c0,0-0.535,2.606-1.105,5.381
	c-0.732,3.579-3.523,6.369-7.1,7.101c-2.776,0.568-5.382,1.098-5.382,1.098c-0.466,0.092-0.806,0.505-0.806,0.981
	c0,0.475,0.34,0.889,0.806,0.98c0,0,2.607,0.532,5.382,1.101c3.578,0.732,6.368,3.529,7.1,7.106
	c0.568,2.776,1.105,5.382,1.105,5.382c0.097,0.46,0.506,0.792,0.977,0.792c0.47,0,0.881-0.332,0.978-0.792
	c0,0,0.537-2.607,1.106-5.382c0.733-3.578,3.523-6.374,7.101-7.106c2.776-0.568,5.382-1.101,5.382-1.101
	c0.467-0.091,0.807-0.504,0.807-0.98c0-0.475-0.34-0.889-0.807-0.981c0,0-2.606-0.529-5.382-1.098
	c-3.579-0.732-6.368-3.523-7.101-7.101c-0.568-2.775-1.106-5.381-1.106-5.381C193.674,98.844,193.244,98.507,192.761,98.523
	L192.761,98.523z M192.791,104.502c0.061,0.301,0.063,0.289,0.127,0.597c0.891,4.356,4.299,7.764,8.656,8.656
	c0.315,0.064,0.303,0.064,0.61,0.127c-0.308,0.063-0.296,0.06-0.61,0.125c-4.357,0.892-7.765,4.299-8.656,8.656
	c-0.064,0.309-0.066,0.296-0.127,0.597c-0.062-0.301-0.055-0.29-0.118-0.597c-0.891-4.357-4.307-7.764-8.663-8.656
	c-0.316-0.065-0.306-0.062-0.613-0.125c0.308-0.063,0.298-0.062,0.613-0.127c4.356-0.892,7.772-4.3,8.663-8.656
	C192.736,104.791,192.729,104.802,192.791,104.502z M272.154,128.362c-0.54,0.012-0.977,0.459-0.977,0.999
	c0,0.539,0.436,0.987,0.977,0.999h67.331c0.539-0.012,0.976-0.459,0.976-0.999c0-0.539-0.436-0.987-0.976-0.999H272.154
	L272.154,128.362z M272.154,147.296c-0.54,0.012-0.978,0.458-0.978,0.999c0,0.539,0.437,0.987,0.978,0.999h67.331
	c0.539-0.012,0.977-0.459,0.977-0.999c0-0.54-0.437-0.987-0.977-0.999H272.154L272.154,147.296z M399.728,152.272
	c-0.538,0.014-0.974,0.46-0.974,0.999c0,0.195,0.057,0.386,0.165,0.548c0,0,1.46,2.221,3.021,4.586
	c2.012,3.047,2.012,6.994,0,10.043c-1.561,2.364-3.021,4.585-3.021,4.585c-0.106,0.163-0.162,0.352-0.162,0.545
	c0,0.547,0.45,0.999,0.999,0.999c0.192,0,0.379-0.055,0.539-0.159c0,0,2.221-1.468,4.586-3.029c3.047-2.013,6.995-2.013,10.043,0
	c2.364,1.561,4.586,3.029,4.586,3.029c0.164,0.109,0.357,0.168,0.553,0.168c0.548,0,0.999-0.451,0.999-0.999
	c0-0.198-0.058-0.39-0.168-0.554c0,0-1.468-2.221-3.029-4.585c-2.013-3.049-2.013-6.996,0-10.043
	c1.561-2.365,3.029-4.586,3.029-4.586c0.104-0.161,0.159-0.349,0.159-0.539c0-0.548-0.45-0.999-0.999-0.999
	c-0.194,0-0.383,0.056-0.544,0.161c0,0-2.222,1.461-4.586,3.022c-3.048,2.012-6.996,2.012-10.043,0
	c-2.365-1.561-4.586-3.022-4.586-3.022C400.128,152.329,399.929,152.27,399.728,152.272z M416.539,156.792
	c-0.171,0.259-0.164,0.249-0.34,0.514c-2.45,3.711-2.45,8.536,0,12.247c0.171,0.259,0.165,0.249,0.332,0.501
	c-0.253-0.167-0.242-0.161-0.501-0.332c-3.712-2.45-8.536-2.45-12.246,0c-0.264,0.174-0.253,0.171-0.509,0.34
	c0.168-0.256,0.159-0.248,0.332-0.509c2.449-3.712,2.449-8.537,0-12.247c-0.175-0.264-0.169-0.259-0.336-0.512
	c0.256,0.169,0.249,0.161,0.513,0.336c3.711,2.449,8.535,2.449,12.246,0C416.294,156.955,416.283,156.961,416.539,156.792z
	 M272.05,166.228c-0.529,0.027-0.95,0.47-0.95,1c0,0.549,0.452,1.001,1.002,1.001c0.017,0,0.034,0,0.052-0.001h67.331
	c0.548,0,1-0.451,1-1c0-0.548-0.451-1-1-1h-67.331C272.119,166.226,272.085,166.226,272.05,166.228L272.05,166.228z M272.05,185.162
	c-0.519,0.039-0.927,0.476-0.927,0.998c0,0.548,0.451,1,1.001,1c0.01,0,0.02,0,0.03,0h67.331c0.539-0.012,0.977-0.459,0.977-0.999
	c0-0.539-0.437-0.987-0.977-0.999h-67.331C272.119,185.16,272.085,185.16,272.05,185.162L272.05,185.162z M272.05,204.096
	c-0.519,0.039-0.927,0.476-0.927,0.998c0,0.548,0.452,1.001,1.001,1.001c0.01,0,0.02-0.001,0.03-0.001h67.331
	c0.539-0.012,0.976-0.459,0.976-0.999c0-0.539-0.436-0.987-0.976-0.999h-67.331C272.119,204.094,272.085,204.094,272.05,204.096
	L272.05,204.096z M152.158,215.982c-0.543,0.007-0.987,0.456-0.987,0.999c0,0.199,0.059,0.392,0.17,0.556
	c0,0,1.468,2.213,3.029,4.578c2.012,3.047,2.012,6.996,0,10.043c-1.561,2.365-3.029,4.586-3.029,4.586
	c-0.11,0.164-0.168,0.357-0.168,0.553c0,0.547,0.45,0.999,0.999,0.999c0.197,0,0.39-0.058,0.553-0.168c0,0,2.221-1.46,4.586-3.021
	c3.048-2.013,6.995-2.013,10.043,0c2.364,1.561,4.586,3.021,4.586,3.021c0.162,0.105,0.35,0.161,0.542,0.161c0.548,0,1-0.45,1-0.999
	c0-0.194-0.057-0.385-0.164-0.546c0,0-1.462-2.221-3.023-4.586c-2.013-3.047-2.013-6.996,0-10.043
	c1.561-2.365,3.023-4.578,3.023-4.578c0.107-0.163,0.164-0.353,0.164-0.546c0-0.548-0.451-0.999-1-0.999
	c-0.193,0-0.381,0.055-0.542,0.16c0,0-2.222,1.461-4.586,3.022c-3.048,2.013-6.995,2.013-10.043,0
	c-2.365-1.561-4.586-3.022-4.586-3.022C152.557,216.04,152.36,215.98,152.158,215.982L152.158,215.982z M155.699,220.5
	c0.257,0.17,0.244,0.165,0.507,0.34c3.71,2.45,8.536,2.45,12.246,0c0.266-0.176,0.258-0.169,0.517-0.34
	c-0.171,0.26-0.164,0.251-0.34,0.516c-2.45,3.711-2.45,8.537,0,12.247c0.173,0.262,0.163,0.255,0.332,0.509
	c-0.257-0.17-0.246-0.166-0.509-0.34c-3.711-2.45-8.536-2.45-12.246,0c-0.26,0.171-0.249,0.165-0.501,0.332
	c0.167-0.253,0.161-0.243,0.332-0.501c2.449-3.711,2.449-8.537,0-12.247C155.861,220.751,155.869,220.759,155.699,220.5
	L155.699,220.5z M323.86,260.196c-0.008,0-0.017,0-0.026,0c-0.547,0-0.999,0.45-0.999,0.999c0,0.158,0.038,0.314,0.11,0.454
	l5.096,10.374c0.166,0.345,0.516,0.564,0.899,0.564c0.409,0,0.778-0.251,0.929-0.631l4.159-10.373
	c0.053-0.125,0.081-0.26,0.081-0.396c0-0.548-0.451-1.001-1.001-1.001c-0.416,0-0.792,0.261-0.938,0.651l-3.326,8.294l-4.106-8.361
	C324.578,260.43,324.238,260.206,323.86,260.196L323.86,260.196z M337.184,260.196c-0.544,0.005-0.99,0.454-0.99,0.999
	c0,0.007,0.001,0.013,0.001,0.02v10.373c0.012,0.539,0.458,0.977,0.999,0.977c0.539,0,0.987-0.437,0.999-0.977v-10.373
	c0-0.007,0-0.013,0-0.02c0-0.548-0.451-0.999-0.999-0.999C337.19,260.196,337.187,260.196,337.184,260.196z M351.591,260.196
	c-0.541,0.01-0.982,0.457-0.982,0.999c0,0.007,0,0.013,0,0.02v7.756l-7.52-8.427c-0.19-0.21-0.458-0.33-0.741-0.33
	c-0.548,0-0.999,0.45-0.999,0.999c0,0.001,0,0.001,0,0.002v10.373c0.012,0.539,0.459,0.977,0.999,0.977s0.987-0.437,0.999-0.977
	v-7.756l7.514,8.419c0.19,0.214,0.461,0.337,0.747,0.337c0.548,0,0.999-0.451,0.999-1l0,0v-10.373c0-0.007,0.001-0.013,0.001-0.02
	c0-0.548-0.451-0.999-1-0.999C351.603,260.196,351.597,260.196,351.591,260.196z M303.143,260.212c-1.972,0-3.592,1.619-3.592,3.591
	c0,1.973,1.62,3.598,3.592,3.598h4.069c0.892,0,1.592,0.7,1.592,1.592c0,0.892-0.699,1.593-1.592,1.593h-6.666
	c-0.539,0.012-0.977,0.459-0.977,0.999c0,0.54,0.437,0.987,0.977,0.999h6.666c1.972,0,3.59-1.619,3.59-3.591
	c0-1.972-1.617-3.59-3.59-3.59h-4.069c-0.892,0-1.602-0.707-1.602-1.6c0-0.892,0.71-1.593,1.602-1.593h6.664
	c0.007,0,0.015,0,0.022,0c0.548,0,0.999-0.451,0.999-0.999c0-0.548-0.45-1-0.999-1c-0.007,0-0.015,0-0.022,0.001H303.143z
	 M317.845,260.212c-0.376,0.018-0.709,0.247-0.863,0.588l-2.661,5.962c-0.123,0.146-0.202,0.323-0.228,0.511l-1.742,3.901
	c-0.06,0.13-0.09,0.272-0.09,0.414c0,0.547,0.45,0.999,0.999,0.999c0.394,0,0.753-0.234,0.913-0.593l1.601-3.584h4.24l1.597,3.584
	c0.16,0.361,0.519,0.594,0.914,0.594c0.547,0,0.999-0.451,0.999-0.999c0-0.144-0.031-0.285-0.091-0.415l-1.865-4.178
	c-0.001-0.003-0.003-0.006-0.004-0.008l-2.762-6.189c-0.168-0.374-0.549-0.608-0.958-0.589L317.845,260.212L317.845,260.212z
	 M355.439,260.212c-0.547,0.002-0.997,0.454-0.995,1.003v4.999c-0.02,0.115-0.02,0.232,0,0.346v5.029
	c0.002,0.545,0.45,0.993,0.995,0.995h9.261c0.544-0.002,0.993-0.449,0.995-0.995v-5.191c-0.002-0.545-0.45-0.993-0.995-0.995h-8.266
	v-3.193h8.266c0.007,0,0.015,0,0.022,0c0.548,0,0.999-0.451,0.999-0.999c0-0.548-0.45-1-0.999-1c-0.007,0-0.015,0-0.022,0.001
	L355.439,260.212L355.439,260.212z M227.489,262.196c-0.049,0.001-0.097,0.006-0.145,0.014h-3.962c-2.781,0-5.058,2.27-5.058,5.05
	v29.396c0,1.341,0.534,2.628,1.482,3.576c0.948,0.948,2.236,1.475,3.576,1.475h2.458c0.056,0.004,0.112,0.004,0.168,0h24.135
	c0.056,0.004,0.113,0.004,0.168,0h2.46c2.781,0,5.059-2.27,5.059-5.051v-25.614c-0.003-0.263-0.11-0.514-0.297-0.7l-7.837-7.844
	c-0.188-0.187-0.443-0.291-0.708-0.289h-2.868c-0.042-0.003-0.083-0.003-0.125,0h-18.322
	C227.613,262.199,227.551,262.195,227.489,262.196L227.489,262.196z M317.895,263.663l1.228,2.751h-2.456L317.895,263.663z
	 M223.382,264.209h3.125v12.563c0.003,0.544,0.45,0.993,0.995,0.995h18.553c0.544-0.002,0.993-0.45,0.995-0.995v-12.563h1.525
	l7.255,7.246v25.201c0,1.702-1.357,3.053-3.059,3.053h-1.541v-12.564c-0.001-0.546-0.451-0.997-0.999-0.997
	c-0.001,0-0.002,0-0.004,0h-24.301c-0.032-0.001-0.065-0.001-0.097,0c-0.509,0.051-0.901,0.485-0.9,0.997v12.564h-1.546
	c-0.812,0-1.589-0.32-2.162-0.892c-0.573-0.574-0.899-1.349-0.899-2.161V267.26C220.322,265.56,221.681,264.209,223.382,264.209
	L223.382,264.209L223.382,264.209z M228.505,264.209h16.547v11.56h-16.547V264.209z M241.998,265.387
	c-0.545,0.01-0.988,0.465-0.981,1.011v6.054c0,0.548,0.451,1,1,1c0.548,0,1-0.451,1-1v-6.054c0-0.004,0-0.008,0-0.012
	c0-0.547-0.451-0.999-0.999-0.999C242.011,265.387,242.005,265.387,241.998,265.387L241.998,265.387z M356.434,267.4h7.263v3.185
	h-7.263V267.4z M277.13,275.769c-0.212,0-0.421,0.01-0.63,0.031c-0.049,0.005-0.096,0.015-0.144,0.022
	c-0.157,0.019-0.315,0.042-0.468,0.074c-0.009,0.002-0.017,0.004-0.026,0.006c-0.186,0.039-0.369,0.086-0.549,0.142
	c-0.074,0.023-0.145,0.053-0.217,0.078c-0.12,0.042-0.241,0.082-0.358,0.131c-0.031,0.013-0.06,0.029-0.091,0.043
	c-0.697,0.307-1.34,0.739-1.889,1.287c-0.978,0.978-1.586,2.251-1.754,3.61c-0.006,0.047-0.015,0.094-0.019,0.142
	c-0.021,0.206-0.034,0.413-0.034,0.62v0.008c0,0.209,0.013,0.415,0.034,0.62c0.005,0.048,0.013,0.095,0.019,0.143
	c0.168,1.358,0.775,2.631,1.754,3.609c0.536,0.536,1.163,0.959,1.842,1.264c0.047,0.021,0.091,0.046,0.138,0.066
	c0.085,0.036,0.174,0.064,0.26,0.096c0.111,0.041,0.223,0.084,0.336,0.119c0.018,0.005,0.035,0.009,0.053,0.014
	c0.171,0.051,0.344,0.097,0.52,0.133c0.106,0.021,0.214,0.033,0.321,0.048c0.091,0.014,0.181,0.032,0.273,0.041
	c0.209,0.022,0.418,0.034,0.63,0.034h110.979c1.64,0,3.22-0.655,4.38-1.815c1.159-1.159,1.807-2.732,1.807-4.372v-0.008
	c0-1.64-0.648-3.212-1.807-4.372c-1.16-1.16-2.74-1.814-4.38-1.814L277.13,275.769L277.13,275.769z M277.13,277.767h70.752
	c2.324,0,4.18,1.865,4.18,4.188v0.008c0,2.324-1.856,4.187-4.18,4.187H277.13c-0.283,0-0.558-0.03-0.825-0.082
	c-0.801-0.163-1.542-0.561-2.13-1.15c-0.587-0.586-0.98-1.328-1.142-2.13c-0.052-0.267-0.084-0.541-0.084-0.825v-0.008
	c0-0.284,0.031-0.559,0.084-0.827c0.161-0.801,0.553-1.542,1.142-2.13C274.96,278.211,276.019,277.767,277.13,277.767
	L277.13,277.767L277.13,277.767z M352.412,277.767h35.697c1.111,0,2.177,0.444,2.963,1.23c0.785,0.786,1.226,1.847,1.226,2.957
	v0.008c0,1.111-0.44,2.171-1.226,2.955c-0.786,0.786-1.853,1.232-2.963,1.232h-35.697c1.019-1.105,1.648-2.573,1.648-4.187v-0.008
	C354.06,280.341,353.432,278.871,352.412,277.767L352.412,277.767z M151.571,278.889c-0.736-0.009-1.479-0.002-2.227,0.021
	c-5.987,0.187-12.3,1.424-17.961,3.701c-5.661,2.277-10.681,5.62-13.973,10.117c-3.196,4.366-4.598,9.878-3.449,16.264
	c-0.401,0.295-2.928,2.062-5.191,6.09c-2.437,4.338-4.186,10.878-1.579,19.37c5.079,16.545,22.513,24.836,23.543,25.318v16.244
	c-0.637,0.338-11.007,5.825-17.43,9.221c-1.78,0.941-3.354,2.196-4.676,3.68c-0.128,0.091-0.233,0.211-0.307,0.35
	c-0.93,1.103-1.727,2.319-2.352,3.64c-5.265,11.114-18.499,39.043-25.983,54.84c-3.53,7.451-3.543,16.099-0.031,23.558
	c6.46,13.718,15.942,33.846,16.71,35.479H69.117c-0.539,0.012-0.976,0.459-0.976,0.999c0,0.539,0.436,0.987,0.976,0.999h358.451
	c0.012,0,0.025,0,0.037,0h15.207c0.056,0.005,0.112,0.005,0.168,0h16.947c0.054,0.004,0.108,0.004,0.162,0h65.298
	c0.007,0,0.015,0,0.022,0c0.548,0,0.999-0.45,0.999-0.999s-0.45-0.999-0.999-0.999c-0.007,0-0.015,0-0.022,0h-35.412
	c1.646-1.669,3.248-3.424,4.792-5.266c15.485-18.453,21.732-40.965,18.256-55.975c-0.1-0.433-0.478-0.751-0.923-0.774
	c-13.258-0.704-30.719,6.702-45.219,20.553c-1.29-23.583-11.124-43.956-23.38-53.178c-0.188-0.142-0.42-0.212-0.655-0.199
	c-0.198,0.01-0.388,0.08-0.546,0.199c-12.409,9.338-22.334,30.106-23.423,54.066c-14.673-14.426-32.61-22.16-46.147-21.441
	c-0.442,0.026-0.816,0.343-0.915,0.774c-3.476,15.01,2.77,37.523,18.255,55.975c1.545,1.842,3.147,3.597,4.793,5.266H198.399
	l-3.455-58.851c4.814,5.171,9.385,9.965,13.316,13.756c5.998,5.785,15.463,5.994,21.706,0.472
	c18.398-16.267,54.811-48.468,54.811-48.468c0.002-0.002,0.003-0.003,0.004-0.004c0.036-0.032,0.069-0.066,0.1-0.102
	c0,0,7.08-8.39,12.608-14.937c3.017-3.575,3.54-8.469,1.689-12.504h73.589c7.416,0,14.529-2.947,19.773-8.192
	c5.244-5.244,8.191-12.357,8.191-19.772c0-7.416-2.947-14.531-8.191-19.775c-5.244-5.246-12.357-8.191-19.773-8.191H239.853
	c-7.416,0-14.523,2.945-19.767,8.191c-5.245,5.244-8.191,12.359-8.191,19.775c0,7.415,2.946,14.528,8.191,19.772
	c5.244,5.245,12.351,8.192,19.767,8.192h23.337c-0.046,2.099-0.12,5.487-0.125,5.702l-44.033,35.55
	c-0.768-0.904-22.461-26.439-37.314-40.979c-0.735-0.719-1.526-1.349-2.353-1.902c-0.083-0.103-0.186-0.188-0.303-0.25l-1.075-0.575
	c-0.047-0.025-0.093-0.05-0.14-0.075l-14.181-7.59v-11.891c0.709-0.126,4.608-0.823,9.505-1.695
	c3.567-0.635,6.736-2.665,8.803-5.639c2.07-2.973,2.864-6.648,2.218-10.213c-0.216-1.193-0.317-1.753-0.546-3.021
	c0-0.12-0.022-0.238-0.064-0.35c-2.536-14.016-5.837-32.274-6.003-33.192c0.435-0.151,0.799-0.069,1.231-0.25
	c3.331-1.395,6.532-3.781,8.422-7.698c1.89-3.917,2.44-9.278,0.78-16.545c-0.104-0.452-0.509-0.775-0.973-0.775
	c-0.212,0-0.419,0.067-0.589,0.192c0,0-0.174,0.147-0.849,0.377c-0.675,0.231-1.775,0.488-3.406,0.53
	c-3.262,0.086-8.645-0.701-16.855-4.342C161.533,279.823,156.724,278.955,151.571,278.889L151.571,278.889L151.571,278.889z
	 M151.557,280.933c4.946,0.062,9.51,0.872,12.973,2.407c8.408,3.728,14.081,4.607,17.719,4.512c1.796-0.047,3.071-0.34,3.944-0.633
	c1.205,6.211,0.771,10.819-0.761,13.994c-1.646,3.413-4.384,5.456-7.393,6.717c-6.019,2.521-12.976,1.689-12.976,1.689
	c-0.043-0.005-0.085-0.008-0.128-0.008c-0.51,0-0.943,0.392-0.994,0.9c-0.78,8.287-3.37,13.616-5.73,16.876
	c-2.215,3.062-3.906,4.003-4.135,4.138c-0.39-0.136-1.38-0.487-3.149-1.106v0.008c-2.496-0.875-5.25-0.611-7.528,0.735
	c-2.277,1.346-3.844,3.638-4.284,6.246l-0.013,0.162c0-0.021,0-0.042,0.002-0.063c-0.696,4.44,2.034,8.724,6.367,9.949
	c2.788,0.788,4.789,1.355,5.53,1.565c-0.138,0.522-0.249,0.964-0.552,2.122c-0.804,3.067-3.405,5.321-6.555,5.684
	c-5.156,0.594-11.555,1.336-11.931,1.379c-0.348-0.165-18.026-8.58-22.862-24.338c-2.451-7.982-0.807-13.849,1.415-17.806
	c2.223-3.957,4.991-5.913,4.991-5.913c0.325-0.228,0.484-0.629,0.406-1.019c-1.25-6.14,0.113-11.129,3.111-15.224
	c2.998-4.094,7.691-7.269,13.101-9.446c5.411-2.176,11.531-3.335,17.29-3.51C150.135,280.931,150.851,280.924,151.557,280.933
	L151.557,280.933L151.557,280.933z M226.929,288.148h22.303v11.561h-22.303V288.148z M420.033,292.934
	c-0.461,0.013-0.856,0.345-0.95,0.796c0,0-0.532,2.607-1.101,5.383c-0.732,3.578-3.528,6.366-7.106,7.098
	c-2.776,0.568-5.382,1.107-5.382,1.107c-0.459,0.097-0.792,0.506-0.792,0.977c0,0.47,0.333,0.88,0.792,0.978
	c0,0,2.607,0.529,5.382,1.098c3.578,0.733,6.374,3.531,7.106,7.109c0.568,2.776,1.101,5.381,1.101,5.381
	c0.092,0.467,0.504,0.807,0.98,0.807c0.476,0,0.889-0.34,0.981-0.807c0,0,0.529-2.607,1.098-5.381
	c0.733-3.579,3.523-6.376,7.101-7.109c2.776-0.568,5.382-1.098,5.382-1.098c0.46-0.098,0.793-0.507,0.793-0.978
	c0-0.47-0.333-0.88-0.793-0.977c0,0-2.606-0.538-5.382-1.107c-3.579-0.732-6.368-3.521-7.101-7.098
	c-0.568-2.776-1.098-5.383-1.098-5.383C420.946,293.256,420.516,292.919,420.033,292.934z M420.064,298.897
	c0.063,0.308,0.061,0.297,0.125,0.612c0.892,4.357,4.3,7.772,8.656,8.664c0.308,0.063,0.297,0.056,0.597,0.117
	c-0.301,0.062-0.289,0.062-0.597,0.125c-4.356,0.892-7.764,4.302-8.656,8.658c-0.064,0.316-0.062,0.304-0.125,0.611
	c-0.063-0.308-0.062-0.296-0.127-0.611c-0.891-4.356-4.299-7.766-8.656-8.658c-0.308-0.063-0.296-0.063-0.596-0.125
	c0.3-0.061,0.289-0.054,0.596-0.117c4.357-0.892,7.765-4.307,8.656-8.664C420.002,299.194,420.001,299.205,420.064,298.897z
	 M175.628,310.428c0.175,0.965,3.432,18.971,5.954,32.905c-1.508,2.165-3.39,2.373-5.174,2.095c-1.866-0.29-3.398-1.218-3.398-1.218
	c-0.158-0.097-0.34-0.148-0.524-0.148c-0.548,0-1,0.45-1,1c0,0.347,0.181,0.669,0.476,0.851c0,0,1.804,1.128,4.138,1.49
	c1.815,0.283,4.087,0.015,5.93-1.583c0.082,0.453,0.123,0.677,0.203,1.12c0.551,3.043-0.136,6.176-1.902,8.713
	c-1.766,2.539-4.468,4.272-7.513,4.815c-5.322,0.948-10.329,1.843-10.329,1.843c-0.472,0.087-0.819,0.501-0.82,0.982v12.326H132.73
	v-15.498c0.89-0.103,6.469-0.744,11.392-1.311c3.961-0.457,7.246-3.309,8.257-7.166c0.441-1.678,0.804-3.067,0.804-3.067
	c0.139-0.523-0.173-1.07-0.694-1.217c0,0-3.208-0.906-6.473-1.829c-3.401-0.961-5.517-4.307-4.931-7.793
	c0.342-2.03,1.56-3.804,3.332-4.852c1.771-1.047,3.912-1.262,5.854-0.583c2.078,0.727,3.693,1.297,3.693,1.297
	c0.274,0.097,0.575,0.071,0.828-0.072c0,0,2.474-1.432,5.035-4.971c2.451-3.387,4.97-8.918,5.899-16.935
	C166.754,311.732,170.758,311.642,175.628,310.428L175.628,310.428L175.628,310.428z M239.853,332.209h132.913
	c6.887,0,13.489,2.739,18.359,7.61c4.87,4.869,7.608,11.472,7.608,18.359c0,6.887-2.738,13.495-7.608,18.364
	c-4.87,4.87-11.472,7.603-18.359,7.603h-74.76c-0.377-0.519-0.792-1.02-1.263-1.483c-3.203-3.149-5.918-5.827-6.363-6.265
	c0.315-0.677,4.101-8.81,6.888-14.799h1.065l4.206,9.431c0.142,0.397,0.52,0.663,0.941,0.663c0.548,0,1-0.45,1-0.999
	c0-0.166-0.042-0.329-0.12-0.474l-4.3-9.638c-0.007-0.266-0.119-0.517-0.313-0.7l-1.022-2.29c0.165-1.955-0.672-3.892-2.274-5.096
	l-3.196-7.167c-0.167-0.374-0.548-0.607-0.957-0.588c-0.379,0.015-0.716,0.244-0.871,0.588l-4.988,11.182
	c-3.472,5.274-6.042,9.176-10.676,16.214c-0.51-0.073-2.292-0.327-4.723-0.677c-1.904-0.274-3.839,0.274-5.308,1.518
	c-1.468,1.242-2.332,3.059-2.374,4.984c-0.053,2.406-0.071,3.21-0.123,5.597h-23.382c-6.887,0-13.489-2.733-18.359-7.603
	c-4.87-4.869-7.602-11.477-7.602-18.364s2.732-13.49,7.602-18.359C226.364,334.948,232.965,332.209,239.853,332.209L239.853,332.209
	L239.853,332.209z M331.412,344.686c-0.429-0.003-0.814,0.271-0.953,0.677l-9.151,22.804l-11.236-22.871
	c-0.174-0.374-0.561-0.603-0.973-0.575c-0.52,0.037-0.928,0.475-0.928,0.997c0,0.159,0.038,0.316,0.11,0.456l12.224,24.89
	c0.168,0.339,0.515,0.554,0.894,0.554c0.408,0,0.776-0.25,0.928-0.628l9.982-24.882c0.062-0.133,0.094-0.278,0.094-0.423
	C332.403,345.14,331.957,344.69,331.412,344.686L331.412,344.686L331.412,344.686z M259.516,344.737
	c-1.915,0-3.747,0.76-5.101,2.114c-1.354,1.353-2.116,3.188-2.116,5.103s0.762,3.755,2.116,5.109
	c1.353,1.354,3.186,2.117,5.101,2.117h9.777c1.384,0,2.708,0.545,3.688,1.525c0.98,0.98,1.533,2.307,1.533,3.693
	s-0.553,2.715-1.533,3.695c-0.98,0.98-2.303,1.526-3.688,1.526h-15.993c-0.548,0-1,0.451-1,1c0,0.548,0.451,1,1,1h15.993
	c1.914,0,3.747-0.755,5.102-2.109c1.353-1.353,2.116-3.196,2.116-5.111s-0.763-3.755-2.116-5.109
	c-1.354-1.353-3.188-2.108-5.102-2.108h-9.777c-1.385,0-2.708-0.554-3.687-1.534c-0.98-0.979-1.533-2.307-1.533-3.693
	c0-1.385,0.553-2.715,1.533-3.695c0.979-0.98,2.301-1.525,3.687-1.525h15.993c0.007,0,0.015,0,0.022,0c0.548,0,1-0.451,1-0.999
	c0-0.548-0.451-1-1-1c-0.007,0-0.015,0-0.022,0.001L259.516,344.737L259.516,344.737z M337.11,344.737
	c-0.545,0.002-0.993,0.449-0.995,0.995v12.125c-0.071,0.209-0.071,0.434,0,0.642v12.122c0.001,0.545,0.448,0.994,0.995,0.997h22.215
	c0.548,0,1-0.451,1-1c0-0.548-0.451-1-1-1h-21.212V359.18h21.212c0.548,0,1-0.451,1-1c0-0.549-0.451-1-1-1h-21.212v-10.446h21.212
	c0.539-0.013,0.977-0.459,0.977-0.999c0-0.54-0.437-0.987-0.977-0.999H337.11z M292.341,348.194l1.43,3.195
	c-0.749-0.104-1.505-0.07-2.227,0.115c-0.278,0.071-0.543,0.176-0.808,0.287L292.341,348.194L292.341,348.194z M292.71,353.318
	c0.683-0.047,1.386,0.092,2.036,0.435l-0.237-0.178c0.001,0.001,0.278,0.199,0.28,0.199l-0.038-0.015
	c0.077,0.04,0.143,0.092,0.215,0.137c0.094,0.092,0.205,0.165,0.326,0.214c1.09,0.838,1.625,2.189,1.436,3.522c0,0,0,0.001,0,0.002
	s0,0.003,0,0.004s0,0.002,0,0.004c-0.051,0.356-0.156,0.706-0.316,1.052c-2.918,6.272-8.141,17.502-8.141,17.502
	c-0.179,0.384-0.096,0.841,0.207,1.138c0,0,3.418,3.355,6.873,6.753c3.651,3.59,3.913,9.359,0.61,13.271
	c-5.215,6.178-11.168,13.232-11.896,14.095l-18.738-19.249c0.298-0.451,6.65-10.094,11.642-17.674
	c0.113-0.107,0.199-0.239,0.252-0.385c4.699-7.135,7.341-11.148,10.883-16.527c0.012-0.015,0.023-0.031,0.033-0.047
	c0.008-0.011,0.016-0.023,0.024-0.035c0.002-0.003,0.004-0.006,0.006-0.01c0.535-0.813,1.213-1.842,1.654-2.512
	C290.493,353.992,291.573,353.396,292.71,353.318L292.71,353.318L292.71,353.318z M270.249,373.975
	c0.168,0.006,0.336,0.023,0.503,0.047c1.954,0.281,2.872,0.413,3.796,0.544c-3.945,5.992-8.434,12.808-9.425,14.313
	c0.057-2.494,0.133-5.864,0.231-10.287c0.029-1.353,0.635-2.627,1.668-3.502C267.927,374.325,269.078,373.932,270.249,373.975
	L270.249,373.975L270.249,373.975z M131.979,377.618h30.431l7.81,4.179c-3.76,0.035-7.484,1.42-10.505,4.058
	c-0.004,0.004-0.01,0.004-0.013,0.008c-0.126,0.045-0.242,0.116-0.34,0.207c-3.301,3.036-5.205,7.297-5.258,11.781
	c-0.053,4.484,1.749,8.793,4.976,11.907c9.651,9.31,22.294,23.511,33.729,35.871l3.588,61.151h-77.344l-0.807-10.682l-0.806-10.714
	c-0.002-0.012-0.004-0.025-0.006-0.037l-2.939-38.916c0.029-0.164,0.016-0.334-0.037-0.491l-4.218-55.835
	c1.141-1.248,2.486-2.306,3.999-3.106C120.776,383.541,131.706,377.763,131.979,377.618L131.979,377.618L131.979,377.618z
	 M170.577,383.768c2.133,0.033,4.256,0.552,6.202,1.539l0.437,0.234c1.107,0.611,2.152,1.371,3.099,2.298
	c14.969,14.653,37.847,41.575,37.847,41.575c0.349,0.413,0.973,0.473,1.392,0.133l44.415-35.869l18.698,19.207
	c-1.02,0.901-35.897,31.743-54.031,47.776c-5.475,4.843-13.731,4.66-18.993-0.413c-4.361-4.207-9.539-9.689-14.997-15.585
	c-0.076-0.131-0.18-0.243-0.305-0.328c-11.41-12.336-24.109-26.594-33.875-36.014c-2.832-2.732-4.413-6.512-4.366-10.446
	c0.047-3.931,1.711-7.666,4.601-10.33c0.003-0.003,0.006-0.005,0.008-0.008C163.503,384.968,167.051,383.713,170.577,383.768
	L170.577,383.768z M108.416,392.559l4.054,53.627l-6.51,16.347c-0.097,0.244-0.095,0.517,0.008,0.759l9.487,22.403l1.594,21.083
	H98.867c-0.325-0.688-10.49-22.29-17.104-36.335c-3.259-6.92-3.245-14.933,0.029-21.845c7.484-15.797,20.718-43.726,25.983-54.84
	C107.969,393.348,108.186,392.949,108.416,392.559C108.416,392.559,108.416,392.559,108.416,392.559z M442.898,414.373
	c11.619,9.21,21.339,29.704,22.082,53.303c0.032,0.96,0.051,1.925,0.051,2.895c0,13.423-2.953,25.961-7.558,36.208h-13.573v-65.628
	c0-0.006,0-0.012,0-0.018c0-0.547-0.451-0.999-0.999-0.999c-0.007,0-0.013,0-0.02,0c-0.541,0.01-0.982,0.457-0.982,0.999
	c0,0.006,0.001,0.012,0.001,0.018v65.628h-13.574c-4.382-9.753-7.262-21.584-7.53-34.276c-0.014-0.643-0.026-1.287-0.026-1.935
	c0-0.316,0.006-0.629,0.01-0.944C421.034,445.212,430.962,423.836,442.898,414.373L442.898,414.373L442.898,414.373z M373.7,446.851
	h0.002c13.009-0.34,30.802,7.469,45.085,22.119c-0.008,0.532-0.014,1.066-0.014,1.6c0,0.843,0.011,1.683,0.034,2.518
	c0.327,12.392,3.049,23.991,7.266,33.69h-0.784l-34.806-41.481c-0.193-0.238-0.484-0.374-0.79-0.37
	c-0.543,0.007-0.987,0.456-0.987,1c0,0.24,0.087,0.471,0.244,0.653l33.731,40.197h-24.959c-2.114-2.047-4.173-4.227-6.128-6.555
	C376.732,482.513,370.833,460.934,373.7,446.851L373.7,446.851L373.7,446.851z M511.126,446.851
	c2.867,14.083-3.031,35.662-17.894,53.372c-1.954,2.329-4.009,4.507-6.126,6.555h-24.95l33.723-40.197
	c0.157-0.182,0.243-0.414,0.243-0.653c0-0.548-0.45-1-0.999-1c-0.004,0-0.007,0-0.011,0c-0.295,0.005-0.573,0.141-0.759,0.37
	l-34.432,41.026c4.387-10.265,7.108-22.614,7.108-35.754c0-0.856-0.015-1.71-0.037-2.56
	C481.106,453.975,498.404,446.523,511.126,446.851L511.126,446.851L511.126,446.851z M112.811,450.714l2.173,28.752l-7.019-16.572
	L112.811,450.714L112.811,450.714z M39.825,506.779c-0.539,0.012-0.977,0.459-0.977,0.999c0,0.539,0.437,0.987,0.977,0.999h19.603
	c0.008,0,0.015,0,0.023,0c0.547,0,0.999-0.45,0.999-0.999s-0.451-0.999-0.999-0.999c-0.008,0-0.015,0-0.023,0H39.825z
	 M535.074,506.779c-0.539,0.012-0.977,0.459-0.977,0.999c0,0.539,0.438,0.987,0.977,0.999h19.613c0.007,0,0.015,0,0.022,0
	c0.548,0,0.999-0.45,0.999-0.999s-0.45-0.999-0.999-0.999c-0.007,0-0.015,0-0.022,0H535.074z"></path>
</svg>