<svg xmlns="http://www.w3.org/2000/svg" version="1.1" fill="rgb(163,96,65)" stroke-width="1" stroke="rgb(163,96,65)" viewBox="0 0 90 95">
 <path d="m27.523 40.195c-0.24219-0.57031-0.22266-1.2461 0.046874-1.8086 0.09375-0.19141-0.19531-0.33203-0.28906-0.14062-0.3125 0.64062-0.33203 1.418-0.054688 2.0742 0.085938 0.19531 0.38281 0.070313 0.29688-0.125z"/>
 <path d="m45.168 37.676c0.50391-0.30078 0.95703-0.39453 1.4023-0.89062 0.61719-0.67969 0.40625-1.4219 0.17969-2.2031-0.34766-1.2109-0.71484-2.8594-1.3008-5.1016-0.054688-0.20703-0.36328-0.125-0.30859 0.082031 0.52734 2.0195 0.96094 3.918 1.3047 5.1094 0.21875 0.75391 0.39063 1.3516-0.10937 1.8984-0.39844 0.4375-0.81641 0.52344-1.332 0.83203-0.18359 0.10547-0.015625 0.37891 0.16406 0.27344z"/>
 <path d="m41.953 40.305c0.039063-0.21094-0.27734-0.26172-0.31641-0.058594-0.18359 1.0078 0.9375 1.9961 2.4844 1.4375 0.19922-0.070313 0.09375-0.37109-0.10938-0.30078-1.3047 0.47266-2.1992-0.3125-2.0586-1.0781z"/>
 <path d="m40.68 30.199c-0.48438-0.042969-1.043-0.17578-1.3711 0.23047-0.20703 0.25781-0.1875 0.57031 0.23047 0.73828 0.33594 0.13281 0.70703 0.15625 1.0703 0.14844 1.5664-0.015625 1.8906-0.95703 0.070313-1.1172z"/>
 <path d="m41.98 35.086c0.57422-0.17188 0.81641-1.0586 0.53906-1.9727-0.27734-0.91797-0.96484-1.5195-1.5391-1.3438-0.57422 0.17188-0.81641 1.0586-0.53906 1.9727 0.27344 0.91406 0.96484 1.5156 1.5391 1.3438z"/>
 <path d="m48.844 32.867c0.57422-0.16797 0.82031-1.0508 0.55078-1.9688-0.26953-0.91797-0.95703-1.5234-1.5312-1.3555s-0.82031 1.0508-0.55078 1.9688 0.95703 1.5273 1.5312 1.3555z"/>
 <path d="m54.805 20.164c-6.7461-5.8047-15.762-7.6797-22.973-4.7773-4.9453 1.9961-9.25 5.6406-11.902 10.566-3.6406 6.7344-3.6055 14.465 0.10156 21.203 3.9492 7.1641 11.801 11.484 19.398 11.484 6.2031 0 12.789-2.8438 16.984-7.7656 0.015626-0.015625 0.035157-0.054688 0.039063-0.066406 8.0898-9.4453 6.4297-23.738-1.6484-30.645zm-18.77 37.867c3.6797-0.76953 6.3359-0.73828 9.6992-0.67578-3.2812 1-6.4766 1.2148-9.6992 0.67578zm10.633-0.98047c-1.9336-0.023437-4.082-0.125-6.2539 0.050781-0.42187-0.51172-0.18359-1.1836 0.28125-1.4414 0.14844-0.082031 0.26953-0.11719 0.39453-0.23828 0.41016 0.011719 0.4375-0.027344 5.4688-0.96094 0.21094-0.039063 0.14453-0.35547-0.058594-0.31641-4.8281 0.88672-4.8242 0.92188-5.2539 0.94531 0.015625-0.27344-0.19141-0.38672-0.45312-0.46875l-0.042969-0.011719c-0.24609-0.078125-0.80859-0.32812-0.67969-0.99609 0.11328-0.60938 0.81641-0.82422 1.3672-1.1016 1.5977-0.78516 3.3789-1.125 5.1523-0.97656 0.55469 0.050782 1.25 0.16406 1.6953 0.60156 0.39453 0.38672 0.49219 1.1406 0.058594 1.4766-0.09375 0.074219-0.078125 0.22266 0.03125 0.27344 0.72656 0.33594 1.207 1.1406 1.1758 1.9414-1.1523 0.58203-1.9883 0.91406-2.8828 1.2227zm-6.2578-8.2695c0.28516 0.011719 0.35938 0.019531 0.67578 0.011719 0.21484-0.003907 0.19531-0.33203-0.007813-0.32031-4.0547 0.09375-8.3281-2.1953-10.688-7.0938 0.042969 0.023438 0.082031 0.046875 0.12891 0.0625 0.36719-1.2578 0.46094-2.5898 0.28125-3.8906-0.125-0.85938 0.046875-1.0547 0.73047-1.3086 4.1133-1.543 7.6992-4.7891 9.6914-9.5312 3.9805 1.1602 4.5234 1.332 5.8398 1.5234-0.17578 0.15625-0.34766 0.32422-0.47656 0.52344-0.28516 0.43359 0.0625 0.67969 0.47656 0.58984 0.53906-0.11719 1.2812-0.59766 1.625-1.043 0.30469 0 0.625 0.003906 0.91797 0.003906 2.3281 2.4375 2.9688 6.4883 2.9805 6.5586 1.3086 5.3867-0.96094 10.93-5.8945 12.59-0.003906 0-0.003906 0.007813-0.007812 0.007813-0.023438-0.007813-0.046875-0.019532-0.074219-0.015625-0.085937 0.015625-0.14453 0.10156-0.12891 0.1875 0.18359 0.95312 0.51172 2.3945 0.79688 3.668-0.22656-0.046876-0.45312-0.082032-0.66016-0.10156-3.2344-0.26953-5.3516 1.0586-5.6094 1.1445-0.21875-1.3086-0.39844-2.3945-0.59766-3.5664zm-10.602-19.879c-0.30078-0.36719-0.32031-0.89453-0.30078-1.2031 0.13281-1.9336 1.8828-3.5742 3.8203-3.582 0.21094 0 0.21094 0.32031 0 0.32031-1.7461 0.007812-3.3828 1.543-3.5039 3.2852-0.019531 0.30078-0.003907 0.83984 0.35547 1.1016 0.10156 0.074219 0.082031 0.23047-0.035157 0.27734-1.6992 0.69922-2.6016 2.6602-1.8398 4.4883-0.11719-0.003906-0.23438-0.003906-0.35156 0.003906-0.69141-1.8789 0.17188-3.8594 1.8555-4.6914zm-3.1289 5.293c0.38672-0.003906 0.84766-0.15625 1.2266-0.28125 0.3125-0.023437 0.625-0.007812 0.92188 0.042969-0.60938 3.4453 0.73438 7.0352 2.3672 9.4805-1.3008 0.78516-2.875 1.0039-4.2539 0.57031-2.1406-0.66406-3.707-2.8594-3.6445-5.0977 0.0625-2.0508 1.4766-3.9805 3.3828-4.7148zm23.195 21.473c-0.035156-0.79297-0.48438-1.5625-1.1641-1.9688 0.40234-0.50781 0.26562-1.3359-0.19922-1.793-0.25391-0.25-0.5625-0.40234-0.88672-0.50781-0.29297-1.3047-0.60547-2.6719-0.79688-3.6445 5.1094-1.7461 7.3984-7.4805 6.0703-12.941-0.007813-0.0625-0.625-3.9609-2.8594-6.4961 0.39063 0 0.66797 0.003906 0.66797 0.003906-1.7188-4.0625-8.8789-6.7383-11.348-5.8125-1.9609-0.16406-3.3008 0.24609-4.5352 0.58203-1.0195-2.4961-3.7383-3.6445-6.1406-2.8398-1.1055 0.36328-2.1211 1.3008-2.207 2.4297 0.007813 0 0.011719-0.003907 0.015626-0.003907 0.085937 0.023438 0.13672 0.10938 0.11328 0.19531-0.13281 0.50391 0.82422 1.5625 1.2734 1.9297 0.16406 0.13672-0.039062 0.38281-0.20312 0.24609-0.53516-0.4375-1.4922-1.5039-1.3867-2.1875-0.51562-0.30859-1.2188-0.19922-1.8242-0.070313-1.1602 0.25-2.5195 0.66797-2.8711 1.8008-0.28906 0.91016 0.23047 1.8711 0.76172 2.668 0.37891 0.55859 0.92969 1.1523 1.5391 1.3008-0.03125 0.007812-0.054687 0.027344-0.085937 0.039062 0.91406-0.31641 2.4102-0.66016 3.1523-0.003906 0.16016 0.14062-0.054688 0.37891-0.21094 0.24219-0.81641-0.72266-2.8711 0.097656-2.9648 0.097656-0.14453 0-0.22656-0.18359-0.082031-0.28516-0.18359 0.085937-0.35547 0.19922-0.49219 0.33984-0.61328 0.64844-1.2852 2.6719-1.0508 4.1211 0.17188 1.1133 0.90234 2.2031 2.1445 2.4219-2.7305 3.2734-0.85547 7.7148 2.5508 8.7773 1.4648 0.45703 3.125 0.23828 4.5234-0.61328 2.0742 2.9648 5.3516 4.8164 8.707 5.0625 0.19141 1.125 0.375 2.2422 0.625 3.7422-0.4375 0.22266-0.85547 0.50781-0.95313 1.0469-0.125 0.62891 0.21875 1.1523 0.89844 1.3633 0.31641 0.097656 0.44141 0.19141 0.007812 0.40234-0.72266 0.35547-1 1.1602-0.61328 1.8164-1.5 0.14453-3.332 0.375-4.793 0.74219-14.203-2.9141-22.188-18.555-15.039-31.773 0.96484-1.7891 2.0078-3.1875 3.2383-4.5352 0.21484-0.11719 0.42969-0.23828 0.63672-0.34766 10.871-6.0664 19.781-5.0781 26.117-0.75781 8.2227 5.6055 11.18 16.543 8.8203 25.945-2.1367 4.1523-5.3086 7.2383-9.1562 9.2656z"/>
 <path d="m77.848 43.949c4.1289 1.6641 4.0664 1.707 4.2695 1.5547 0.10156-0.074218 0.15234-0.14453 0.16797-0.26953 0.058594-0.39453 0.097656-0.79688 0.042969-1.1953-0.16406-1.1758-1.1367-1.9805-2.2383-2.2695-0.83594-0.22266-1.8242 0.11328-2.3398 0.53125-0.17969 0.14844-0.33984 0.32031-0.49609 0.49219s-0.41406 0.42578-0.33594 0.66016c0.089843 0.28906 0.69141 0.40234 0.92969 0.49609z"/>
 <path d="m80.586 41.758c0.70703 0.28516 1.5156-0.058593 1.8008-0.76562 0.28516-0.70703-0.058594-1.5156-0.76562-1.8008-0.70703-0.28516-1.5156 0.058594-1.8008 0.76562-0.28516 0.70703 0.058594 1.5156 0.76563 1.8008z"/>
 <path d="m79.215 10.879c-4.4258 0.28906-7.8398 3.9414-7.9297 8.2969-3.6133 0.88281-5.375 2.5039-6.7656 5.4258-1.4648-3.1523-3.5-5.9336-6.0234-8.0938-8.3906-7.207-19.598-9.543-28.555-5.9492-10.707 4.2969-18.074 14.469-18.086 26.164-0.12109 0.82422-0.10547 1.6719-0.11719 2.5547-0.20703 10.395 5.582 20.234 15.547 25.102-0.625 1.2539-0.96094 2.6133-1.3281 3.668-1.4492-0.78125-2.4883 0.035156-3.4102 1.3906-1.2344 1.8086-2.1133 3.9219-2.5391 6.1094-0.16016 0.82422-0.30859 1.9023-0.019531 2.9375 0.44922 1.6211 2.2305 3.0586 3.6953 3.7969 0.14453 0.24609 0.17969 0.26172 0.22656 0.32422-0.37891 0.89453-0.73438 1.8008-1.0547 2.7109-0.67188 1.8789-1.0469 4.0273 0.57812 5.1875 0.9375 0.65625 3.2734 0.91797 4.3281 0.058594 0.30859-0.25 0.53906-0.58984 0.75781-0.92969 1.0859-1.6445 2.0352-3.4375 2.8086-5.25 0.066406 0 23.82 0.11719 23.914 0.11719 2.0703 0 4.3516-0.070312 6.2695-1.1289 2.0117-1.1094 2.2617-3.2461 2.2383-5.3906-0.0625-4.668-0.60938-8.6562-1.625-11.848-0.93359-2.9258-2.2539-5.1172-3.9258-6.543 1.3398-1.2656 2.5469-2.668 3.6055-4.1914 1.5078 0.43359 2.582 1.0938 3.3086 1.8047 0.66016 0.66016 1.168 1.4961 1.6172 2.2344 1.2305 2.0078 2.5781 4.2188 3.5391 6.5781-1.0625 2.2422-1.1367 4.9219 0.027344 7.3281 2.043 4.207 7.1094 5.9609 11.312 3.918 4.207-2.0391 5.9609-7.1016 3.918-11.312-3.0156-6.2188-11.824-6.3594-15.066-0.29688-0.96094-2.2891-2.2617-4.4258-3.457-6.375-1.1641-1.9141-2.0977-3.2852-5.0117-4.1484 1.707-2.5312 2.9023-5.1602 3.6758-7.9531 0.16797-0.59375 0.78906-3.2734 0.9375-5.2852 0.14453-0.77344 0.16797-0.77734 0.29297-1.8047 2.4492-0.17969 4.8945 0.40625 7.1797 1.0859-0.80469 3.0508 0.76562 6.3008 3.7656 7.5117 3.2773 1.3203 6.9648-0.27734 8.2695-3.5195 1.3125-3.2578-0.25781-6.957-3.5195-8.2695-3.375-1.3633-7.2891 0.39062-8.4297 3.9727-2.293-0.67969-4.7461-1.2695-7.2266-1.1016 0.56641-5.0195-0.21484-10.203-2.2461-14.77 1.3203-2.9922 3.1367-4.6094 6.5977-5.4727 0.046876 2.5312 1.1367 4.707 2.8828 6.2344 5.7109 5.0039 14.566 0.53906 14.074-6.9453-0.30469-4.6875-4.3633-8.2305-9.0312-7.9336zm1.9141 57.789c0.44531 0.30469 0.83594 0.72656 1.1719 1.1406 0.1875 0.23438 0.13281 0.53516 0.011719 0.64062-0.20312 0.17578-0.10938 0.125-5.3828 2.6719-0.3125 0.15234-0.98047 0.66016-1.3516 0.49219-0.019531-0.011719-0.042969-0.019531-0.058594-0.03125-0.26172-0.19141-0.27734-0.62891-0.30859-0.91797-0.09375-0.9375-0.078126-1.3828 0.33203-2.3281 0.91797-2.0742 3.7812-2.8867 5.5859-1.668zm-5.5586-3.7305c0.9375-0.46094 2.0703-0.0625 2.5273 0.87109 0.45703 0.94141 0.0625 2.0703-0.87891 2.5273-0.9375 0.46094-2.0703 0.0625-2.5273-0.87109-0.45312-0.94531-0.0625-2.0703 0.87891-2.5273zm6.9062-27.762c3.0938 1.2461 4.5898 4.7578 3.3398 7.8555-1.2461 3.0898-4.7578 4.5898-7.8555 3.3398-2.8945-1.168-4.3945-4.3359-3.543-7.2734l0.003906-0.003906v-0.003906c1-3.4336 4.7383-5.2539 8.0547-3.9141zm-54.711 36.273c-0.10156-0.074219-0.19922-0.15234-0.30078-0.22656 0.13672 0.007813 0.27344-0.003906 0.40234-0.023437-0.03125 0.085937-0.066407 0.16797-0.10156 0.25zm-0.19531-8.9297c1.0508 0.5 2.1289 0.92969 3.2305 1.2969-0.64453 1.6172-1.2891 3.2344-1.9297 4.8594-0.53516-0.91406-1.1562-1.3164-1.7383-1.7852-0.28906-0.23047-0.58594-0.47266-0.89844-0.67578 0.38281-1.0859 0.71094-2.4414 1.3359-3.6953zm-7.2773 13.879c-0.26953-0.97266-0.125-2 0.027343-2.7891 0.41797-2.1445 1.2773-4.2148 2.4883-5.9922 0.32812-0.48438 0.70312-0.97266 1.207-1.2891 1.2891-0.80469 2.2969 0.36719 3.4531 1.2305 0.66016 0.49219 1.5742 1.6055 1.4492 2.4297-0.09375 0.62109-0.99219 1.1914-2.1172 0.76562-0.48828-0.33594-0.98438-0.65234-1.4883-0.95703-0.16797-0.10156-0.33984 0.14062-0.17969 0.26172 1.6016 1.2656 0.83594 0.38281 2.8398 1.9453 0.42969 0.33594 0.86328 0.70312 1.0273 1.2031 0.33984 1.0352-0.55469 2.375-2.5664 1.3906-0.89844-0.67969-1.8398-1.3555-2.8477-2.0625-0.16406-0.11719-0.35156 0.12109-0.19531 0.25391 2.4922 2.1289 2.0352 1.4336 3.5352 2.5859 0.73438 0.5625 1.9102 1.1406 2.0117 2.1211 0.066406 0.65625-0.34375 1.332-0.94141 1.543-1.2188 0.42969-2.6445-1.2383-5.3828-3.5469-0.16016-0.13672-0.36719 0.10937-0.20703 0.24609 1.4609 1.3008 2.1641 2.0391 3.0039 2.6289 0.30469 0.3125 0.52344 0.65625 0.49609 1.0312-0.035156 0.46484-0.46484 0.78516-0.85547 0.85156-0.39844 0.070312-0.85156-0.039062-1.3516-0.32031-0.87109-0.48438-2.9258-1.7891-3.4062-3.5312zm41.523-12.176c1.0039 3.1602 1.5469 7.1172 1.6094 11.754 0.03125 2.3633-0.3125 4.1367-2.0703 5.1094-2 1.1016-4.4414 1.0938-6.6016 1.0898-4.8984-0.027343-9.082-0.046875-23.297-0.11328 1.1016-2.6328 4.9336-14.023 5.8867-16.945 6.9844 0.48828 14.816-1.957 20.617-7.3086 1.6367 1.3828 2.9375 3.5312 3.8555 6.4141zm-21.227-2.3047c-10.047 0.49219-20.094-5.1523-25.004-14.059-8.1289-14.754-1.1562-32.73 14.477-39.004 9.2422-3.707 20.309-0.90625 28.227 5.8945 5.3906 4.6133 8.5703 12.094 8.5078 20.004-0.070313 14.875-11.586 26.445-26.207 27.164zm33.793-38.414c-1.6406-1.4375-2.625-3.4336-2.7695-5.6094-0.29688-4.4961 3.125-8.3984 7.6211-8.6914 4.5039-0.29688 8.3984 3.1328 8.6914 7.6211 0.47656 7.1953-8.0469 11.496-13.543 6.6797z"/>
 <path d="m83.062 19.664c-1.1992-1.7969-4.1328-2.0859-5.7109-0.54687-0.72266 0.70312-0.90625 1.1094-1.168 2-0.085938 0.29687-0.25 0.75391-0.019532 0.99609 0.27734 0.29297 1.0742 0.074219 1.418 0.054688 5.5547-0.36328 5.6289-0.33984 5.9023-0.44141 0.14453-0.050781 0.3125-0.30859 0.22266-0.58984-0.050781-0.16797-0.34375-1.0234-0.64453-1.4727z"/>
 <path d="m79.625 17.914c1.0273-0.066406 1.8047-0.95312 1.7344-1.9805-0.066406-1.0273-0.95312-1.8008-1.9805-1.7344-1.0273 0.066406-1.8008 0.95312-1.7344 1.9805 0.066407 1.0234 0.95312 1.8008 1.9805 1.7344z"/>
 <path d="m18.164 14.609c-1.082-1.0156-2.2344-1.9766-3.4219-2.8594-0.16797-0.125-0.36328 0.12891-0.19141 0.25781 1.1758 0.875 2.3203 1.8281 3.3945 2.8359 0.15625 0.14453 0.375-0.085938 0.21875-0.23438z"/>
 <path d="m18.379 10.168c1.375 3.6328 1.2852 3.8516 1.5469 3.7578 0.082031-0.03125 0.125-0.12109 0.09375-0.20703l-1.3398-3.6641c-0.074219-0.19531-0.375-0.085938-0.30078 0.11328z"/>
 <path d="m12.16 16.109c-0.20312-0.019531-0.23828 0.30469-0.023437 0.32031 1.4102 0.097656 2.8281 0.12109 4.2148 0.074218 0.20703-0.007812 0.21094-0.32031-0.011718-0.32031-1.3867 0.046875-2.793 0.019531-4.1797-0.074219z"/>
</svg>